<?xml version="1.0" encoding="UTF-8"?>
<svg version="1.1" xmlns="http://www.w3.org/2000/svg" width="1024" height="1024">
<path d="M0 0 C4.11238178 0.71226929 7.96557213 1.11160717 12.16064453 0.96557617 C12.16064453 1.62557617 12.16064453 2.28557617 12.16064453 2.96557617 C12.77552734 3.02616211 13.39041016 3.08674805 14.02392578 3.14916992 C14.83216797 3.23295898 15.64041016 3.31674805 16.47314453 3.40307617 C17.27365234 3.48428711 18.07416016 3.56549805 18.89892578 3.64916992 C21.16064453 3.96557617 21.16064453 3.96557617 24.16064453 4.96557617 C24.16064453 4.30557617 24.16064453 3.64557617 24.16064453 2.96557617 C25.15064453 2.96557617 26.14064453 2.96557617 27.16064453 2.96557617 C26.16064453 4.96557617 26.16064453 4.96557617 25.16064453 5.96557617 C26.26794922 6.0712793 27.37525391 6.17698242 28.51611328 6.28588867 C33.66676954 6.93269944 38.51469127 8.34023238 43.47314453 9.84057617 C44.36582031 10.09709961 45.25849609 10.35362305 46.17822266 10.61791992 C47.03480469 10.87444336 47.89138672 11.1309668 48.77392578 11.39526367 C49.54518799 11.62455566 50.3164502 11.85384766 51.11108398 12.09008789 C53.54285326 13.12884008 54.57515697 13.83300649 56.16064453 15.96557617 C56.52140808 19.02177429 56.52140808 19.02177429 56.5012207 22.82373047 C56.50165878 23.51667206 56.50209686 24.20961365 56.50254822 24.92355347 C56.50045918 27.21258785 56.47712379 29.50088859 56.45361328 31.78979492 C56.44801771 33.3773407 56.44374743 34.96489165 56.44075012 36.55244446 C56.42929821 40.7299328 56.39982826 44.907108 56.36663818 49.08447266 C56.33594464 53.34753178 56.32224633 57.61064152 56.30712891 61.8737793 C56.2749587 70.23785526 56.2237584 78.60167676 56.16064453 86.96557617 C55.17064453 86.96557617 54.18064453 86.96557617 53.16064453 86.96557617 C52.82033203 86.03358398 52.48001953 85.1015918 52.12939453 84.14135742 C41.09012726 54.76666626 19.71049441 34.1256242 -8.60107422 21.20385742 C-29.49361432 12.38947015 -51.36931652 10.48234953 -73.83935547 10.96557617 C-74.16935547 11.62557617 -74.49935547 12.28557617 -74.83935547 12.96557617 C-74.83935547 12.30557617 -74.83935547 11.64557617 -74.83935547 10.96557617 C-101.74674604 13.71787992 -128.6217663 20.63940983 -147.78076172 41.03198242 C-155.01657014 50.00873723 -157.67031024 60.63997036 -156.83935547 71.96557617 C-154.86489882 82.40677067 -148.57825221 89.1186031 -140.02294922 94.98120117 C-125.77122882 103.8644821 -109.85601686 109.55962509 -94.26611328 115.62817383 C-91.33422075 116.77243909 -88.40973472 117.93294641 -85.48779297 119.10229492 C-84.06373685 119.66196628 -82.63930438 120.22068182 -81.21435547 120.77807617 C-79.46251953 121.46836914 -79.46251953 121.46836914 -77.67529297 122.17260742 C-74.83335424 122.9672542 -73.54330879 123.04056249 -70.83935547 121.96557617 C-70.50935547 122.95557617 -70.17935547 123.94557617 -69.83935547 124.96557617 C-67.85924335 126.08350675 -67.85924335 126.08350675 -65.36157227 126.92333984 C-63.92692879 127.45485909 -63.92692879 127.45485909 -62.46330261 127.99711609 C-61.41564224 128.3721376 -60.36798187 128.74715912 -59.28857422 129.13354492 C-58.20542435 129.53205154 -57.12227448 129.93055817 -56.00630188 130.34114075 C-52.5170293 131.62267995 -49.02229359 132.88846156 -45.52685547 134.15307617 C-40.98741898 135.80866565 -36.45013885 137.47010368 -31.91357422 139.13354492 C-30.80091187 139.54122604 -29.68824951 139.94890717 -28.54187012 140.36894226 C-21.58265087 142.92842409 -14.65032016 145.54499551 -7.75732422 148.27807617 C-6.98482834 148.58146408 -6.21233246 148.88485199 -5.41642761 149.19743347 C2.15407895 152.23663335 9.28654989 156.05337074 16.40844727 160.01342773 C18.05184879 160.90645629 19.72861468 161.73729674 21.40673828 162.56323242 C25.37685667 164.58489554 28.67710451 167.20752383 32.16064453 169.96557617 C33.04365234 170.66166992 33.92666016 171.35776367 34.83642578 172.07495117 C43.69433287 179.1808794 50.84876213 185.84945626 56.71533203 195.64526367 C58.08772028 198.04354202 58.08772028 198.04354202 60.16064453 199.96557617 C61.09240502 202.50251907 61.93397194 205.00995838 62.72314453 207.59057617 C62.94421875 208.27764648 63.16529297 208.9647168 63.39306641 209.67260742 C68.22982906 225.24961344 66.9623569 242.78207827 59.59033203 257.39526367 C59.11853516 258.2434668 58.64673828 259.09166992 58.16064453 259.96557617 C57.66822266 260.8550293 57.17580078 261.74448242 56.66845703 262.66088867 C38.21824639 293.64664913 4.23661514 307.92092537 -29.16503906 316.56762695 C-34.36013444 317.85709362 -39.58179091 318.96310345 -44.83935547 319.96557617 C-45.56928711 320.10592285 -46.29921875 320.24626953 -47.05126953 320.39086914 C-104.22780674 331.00365447 -170.07118745 325.68554046 -224.83935547 306.96557617 C-224.83935547 306.30557617 -224.83935547 305.64557617 -224.83935547 304.96557617 C-224.06970459 304.82982178 -223.30005371 304.69406738 -222.50708008 304.55419922 C-218.93002862 303.92223117 -215.35342663 303.28775662 -211.77685547 302.65307617 C-209.85450073 302.31348877 -209.85450073 302.31348877 -207.89331055 301.96704102 C-200.15900919 300.59111699 -192.47417569 299.11979766 -184.81982422 297.34838867 C-178.51783382 296.53895871 -172.75696464 298.48626551 -166.77685547 300.27807617 C-123.51987736 312.61221504 -67.92976906 315.54000258 -26.36279297 295.27026367 C-23.42661453 293.61262369 -20.6273722 291.86042587 -17.83935547 289.96557617 C-17.01951172 289.4215918 -16.19966797 288.87760742 -15.35498047 288.31713867 C-6.52034519 282.0024497 -0.30149984 273.11180912 1.62548828 262.37573242 C2.78634633 253.07582465 1.65444831 244.69008551 -3.83935547 236.96557617 C-4.20287109 236.41514648 -4.56638672 235.8647168 -4.94091797 235.29760742 C-16.42834581 219.89881611 -39.59470279 213.77651533 -56.79907227 207.71826172 C-58.83935547 206.96557617 -58.83935547 206.96557617 -60.83935547 205.96557617 C-61.16935547 206.62557617 -61.49935547 207.28557617 -61.83935547 207.96557617 C-62.82935547 207.96557617 -63.81935547 207.96557617 -64.83935547 207.96557617 C-64.83935547 206.97557617 -64.83935547 205.98557617 -64.83935547 204.96557617 C-66.73184366 204.28947194 -68.62851567 203.62507179 -70.52685547 202.96557617 C-71.58259766 202.59432617 -72.63833984 202.22307617 -73.72607422 201.84057617 C-76.62297603 201.02639047 -78.8563617 200.78847821 -81.83935547 200.96557617 C-81.83935547 199.97557617 -81.83935547 198.98557617 -81.83935547 197.96557617 C-84.00602214 198.79890951 -84.00602214 198.79890951 -84.83935547 200.96557617 C-89.71435547 198.21557617 -89.71435547 198.21557617 -90.83935547 195.96557617 C-93.15281374 195.12931709 -93.15281374 195.12931709 -95.83935547 194.46557617 C-98.58935547 193.74682617 -98.58935547 193.74682617 -100.83935547 192.96557617 C-101.16935547 192.30557617 -101.49935547 191.64557617 -101.83935547 190.96557617 C-103.49744024 190.59188675 -105.16664955 190.26714505 -106.83935547 189.96557617 C-111.34525388 188.47333812 -115.77697933 186.77446911 -120.21435547 185.09057617 C-120.85541229 184.84769867 -121.49646912 184.60482117 -122.1569519 184.35458374 C-139.07613672 177.91189743 -156.3599291 171.03547401 -170.83935547 159.96557617 C-171.76490234 159.25916992 -172.69044922 158.55276367 -173.64404297 157.82495117 C-192.10414931 143.20004698 -206.43062842 124.76417221 -209.83935547 100.96557617 C-212.04406828 79.05884247 -203.33880487 60.64885797 -189.83935547 43.96557617 C-162.07370601 11.89820637 -114.80051673 -0.76020943 -74.06982422 -3.72192383 C-49.28186448 -5.16151496 -24.47408072 -4.28334725 0 0 Z " fill="#FBFBFB" transform="translate(673.83935546875,335.034423828125)"/>
<path d="M0 0 C6.53425141 0.00010204 13.0683952 -0.01363267 19.60262108 -0.03077221 C24.7283271 -0.04200627 29.85400783 -0.04391587 34.97972488 -0.04339027 C37.38648479 -0.04455011 39.79324581 -0.04885548 42.19999313 -0.05672264 C63.21953554 -0.11910744 84.30358146 0.62341112 105.07861328 4.06030273 C106.67479492 4.3174707 106.67479492 4.3174707 108.30322266 4.57983398 C132.28613313 8.5648658 132.28613313 8.5648658 134.88330078 12.16967773 C135.55775782 14.55337521 135.27794314 15.87717913 134.45361328 18.18530273 C133.79361328 17.85530273 133.13361328 17.52530273 132.45361328 17.18530273 C132.45361328 16.19530273 132.45361328 15.20530273 132.45361328 14.18530273 C122.06182832 17.17954586 111.76639223 22.19501135 103.45361328 29.18530273 C102.75307419 31.26068389 102.75307419 31.26068389 102.45361328 33.18530273 C101.46361328 32.85530273 100.47361328 32.52530273 99.45361328 32.18530273 C99.45361328 31.19530273 99.45361328 30.20530273 99.45361328 29.18530273 C98.58349609 28.91202148 97.71337891 28.63874023 96.81689453 28.35717773 C93.6171455 27.2422826 90.69601173 25.89412459 87.64111328 24.43530273 C59.65309105 11.88153547 27.49204355 12.14652999 -2.54638672 11.62280273 C-4.88233016 11.57950248 -7.21826775 11.53588501 -9.55419922 11.49194336 C-15.21819947 11.38607683 -20.88225916 11.28411025 -26.54638672 11.18530273 C-26.54546493 12.39161158 -26.54454313 13.59792042 -26.54359341 14.84078407 C-26.52186905 43.56760259 -26.50541309 72.29442097 -26.49532139 101.02124581 C-26.49407089 104.56795621 -26.49277655 108.11466659 -26.49145508 111.66137695 C-26.49119277 112.36737244 -26.49093046 113.07336793 -26.4906602 113.80075721 C-26.48632568 125.18638363 -26.4784505 136.57200493 -26.46923392 147.95762832 C-26.45983539 159.66692274 -26.45431807 171.37621449 -26.45229822 183.08551252 C-26.45100134 189.65121739 -26.4479808 196.2169107 -26.44065666 202.78261185 C-26.43380079 208.97954221 -26.43178895 215.1764564 -26.43327904 221.3733902 C-26.43300696 223.63140578 -26.43105919 225.88942197 -26.42718124 228.14743423 C-26.4091654 239.19194018 -26.48527893 250.23061927 -26.86598206 261.26937866 C-26.88801978 262.1665094 -26.91005751 263.06364013 -26.93276304 263.98795664 C-27.21238772 270.74022996 -28.40194458 275.63515533 -32.85888672 280.93530273 C-46.68380601 292.50965377 -70.1376784 294.88586282 -87.54638672 295.74780273 C-88.38782227 295.79026123 -89.22925781 295.83271973 -90.09619141 295.87646484 C-100.90773743 296.36512785 -111.72678531 296.27635324 -122.54638672 296.18530273 C-122.54638672 295.19530273 -122.54638672 294.20530273 -122.54638672 293.18530273 C-121.78455078 292.96616211 -121.02271484 292.74702148 -120.23779297 292.52124023 C-110.4579191 289.51768347 -102.13831095 285.90473039 -96.69873047 276.83374023 C-92.37356702 266.8931951 -91.37120497 249.68409758 -94.08813477 239.06860352 C-94.64056876 236.79823812 -94.15859137 235.4045446 -93.54638672 233.18530273 C-93.87638672 232.85530273 -94.20638672 232.52530273 -94.54638672 232.18530273 C-94.23726972 230.51397525 -93.89951398 228.84788808 -93.54638672 227.18530273 C-93.40811709 225.56667674 -93.30327123 223.94488841 -93.22998047 222.32202148 C-93.18808594 221.43579102 -93.14619141 220.54956055 -93.10302734 219.63647461 C-93.06371094 218.72446289 -93.02439453 217.81245117 -92.98388672 216.87280273 C-92.94070313 215.94145508 -92.89751953 215.01010742 -92.85302734 214.05053711 C-92.74741447 211.76225819 -92.6453092 209.47387901 -92.54638672 207.18530273 C-93.20638672 207.18530273 -93.86638672 207.18530273 -94.54638672 207.18530273 C-94.36076172 206.60780273 -94.17513672 206.03030273 -93.98388672 205.43530273 C-93.50615125 202.97837749 -93.78909308 201.54132739 -94.54638672 199.18530273 C-93.88638672 199.18530273 -93.22638672 199.18530273 -92.54638672 199.18530273 C-92.80744114 191.74694987 -93.07459002 184.30883369 -93.34594727 176.87084961 C-93.43751622 174.34127749 -93.52769751 171.81165474 -93.61645508 169.28198242 C-93.74438243 165.64284239 -93.87732305 162.00391452 -94.01123047 158.36499023 C-94.06910988 156.67247635 -94.06910988 156.67247635 -94.12815857 154.94577026 C-94.16812454 153.8851236 -94.20809052 152.82447693 -94.24926758 151.73168945 C-94.28257675 150.80347382 -94.31588593 149.87525818 -94.35020447 148.91891479 C-94.56240383 145.96211967 -95.01741165 143.10069289 -95.54638672 140.18530273 C-94.88638672 140.18530273 -94.22638672 140.18530273 -93.54638672 140.18530273 C-94.06907138 137.42254096 -94.65508258 134.85921514 -95.54638672 132.18530273 C-94.55638672 131.19530273 -94.55638672 131.19530273 -93.54638672 130.18530273 C-93.87638672 129.19530273 -94.20638672 128.20530273 -94.54638672 127.18530273 C-94.68768248 123.79420449 -94.62536765 121.42224554 -93.54638672 118.18530273 C-93.47609551 115.61264455 -93.4526784 113.06888842 -93.48388672 110.49780273 C-93.48839844 109.7959082 -93.49291016 109.09401367 -93.49755859 108.37084961 C-93.50931745 106.64229735 -93.52725218 104.91378908 -93.54638672 103.18530273 C-94.20638672 102.85530273 -94.86638672 102.52530273 -95.54638672 102.18530273 C-94.88638672 102.18530273 -94.22638672 102.18530273 -93.54638672 102.18530273 C-93.44332505 97.03221933 -93.65523169 92.2776172 -94.54638672 87.18530273 C-94.21638672 86.85530273 -93.88638672 86.52530273 -93.54638672 86.18530273 C-93.45953069 84.62357529 -93.43936452 83.05800929 -93.44873047 81.49389648 C-93.45356445 80.07753906 -93.45356445 80.07753906 -93.45849609 78.63256836 C-93.466875 77.6393457 -93.47525391 76.64612305 -93.48388672 75.62280273 C-93.48839844 74.62571289 -93.49291016 73.62862305 -93.49755859 72.60131836 C-93.50938665 70.12925425 -93.52586823 67.65730756 -93.54638672 65.18530273 C-93.87638672 65.18530273 -94.20638672 65.18530273 -94.54638672 65.18530273 C-94.61300079 62.78719632 -94.66602778 60.6400098 -94.05297852 58.31005859 C-91.41304735 47.23761479 -91.92959613 29.29609058 -96.59326172 18.83764648 C-102.1021363 10.16927031 -113.17986683 6.9952587 -122.54638672 4.18530273 C-121.54638672 2.18530273 -121.54638672 2.18530273 -119.91650391 1.56420898 C-116.79002459 1.06438452 -113.79150249 1.09321237 -110.62451172 1.12280273 C-109.18831385 1.13062421 -107.75211593 1.13843633 -106.31591797 1.14624023 C-104.10870294 1.16430488 -101.90151973 1.18427705 -99.69433594 1.20581055 C-90.70236136 1.28566449 -81.73932835 1.17634596 -72.7527771 0.83686829 C-48.50855496 -0.06459588 -24.25800482 -0.00207879 0 0 Z M-93.54638672 87.18530273 C-92.54638672 89.18530273 -92.54638672 89.18530273 -92.54638672 89.18530273 Z " fill="#FDFDFD" transform="translate(383.54638671875,334.814697265625)"/>
<path d="M0 0 C6.00267557 1.18882172 11.60762061 2.80081993 17.3125 5 C23.21283649 7.22952568 29.12526049 9.41080671 35.07421875 11.5078125 C36.30164795 11.9409375 37.52907715 12.3740625 38.79370117 12.8203125 C41.20799163 13.67018854 43.62346513 14.51671366 46.0402832 15.359375 C53.21071123 17.89197651 60.13701986 20.72290964 67 24 C53.46777957 50.88431147 27.09950669 69.5744039 1 83 C-0.16015625 83.61230469 -1.3203125 84.22460938 -2.515625 84.85546875 C-26.58379625 96.86207929 -56.914394 106.47518607 -84 106 C-84.33 106.66 -84.66 107.32 -85 108 C-94.90138247 108.02322019 -104.8027584 108.04096431 -114.7041626 108.05181217 C-119.3022966 108.05701987 -123.90041191 108.06407899 -128.49853516 108.07543945 C-132.94001447 108.08634362 -137.38147586 108.09229275 -141.82296753 108.09487724 C-143.51333905 108.09671795 -145.20370965 108.10031232 -146.89407349 108.10573006 C-149.27054936 108.11304054 -151.64695211 108.11398675 -154.0234375 108.11352539 C-155.06030449 108.1189183 -155.06030449 108.1189183 -156.11811829 108.12442017 C-160.83361087 108.11458203 -165.34076383 107.65588528 -170 107 C-169.505 106.01 -169.505 106.01 -169 105 C-166.64746094 104.44628906 -166.64746094 104.44628906 -163.484375 104.015625 C-162.30166016 103.84998047 -161.11894531 103.68433594 -159.90039062 103.51367188 C-158.61326172 103.34416016 -157.32613281 103.17464844 -156 103 C-154.69740234 102.82533203 -153.39480469 102.65066406 -152.05273438 102.47070312 C-149.98109736 102.19320557 -147.90941762 101.91605172 -145.83758545 101.64001465 C-128.94967179 99.38153875 -112.44216977 96.58440333 -96 92 C-95.29649414 91.81002441 -94.59298828 91.62004883 -93.86816406 91.42431641 C-73.11647176 85.70679834 -53.40822822 74.7829117 -37 61 C-36.2884375 60.4121875 -35.576875 59.824375 -34.84375 59.21875 C-27.84181607 53.29403668 -22.3072152 46.61274453 -17.0625 39.125 C-16.4593396 38.26720947 -16.4593396 38.26720947 -15.84399414 37.39208984 C-13.67123575 34.46548782 -13.67123575 34.46548782 -13 31 C-12.55398438 30.55914063 -12.10796875 30.11828125 -11.6484375 29.6640625 C-4.5665367 22.51503468 -2.60321799 9.44912743 0 0 Z " fill="#FAFAFA" transform="translate(517,524)"/>
<path d="M0 0 C21.35145241 16.2741779 33.19225191 44.19174667 38.48046875 69.890625 C38.48046875 71.210625 38.48046875 72.530625 38.48046875 73.890625 C30.40802848 71.65161292 22.64559874 68.77238023 14.85546875 65.703125 C14.24029388 65.4610733 13.62511902 65.21902161 12.99130249 64.96963501 C0.58303647 60.07133301 -11.78076769 55.0239801 -22.625 47.1171875 C-24.55757886 45.76504712 -24.55757886 45.76504712 -27.15234375 44.9375 C-29.51953125 43.890625 -29.51953125 43.890625 -31.20703125 40.515625 C-31.64015625 39.319375 -32.07328125 38.123125 -32.51953125 36.890625 C-33.10734375 35.9315625 -33.10734375 35.9315625 -33.70703125 34.953125 C-35.41512343 30.61719869 -35.27896666 26.69574454 -33.50390625 22.4765625 C-31.51032755 18.78964285 -29.51535142 15.81987139 -26.51953125 12.890625 C-25.34378414 10.79072848 -25.34378414 10.79072848 -24.51953125 8.890625 C-23.52953125 8.890625 -22.53953125 8.890625 -21.51953125 8.890625 C-19.17507093 7.65215087 -16.91382509 6.37908845 -14.64453125 5.015625 C-3.58018934 -1.57639344 -3.58018934 -1.57639344 0 0 Z " fill="#FBFBFB" transform="translate(565.51953125,369.109375)"/>
<path d="M0 0 C3.75664605 3.75664605 3.11895962 8.80723066 3.1384055 13.83731109 C3.1368569 14.74333562 3.1353083 15.64936015 3.13371277 16.58283997 C3.13597833 17.55335303 3.13824388 18.52386608 3.14057809 19.52378863 C3.14691259 22.77864785 3.14608907 26.03346537 3.14526367 29.28833008 C3.14825551 31.62088576 3.1516581 33.95344095 3.15544128 36.28599548 C3.1642831 42.62488002 3.16661948 48.96375105 3.16725707 55.30264115 C3.16820626 60.59340326 3.17188469 65.88416222 3.17542917 71.17492312 C3.18325113 82.94428084 3.18609772 94.71363272 3.18542381 106.48299281 C3.18538386 107.18896895 3.1853439 107.89494509 3.18530273 108.62231445 C3.18526185 109.32915478 3.18522097 110.0359951 3.18517885 110.76425483 C3.18477248 122.21723145 3.19434016 133.67017517 3.2084411 145.12314228 C3.22281275 156.88903066 3.22971084 168.65490301 3.22884732 180.42080039 C3.2285923 187.02400064 3.23144622 193.62716367 3.24202538 200.23035622 C3.25170421 206.44128153 3.25178695 212.65213403 3.24450874 218.8630619 C3.24346263 221.14147549 3.24582736 223.4198936 3.2518692 225.69829941 C3.25958824 228.81102161 3.25494473 231.9234923 3.24723816 235.03620911 C3.25238172 235.93554147 3.25752529 236.83487383 3.26282471 237.76145869 C3.23328559 243.16913245 2.51492257 247.80340821 1 253 C0.67 253 0.34 253 0 253 C0.0721875 252.20980469 0.144375 251.41960937 0.21875 250.60546875 C0.81579445 243.34972028 1.10821144 236.15353819 1.125 228.875 C1.12951172 228.05797607 1.13402344 227.24095215 1.13867188 226.39916992 C1.13673828 225.62549072 1.13480469 224.85181152 1.1328125 224.0546875 C1.13168457 223.36874512 1.13055664 222.68280273 1.12939453 221.97607422 C1.05773564 219.95653834 1.05773564 219.95653834 0.46044922 217.88330078 C-0.09480766 215.61222362 0.38748151 214.22037952 1 212 C0.67 211.67 0.34 211.34 0 211 C0.309117 209.32867251 0.64687274 207.66258534 1 206 C1.13826963 204.381374 1.24311549 202.75958568 1.31640625 201.13671875 C1.35830078 200.25048828 1.40019531 199.36425781 1.44335938 198.45117188 C1.48267578 197.53916016 1.52199219 196.62714844 1.5625 195.6875 C1.60568359 194.75615234 1.64886719 193.82480469 1.69335938 192.86523438 C1.79897225 190.57695546 1.90107752 188.28857628 2 186 C1.34 186 0.68 186 0 186 C0.185625 185.4225 0.37125 184.845 0.5625 184.25 C1.04023546 181.79307475 0.75729364 180.35602466 0 178 C0.66 178 1.32 178 2 178 C1.73894558 170.56164714 1.4717967 163.12353096 1.20043945 155.68554688 C1.1088705 153.15597476 1.01868921 150.62635201 0.92993164 148.09667969 C0.80200429 144.45753966 0.66906367 140.81861179 0.53515625 137.1796875 C0.49656998 136.05134491 0.4579837 134.92300232 0.41822815 133.76046753 C0.37826218 132.69982086 0.3382962 131.63917419 0.29711914 130.54638672 C0.26380997 129.61817108 0.23050079 128.68995544 0.19618225 127.73361206 C-0.01601711 124.77681694 -0.47102493 121.91539016 -1 119 C-0.34 119 0.32 119 1 119 C0.47731534 116.23723823 -0.10869587 113.6739124 -1 111 C-0.01 110.01 -0.01 110.01 1 109 C0.67 108.01 0.34 107.02 0 106 C-0.14129576 102.60890176 -0.07898093 100.2369428 1 97 C1.07029121 94.42734182 1.09370832 91.88358569 1.0625 89.3125 C1.05798828 88.61060547 1.05347656 87.90871094 1.04882812 87.18554688 C1.03706927 85.45699462 1.01913454 83.72848635 1 82 C0.34 81.67 -0.32 81.34 -1 81 C-0.34 81 0.32 81 1 81 C1.10306167 75.8469166 0.89115503 71.09231447 0 66 C0.495 65.505 0.495 65.505 1 65 C1.08685603 63.43827255 1.10702219 61.87270656 1.09765625 60.30859375 C1.09443359 59.36435547 1.09121094 58.42011719 1.08789062 57.44726562 C1.07951172 56.45404297 1.07113281 55.46082031 1.0625 54.4375 C1.05798828 53.44041016 1.05347656 52.44332031 1.04882812 51.41601562 C1.03700007 48.94395151 1.02051849 46.47200482 1 44 C0.67 44 0.34 44 0 44 C-0.06663717 41.60106191 -0.12023242 39.45492868 0.49560547 37.12475586 C1.05527089 34.76717204 1.12947273 32.67595584 1.1328125 30.25390625 C1.13474609 29.33947754 1.13667969 28.42504883 1.13867188 27.48291016 C1.13416016 26.5191748 1.12964844 25.55543945 1.125 24.5625 C1.12306641 23.58071777 1.12113281 22.59893555 1.11914062 21.58740234 C1.07625038 14.34967414 0.76090649 7.20143638 0 0 Z M1 66 C2 68 2 68 2 68 Z " fill="#C7C8C9" transform="translate(289,356)"/>
<path d="M0 0 C6.53425141 0.00010204 13.0683952 -0.01363267 19.60262108 -0.03077221 C24.7283271 -0.04200627 29.85400783 -0.04391587 34.97972488 -0.04339027 C37.38648479 -0.04455011 39.79324581 -0.04885548 42.19999313 -0.05672264 C63.21953554 -0.11910744 84.30358146 0.62341112 105.07861328 4.06030273 C106.67479492 4.3174707 106.67479492 4.3174707 108.30322266 4.57983398 C132.28613313 8.5648658 132.28613313 8.5648658 134.88330078 12.16967773 C135.55775782 14.55337521 135.27794314 15.87717913 134.45361328 18.18530273 C133.79361328 17.85530273 133.13361328 17.52530273 132.45361328 17.18530273 C132.45361328 16.19530273 132.45361328 15.20530273 132.45361328 14.18530273 C127.775332 15.61477757 123.34988953 17.14516042 119.01611328 19.43530273 C117.84048828 20.01280273 116.66486328 20.59030273 115.45361328 21.18530273 C114.79361328 20.85530273 114.13361328 20.52530273 113.45361328 20.18530273 C118.40361328 17.54530273 123.35361328 14.90530273 128.45361328 12.18530273 C116.62083715 7.11411296 103.95132238 5.89984234 91.26611328 4.56030273 C90.11022705 4.43719727 88.95434082 4.3140918 87.76342773 4.18725586 C66.93616377 2.10754562 46.09373778 1.98529093 25.18217087 1.99662399 C22.74230564 1.99781435 20.3024447 1.99726543 17.86257935 1.99661255 C-11.5393614 1.99828418 -40.93014593 2.45151953 -70.32535172 3.05547714 C-73.61006011 3.12282679 -76.89479539 3.18873506 -80.17953491 3.25454712 C-85.36562538 3.35938147 -90.55155767 3.47010291 -95.73741531 3.58587265 C-97.65949166 3.62837524 -99.58159861 3.6695179 -101.50373459 3.70923233 C-104.13925275 3.76436748 -106.77456668 3.82539515 -109.40991211 3.88818359 C-110.18175181 3.90328885 -110.95359152 3.91839411 -111.7488203 3.9339571 C-115.13712092 4.02080334 -118.30392061 4.1386707 -121.54638672 5.18530273 C-121.54638672 4.19530273 -121.54638672 3.20530273 -121.54638672 2.18530273 C-117.87939244 1.02465906 -114.45258726 1.08703561 -110.62451172 1.12280273 C-109.18831385 1.13062421 -107.75211593 1.13843633 -106.31591797 1.14624023 C-104.10870294 1.16430488 -101.90151973 1.18427705 -99.69433594 1.20581055 C-90.70236136 1.28566449 -81.73932835 1.17634596 -72.7527771 0.83686829 C-48.50855496 -0.06459588 -24.25800482 -0.00207879 0 0 Z " fill="#BBBBBB" transform="translate(383.54638671875,334.814697265625)"/>
<path d="M0 0 C0.33 0.66 0.66 1.32 1 2 C3.02520515 2.43021613 3.02520515 2.43021613 5.375 2.5625 C8.19477465 2.78753088 10.28663703 3.09554568 13 4 C13 3.34 13 2.68 13 2 C13.99 2 14.98 2 16 2 C15 4 15 4 14 5 C15.66095703 5.15855469 15.66095703 5.15855469 17.35546875 5.3203125 C22.50612501 5.96712327 27.35404674 7.37465621 32.3125 8.875 C33.65151367 9.25978516 33.65151367 9.25978516 35.01757812 9.65234375 C36.30245117 10.03712891 36.30245117 10.03712891 37.61328125 10.4296875 C38.77017456 10.77362549 38.77017456 10.77362549 39.95043945 11.12451172 C42.38220872 12.16326391 43.41451243 12.86743032 45 15 C45.36076355 18.05619812 45.36076355 18.05619812 45.34057617 21.8581543 C45.34123329 22.89756668 45.34123329 22.89756668 45.34190369 23.95797729 C45.33981465 26.24701168 45.31647926 28.53531242 45.29296875 30.82421875 C45.28737318 32.41176452 45.2831029 33.99931548 45.28010559 35.58686829 C45.26865368 39.76435663 45.23918373 43.94153183 45.20599365 48.11889648 C45.17530011 52.38195561 45.1616018 56.64506535 45.14648438 60.90820312 C45.11431417 69.27227908 45.06311387 77.63610058 45 86 C44.01 86 43.02 86 42 86 C41.46770674 84.73392393 40.94955456 83.46189588 40.4375 82.1875 C40.14746094 81.47980469 39.85742188 80.77210938 39.55859375 80.04296875 C39 78 39 78 40 75 C40.66 76.65 41.32 78.3 42 80 C42.33 58.22 42.66 36.44 43 14 C37.72 12.68 32.44 11.36 27 10 C22.05896498 8.71477745 17.12090542 7.41999532 12.18554688 6.11328125 C6.47995017 4.61325514 0.7674119 3.24221179 -5 2 C-5 1.67 -5 1.34 -5 1 C-3.35 0.67 -1.7 0.34 0 0 Z " fill="#C3C4C5" transform="translate(685,336)"/>
<path d="M0 0 C-3.10587661 0.98177286 -5.1786716 0.96919762 -8.34375 0.2578125 C-9.17148926 0.07895508 -9.99922852 -0.09990234 -10.85205078 -0.28417969 C-11.72587402 -0.47915039 -12.59969727 -0.67412109 -13.5 -0.875 C-27.10597323 -3.73354048 -40.14382746 -4.13856173 -54 -4 C-54.33 -3.34 -54.66 -2.68 -55 -2 C-55 -2.66 -55 -3.32 -55 -4 C-72.69135454 -2.19038635 -89.75296498 1.09361083 -105.6875 9.375 C-106.780625 9.91125 -107.87375 10.4475 -109 11 C-109.66 10.67 -110.32 10.34 -111 10 C-77.44355978 -8.20086865 -36.4160106 -11.72140341 0 0 Z " fill="#CECECF" transform="translate(654,350)"/>
<path d="M0 0 C22.96053936 0.36065302 45.88036254 2.4229622 68.3125 7.5 C69.1777832 7.68916992 70.04306641 7.87833984 70.93457031 8.07324219 C76.66810964 9.48592191 76.66810964 9.48592191 78.25463867 11.94335938 C79.14230312 14.39265035 78.86294047 15.58376668 78 18 C77.34 17.67 76.68 17.34 76 17 C76 16.01 76 15.02 76 14 C71.32171871 15.42947484 66.89627625 16.95985769 62.5625 19.25 C61.386875 19.8275 60.21125 20.405 59 21 C58.34 20.67 57.68 20.34 57 20 C61.95 17.36 66.9 14.72 72 12 C50.19148166 2.65349214 23.39411977 2.78978984 0 2 C0 1.34 0 0.68 0 0 Z " fill="#C9CACA" transform="translate(440,335)"/>
<path d="M0 0 C-2.66545164 0.6512183 -5.33219056 1.29607161 -8 1.9375 C-8.74378906 2.11990234 -9.48757813 2.30230469 -10.25390625 2.49023438 C-18.13810144 4.3755854 -25.9148412 5.16218764 -34 5.5625 C-34.84143555 5.6049585 -35.68287109 5.64741699 -36.54980469 5.69116211 C-47.36135071 6.17982511 -58.1803986 6.0910505 -69 6 C-69 5.01 -69 4.02 -69 3 C-64.05 2.01 -64.05 2.01 -59 1 C-59.33 1.66 -59.66 2.32 -60 3 C-33.70252611 3.53847659 -33.70252611 3.53847659 -7.75 -0.1875 C-4.27182206 -0.94110522 -3.19223066 -0.99580647 0 0 Z " fill="#B7B8B9" transform="translate(330,625)"/>
<path d="M0 0 C3.42558291 3.12684718 4.76144797 6.80200252 6.375 11.0625 C6.67736572 11.85092285 6.97973145 12.6393457 7.29125977 13.45166016 C9.43915307 19.18732448 11.28853444 24.97743038 12.9375 30.875 C13.14874512 31.62918213 13.35999023 32.38336426 13.57763672 33.16040039 C14.49700052 36.59063498 15 39.42204482 15 43 C7.05699855 40.81932591 -0.502923 37.91893952 -8.125 34.8125 C-9.27226563 34.34908203 -10.41953125 33.88566406 -11.6015625 33.40820312 C-14.40267125 32.27608834 -17.20207482 31.13995466 -20 30 C-16.00792368 28.66930789 -14.52456564 29.71822541 -10.65234375 31.2734375 C-10.03984268 31.51663727 -9.42734161 31.75983704 -8.79627991 32.01040649 C-6.83971019 32.78982978 -4.88872597 33.58230694 -2.9375 34.375 C-1.61947757 34.90188533 -0.30112159 35.42793708 1.01757812 35.953125 C10.42554412 39.71277206 10.42554412 39.71277206 13 41 C9.55812594 28.6433344 6.12353569 16.43718253 1.06640625 4.6328125 C0 2 0 2 0 0 Z " fill="#D4D5D6" transform="translate(589,400)"/>
<path d="M0 0 C-20.7539751 5.32488951 -41.69692759 8.77299381 -63 11 C-63 11.33 -63 11.66 -63 12 C-65.64 12 -68.28 12 -71 12 C-70.67 11.34 -70.34 10.68 -70 10 C-67.6628418 9.45068359 -67.6628418 9.45068359 -64.51171875 9.0234375 C-63.33013184 8.85811523 -62.14854492 8.69279297 -60.93115234 8.52246094 C-58.98523193 8.26384277 -58.98523193 8.26384277 -57 8 C-55.64651778 7.81376321 -54.29316669 7.62657121 -52.93994141 7.43847656 C-50.06772215 7.03993066 -47.19522166 6.64351395 -44.32250977 6.24853516 C-26.52098969 3.85945349 -26.52098969 3.85945349 -8.97387695 0.08056641 C-5.5473201 -0.79424225 -3.37390947 -1.00410172 0 0 Z " fill="#C5C6C7" transform="translate(418,619)"/>
<path d="M0 0 C0.94074875 0.00007553 1.8814975 0.00015106 2.85075378 0.00022888 C3.86333755 0.00539017 4.87592133 0.01055145 5.91918945 0.01586914 C6.95815872 0.01728409 7.99712799 0.01869904 9.06758118 0.02015686 C12.38924018 0.02575884 15.71083203 0.03831167 19.0324707 0.05102539 C21.28312077 0.05604014 23.5337719 0.06060309 25.78442383 0.06469727 C31.30462907 0.0757289 36.82479509 0.09246896 42.3449707 0.11352539 C42.3449707 0.77352539 42.3449707 1.43352539 42.3449707 2.11352539 C41.77756165 2.12383286 41.21015259 2.13414032 40.62554932 2.14476013 C34.72071043 2.2529286 28.81602094 2.36751824 22.91137695 2.48583984 C20.70763271 2.52915549 18.50385563 2.57083298 16.30004883 2.61083984 C13.13263046 2.66862383 9.96537684 2.73229515 6.7980957 2.79711914 C5.812547 2.81383163 4.82699829 2.83054413 3.81158447 2.84776306 C2.89093201 2.86770828 1.97027954 2.8876535 1.02172852 2.90820312 C0.2134259 2.92374741 -0.59487671 2.93929169 -1.42767334 2.95530701 C-3.61309661 3.11054674 -5.55211511 3.51361348 -7.6550293 4.11352539 C-7.6550293 3.12352539 -7.6550293 2.13352539 -7.6550293 1.11352539 C-4.77540096 0.15364928 -2.98875489 -0.00801275 0 0 Z " fill="#C2C3C4" transform="translate(269.655029296875,335.886474609375)"/>
<path d="M0 0 C1.98 0 3.96 0 6 0 C7.42944945 2.35438733 8.08661261 3.48032433 7.625 6.25 C7.41875 6.8275 7.2125 7.405 7 8 C6.34 7.67 5.68 7.34 5 7 C5 6.01 5 5.02 5 4 C0.32171871 5.42947484 -4.10372375 6.95985769 -8.4375 9.25 C-9.613125 9.8275 -10.78875 10.405 -12 11 C-12.66 10.67 -13.32 10.34 -14 10 C-9.05 7.36 -4.1 4.72 1 2 C0.67 1.34 0.34 0.68 0 0 Z " fill="#DBDBDC" transform="translate(511,345)"/>
<path d="M0 0 C0.33 0 0.66 0 1 0 C1 10.23 1 20.46 1 31 C0.67 31 0.34 31 0 31 C-0.02505615 30.33468262 -0.0501123 29.66936523 -0.07592773 28.98388672 C-0.19251136 25.94742513 -0.31495351 22.91122654 -0.4375 19.875 C-0.47681641 18.82828125 -0.51613281 17.7815625 -0.55664062 16.703125 C-0.76131096 11.72806158 -0.99276207 6.89229851 -2 2 C-1.34 2 -0.68 2 0 2 C0 1.34 0 0.68 0 0 Z " fill="#DDDEDE" transform="translate(290,473)"/>
<path d="M0 0 C1.02802734 0.04833984 2.05605469 0.09667969 3.11523438 0.14648438 C4.72301758 0.2305957 4.72301758 0.2305957 6.36328125 0.31640625 C7.44673828 0.36861328 8.53019531 0.42082031 9.64648438 0.47460938 C12.32320716 0.60431841 14.99956013 0.73928558 17.67578125 0.87890625 C17.67578125 1.20890625 17.67578125 1.53890625 17.67578125 1.87890625 C16.70753418 1.91649048 16.70753418 1.91649048 15.71972656 1.95483398 C12.78822231 2.07105058 9.85701908 2.19366067 6.92578125 2.31640625 C5.91 2.35572266 4.89421875 2.39503906 3.84765625 2.43554688 C2.86796875 2.47744141 1.88828125 2.51933594 0.87890625 2.5625 C-0.02182617 2.59915771 -0.92255859 2.63581543 -1.85058594 2.67358398 C-4.12018214 2.86197032 -6.13984762 3.25257126 -8.32421875 3.87890625 C-8.32421875 2.88890625 -8.32421875 1.89890625 -8.32421875 0.87890625 C-5.18571945 -0.16726018 -3.27383572 -0.16278741 0 0 Z " fill="#9E9FA0" transform="translate(270.32421875,336.12109375)"/>
<path d="M0 0 C0 0.99 0 1.98 0 3 C-3.96 3 -7.92 3 -12 3 C-12.33 2.34 -12.66 1.68 -13 1 C-8.62426048 0.40667939 -4.42471556 -0.13827236 0 0 Z " fill="#F3F4F5" transform="translate(367,628)"/>
<path d="M0 0 C0.33 0 0.66 0 1 0 C1 4.29 1 8.58 1 13 C0.01 12.67 -0.98 12.34 -2 12 C-1.835 11.401875 -1.67 10.80375 -1.5 10.1875 C-0.8885876 7.88655664 -0.8885876 7.88655664 -1 5 C-1.33 4.67 -1.66 4.34 -2 4 C-1.34 2.68 -0.68 1.36 0 0 Z " fill="#D0D1D2" transform="translate(291,563)"/>
<path d="M0 0 C0.66 0.33 1.32 0.66 2 1 C1.360625 1.4125 0.72125 1.825 0.0625 2.25 C-2.20990931 4.17810487 -2.60196439 5.11424181 -3 8 C-3.99 7.67 -4.98 7.34 -6 7 C-6 6.01 -6 5.02 -6 4 C-7.32 3.34 -8.64 2.68 -10 2 C-8.3603125 2.061875 -8.3603125 2.061875 -6.6875 2.125 C-2.91107771 2.32074666 -2.91107771 2.32074666 0 0 Z " fill="#E2E2E3" transform="translate(489,360)"/>
<path d="M0 0 C1.485 0.99 1.485 0.99 3 2 C2.67 2.66 2.34 3.32 2 4 C1.34 4 0.68 4 0 4 C0 2.68 0 1.36 0 0 Z " fill="#FAFAFB" transform="translate(488,483)"/>
<path d="M0 0 C0.66 1.32 1.32 2.64 2 4 C1.34 4 0.68 4 0 4 C-0.33 3.01 -0.66 2.02 -1 1 C-0.67 0.67 -0.34 0.34 0 0 Z " fill="#F9FAFB" transform="translate(467,452)"/>
<path d="M0 0 C0.66 0 1.32 0 2 0 C2 1.65 2 3.3 2 5 C0 1.125 0 1.125 0 0 Z " fill="#EAEAEB" transform="translate(288,411)"/>
<path d="M0 0 C1.32 0 2.64 0 4 0 C4 0.66 4 1.32 4 2 C2.68 1.34 1.36 0.68 0 0 Z " fill="#F8F7F8" transform="translate(578,349)"/>
<path d="M0 0 C1.65 0 3.3 0 5 0 C5 0.33 5 0.66 5 1 C3.35 1 1.7 1 0 1 C0 0.67 0 0.34 0 0 Z " fill="#E5E6E6" transform="translate(546,660)"/>
<path d="M0 0 C0.66 0 1.32 0 2 0 C2 0.66 2 1.32 2 2 C1.01 1.67 0.02 1.34 -1 1 C-0.67 0.67 -0.34 0.34 0 0 Z " fill="#F8F8F9" transform="translate(484,621)"/>
<path d="M0 0 C0.33 0 0.66 0 1 0 C1 1.65 1 3.3 1 5 C0.67 5 0.34 5 0 5 C0 3.35 0 1.7 0 0 Z " fill="#E3E3E4" transform="translate(740,571)"/>
<path d="M0 0 C0.33 0 0.66 0 1 0 C1 1.65 1 3.3 1 5 C0.67 5 0.34 5 0 5 C0 3.35 0 1.7 0 0 Z " fill="#EAEAEB" transform="translate(289,548)"/>
<path d="M0 0 C1.98 0.99 1.98 0.99 4 2 C2.68 1.67 1.36 1.34 0 1 C0 0.67 0 0.34 0 0 Z " fill="#F9FBFB" transform="translate(546,518)"/>
<path d="M0 0 C1.32 0.33 2.64 0.66 4 1 C3.01 1.495 3.01 1.495 2 2 C1.34 1.34 0.68 0.68 0 0 Z " fill="#FAFBFB" transform="translate(480,477)"/>
<path d="M0 0 C0.99 0.495 0.99 0.495 2 1 C1.67 1.99 1.34 2.98 1 4 C0.67 2.68 0.34 1.36 0 0 Z " fill="#F9FAFA" transform="translate(465,448)"/>
<path d="M0 0 C1.65 0 3.3 0 5 0 C5 0.33 5 0.66 5 1 C3.35 1 1.7 1 0 1 C0 0.67 0 0.34 0 0 Z " fill="#E8EAEB" transform="translate(593,330)"/>
<path d="M0 0 C0.99 0.33 1.98 0.66 3 1 C2.01 1 1.02 1 0 1 C0 0.67 0 0.34 0 0 Z " fill="#E4E4E4" transform="translate(490,653)"/>
<path d="M0 0 C4 1 4 1 4 1 Z " fill="#E2E2E2" transform="translate(307,630)"/>
<path d="M0 0 C0.33 0.66 0.66 1.32 1 2 C0.01 1.67 -0.98 1.34 -2 1 C-1.34 0.67 -0.68 0.34 0 0 Z " fill="#FAFBFC" transform="translate(582,544)"/>
<path d="M0 0 C1.485 0.99 1.485 0.99 3 2 C2.01 2 1.02 2 0 2 C0 1.34 0 0.68 0 0 Z " fill="#FBFCFC" transform="translate(602,538)"/>
<path d="M0 0 C1 4 1 4 1 4 Z " fill="#FCFCFD" transform="translate(518,407)"/>
<path d="M0 0 C0.99 0.33 1.98 0.66 3 1 C2.01 1.33 1.02 1.66 0 2 C0 1.34 0 0.68 0 0 Z " fill="#FAFBFB" transform="translate(556,358)"/>
<path d="M0 0 C1.485 0.99 1.485 0.99 3 2 C2.01 2 1.02 2 0 2 C0 1.34 0 0.68 0 0 Z " fill="#F8F9F8" transform="translate(658,354)"/>
<path d="M0 0 C4 1 4 1 4 1 Z " fill="#F5F6F7" transform="translate(433,350)"/>
<path d="M0 0 C0.66 0.66 1.32 1.32 2 2 C1.01 1.67 0.02 1.34 -1 1 C-0.67 0.67 -0.34 0.34 0 0 Z " fill="#E6E7E8" transform="translate(693,336)"/>
<path d="M0 0 C4 1 4 1 4 1 Z " fill="#E8EAEA" transform="translate(370,333)"/>
<path d="M0 0 C3 1 3 1 3 1 Z " fill="#E7E7E8" transform="translate(528,659)"/>
<path d="M0 0 C3 1 3 1 3 1 Z " fill="#EBEBEA" transform="translate(525,658)"/>
<path d="M0 0 C3 1 3 1 3 1 Z " fill="#E4E3E4" transform="translate(641,653)"/>
<path d="M0 0 C0.99 0.495 0.99 0.495 2 1 C1.01 1.495 1.01 1.495 0 2 C0 1.34 0 0.68 0 0 Z " fill="#E3E2E2" transform="translate(668,645)"/>
<path d="M0 0 C3 1 3 1 3 1 Z " fill="#F3F2F3" transform="translate(450,629)"/>
<path d="M0 0 C0.33 0.66 0.66 1.32 1 2 C0.34 1.67 -0.32 1.34 -1 1 C-0.67 0.67 -0.34 0.34 0 0 Z " fill="#E4E6E7" transform="translate(359,625)"/>
<path d="M0 0 C0.33 0.66 0.66 1.32 1 2 C0.34 1.67 -0.32 1.34 -1 1 C-0.67 0.67 -0.34 0.34 0 0 Z " fill="#F7F9F8" transform="translate(436,608)"/>
<path d="M0 0 C0.33 0.66 0.66 1.32 1 2 C0.34 1.67 -0.32 1.34 -1 1 C-0.67 0.67 -0.34 0.34 0 0 Z " fill="#FCFCFD" transform="translate(549,590)"/>
<path d="" fill="#FAFAFA" transform="translate(0,0)"/>
<path d="M0 0 C0.66 0.66 1.32 1.32 2 2 C1.34 2 0.68 2 0 2 C0 1.34 0 0.68 0 0 Z " fill="#FAFAFA" transform="translate(668,571)"/>
<path d="M0 0 C3 1 3 1 3 1 Z " fill="#FBFBFB" transform="translate(523,510)"/>
<path d="M0 0 C0.66 0.66 1.32 1.32 2 2 C1.34 2 0.68 2 0 2 C0 1.34 0 0.68 0 0 Z " fill="#FCFBFC" transform="translate(506,498)"/>
<path d="M0 0 C0.66 0.66 1.32 1.32 2 2 C1.34 2 0.68 2 0 2 C0 1.34 0 0.68 0 0 Z " fill="#FAFBFC" transform="translate(497,492)"/>
<path d="M0 0 C3 1 3 1 3 1 Z " fill="#F8FAF9" transform="translate(645,474)"/>
<path d="M0 0 C3 1 3 1 3 1 Z " fill="#FAFBFC" transform="translate(474,470)"/>
<path d="M0 0 C3 1 3 1 3 1 Z " fill="#F7F8F9" transform="translate(620,465)"/>
<path d="M0 0 C0.33 0.66 0.66 1.32 1 2 C0.34 1.67 -0.32 1.34 -1 1 C-0.67 0.67 -0.34 0.34 0 0 Z " fill="#FAFAFB" transform="translate(548,421)"/>
<path d="" fill="#DEDFE0" transform="translate(0,0)"/>
<path d="M0 0 C0.66 0.66 1.32 1.32 2 2 C1.34 2 0.68 2 0 2 C0 1.34 0 0.68 0 0 Z " fill="#EFEFF0" transform="translate(712,394)"/>
<path d="M0 0 C0.33 0.66 0.66 1.32 1 2 C0.34 1.67 -0.32 1.34 -1 1 C-0.67 0.67 -0.34 0.34 0 0 Z " fill="#F4F4F5" transform="translate(706,386)"/>
<path d="M0 0 C0.66 0.66 1.32 1.32 2 2 C1.34 2 0.68 2 0 2 C0 1.34 0 0.68 0 0 Z " fill="#FAFBFB" transform="translate(523,381)"/>
<path d="M0 0 C0.66 0.66 1.32 1.32 2 2 C1.34 2 0.68 2 0 2 C0 1.34 0 0.68 0 0 Z " fill="#F8F8F9" transform="translate(688,370)"/>
<path d="M0 0 C0.33 0.66 0.66 1.32 1 2 C0.34 1.67 -0.32 1.34 -1 1 C-0.67 0.67 -0.34 0.34 0 0 Z " fill="#F9FAF9" transform="translate(539,365)"/>
<path d="M0 0 C3 1 3 1 3 1 Z " fill="#F9FAFA" transform="translate(555,356)"/>
<path d="M0 0 C0.66 0.66 1.32 1.32 2 2 C1.34 2 0.68 2 0 2 C0 1.34 0 0.68 0 0 Z " fill="#F9F8F9" transform="translate(511,354)"/>
<path d="M0 0 C3 1 3 1 3 1 Z " fill="#F6F6F6" transform="translate(643,350)"/>
<path d="M0 0 C3 1 3 1 3 1 Z " fill="#F7F7F7" transform="translate(575,350)"/>
<path d="M0 0 C3 1 3 1 3 1 Z " fill="#F7F8F7" transform="translate(632,348)"/>
<path d="M0 0 C3 1 3 1 3 1 Z " fill="#F6F6F6" transform="translate(416,348)"/>
<path d="M0 0 C3 1 3 1 3 1 Z " fill="#F7F7F7" transform="translate(594,347)"/>
<path d="M0 0 C3 1 3 1 3 1 Z " fill="#EFF0F0" transform="translate(484,337)"/>
<path d="M0 0 C3 1 3 1 3 1 Z " fill="#EFF0EF" transform="translate(559,336)"/>
<path d="M0 0 C3 1 3 1 3 1 Z " fill="#EBECED" transform="translate(427,333)"/>
<path d="M0 0 C3 1 3 1 3 1 Z " fill="#EAEAEA" transform="translate(656,331)"/>
<path d="M0 0 C3 1 3 1 3 1 Z " fill="#ECEDEE" transform="translate(645,330)"/>
<path d="M0 0 C0.66 0.66 1.32 1.32 2 2 C1.34 2 0.68 2 0 2 C0 1.34 0 0.68 0 0 Z " fill="#ECEDEE" transform="translate(642,329)"/>
<path d="M0 0 C3 1 3 1 3 1 Z " fill="#EBEDEC" transform="translate(626,329)"/>
<path d="M0 0 C3 1 3 1 3 1 Z " fill="#EBEDEE" transform="translate(622,329)"/>
<path d="M0 0 C3 1 3 1 3 1 Z " fill="#EAECEC" transform="translate(618,329)"/>
<path d="M0 0 C2 1 2 1 2 1 Z " fill="#EAEBEA" transform="translate(629,655)"/>
<path d="M0 0 C2 1 2 1 2 1 Z " fill="#E0E0E0" transform="translate(460,646)"/>
<path d="M0 0 C2 1 2 1 2 1 Z " fill="#DCDEDE" transform="translate(456,645)"/>
<path d="M0 0 C2 1 2 1 2 1 Z " fill="#F6F7F8" transform="translate(593,642)"/>
<path d="M0 0 C2 1 2 1 2 1 Z " fill="#F9F8FB" transform="translate(553,642)"/>
<path d="M0 0 C2 1 2 1 2 1 Z " fill="#F8F9FA" transform="translate(542,641)"/>
<path d="M0 0 C2 1 2 1 2 1 Z " fill="#E4E5E5" transform="translate(684,638)"/>
<path d="M0 0 C2 1 2 1 2 1 Z " fill="#FAFAFB" transform="translate(634,634)"/>
<path d="M0 0 C2 1 2 1 2 1 Z " fill="#F8F9F8" transform="translate(474,634)"/>
<path d="M0 0 C2 1 2 1 2 1 Z " fill="#EEEDED" transform="translate(436,631)"/>
<path d="M0 0 C2 1 2 1 2 1 Z " fill="#F0EFF0" transform="translate(446,630)"/>
<path d="M0 0 C2 1 2 1 2 1 Z " fill="#F2F1F2" transform="translate(443,630)"/>
<path d="M0 0 C2 1 2 1 2 1 Z " fill="#F6F6F6" transform="translate(462,627)"/>
<path d="M0 0 C2 1 2 1 2 1 Z " fill="#DFE3E2" transform="translate(362,625)"/>
<path d="M0 0 C2 1 2 1 2 1 Z " fill="#F5F6F5" transform="translate(477,623)"/>
<path d="M0 0 C2 1 2 1 2 1 Z " fill="#E6E9EA" transform="translate(340,622)"/>
<path d="M0 0 C2 1 2 1 2 1 Z " fill="#EEEFF2" transform="translate(392,621)"/>
<path d="M0 0 C2 1 2 1 2 1 Z " fill="#FBFBFB" transform="translate(665,614)"/>
<path d="M0 0 C2 1 2 1 2 1 Z " fill="#F6F7F7" transform="translate(433,610)"/>
<path d="M0 0 C2 1 2 1 2 1 Z " fill="#FAFCFC" transform="translate(525,606)"/>
<path d="M0 0 C2 1 2 1 2 1 Z " fill="#F8F9FA" transform="translate(520,606)"/>
<path d="M0 0 C2 1 2 1 2 1 Z " fill="#FAFBFC" transform="translate(524,604)"/>
<path d="" fill="#F3F5F6" transform="translate(0,0)"/>
<path d="" fill="#E3E3E4" transform="translate(0,0)"/>
<path d="" fill="#FAFCFB" transform="translate(0,0)"/>
<path d="M0 0 C2 1 2 1 2 1 Z " fill="#FAFCFC" transform="translate(572,566)"/>
<path d="M0 0 C2 1 2 1 2 1 Z " fill="#FBFBFD" transform="translate(656,561)"/>
<path d="" fill="#FAF9F9" transform="translate(0,0)"/>
<path d="" fill="#E7E7E8" transform="translate(0,0)"/>
<path d="" fill="#EBEAEC" transform="translate(0,0)"/>
<path d="" fill="#E3E4E3" transform="translate(0,0)"/>
<path d="" fill="#FCFBFA" transform="translate(0,0)"/>
<path d="" fill="#FBFCFD" transform="translate(0,0)"/>
<path d="M0 0 C2 1 2 1 2 1 Z " fill="#FAFCFC" transform="translate(565,539)"/>
<path d="M0 0 C2 1 2 1 2 1 Z " fill="#F8FAFA" transform="translate(556,536)"/>
<path d="M0 0 C2 1 2 1 2 1 Z " fill="#FAFBFB" transform="translate(538,529)"/>
<path d="M0 0 C2 1 2 1 2 1 Z " fill="#F7FAF8" transform="translate(534,528)"/>
<path d="M0 0 C2 1 2 1 2 1 Z " fill="#F7FAFA" transform="translate(568,527)"/>
<path d="" fill="#FAFCFB" transform="translate(0,0)"/>
<path d="M0 0 C2 1 2 1 2 1 Z " fill="#FBFCFD" transform="translate(540,516)"/>
<path d="M0 0 C2 1 2 1 2 1 Z " fill="#FAFBFB" transform="translate(537,515)"/>
<path d="M0 0 C2 1 2 1 2 1 Z " fill="#FCFBFD" transform="translate(521,507)"/>
<path d="M0 0 C2 1 2 1 2 1 Z " fill="#F2F5F5" transform="translate(700,500)"/>
<path d="" fill="#FAFAFB" transform="translate(0,0)"/>
<path d="" fill="#FBFBFC" transform="translate(0,0)"/>
<path d="M0 0 C2 1 2 1 2 1 Z " fill="#F7F7F7" transform="translate(654,474)"/>
<path d="M0 0 C2 1 2 1 2 1 Z " fill="#F9F8FA" transform="translate(643,473)"/>
<path d="" fill="#FAFBFA" transform="translate(0,0)"/>
<path d="" fill="#FAFDFE" transform="translate(0,0)"/>
<path d="M0 0 C2 1 2 1 2 1 Z " fill="#FBFDFC" transform="translate(590,450)"/>
<path d="M0 0 C2 1 2 1 2 1 Z " fill="#FBFCFC" transform="translate(588,448)"/>
<path d="M0 0 C2 1 2 1 2 1 Z " fill="#F7F9F8" transform="translate(602,444)"/>
<path d="" fill="#FDFDFD" transform="translate(0,0)"/>
<path d="M0 0 C2 1 2 1 2 1 Z " fill="#F6F7F8" transform="translate(605,442)"/>
<path d="M0 0 C2 1 2 1 2 1 Z " fill="#FAFBFC" transform="translate(578,435)"/>
<path d="" fill="#FBFCFD" transform="translate(0,0)"/>
<path d="M0 0 C2 1 2 1 2 1 Z " fill="#F6F7F8" transform="translate(568,431)"/>
<path d="" fill="#F9FAFA" transform="translate(0,0)"/>
<path d="" fill="#FBFCFD" transform="translate(0,0)"/>
<path d="M0 0 C2 1 2 1 2 1 Z " fill="#F9FAF9" transform="translate(539,415)"/>
<path d="" fill="#E9EBEB" transform="translate(0,0)"/>
<path d="" fill="#E9EAEB" transform="translate(0,0)"/>
<path d="" fill="#FDFEFB" transform="translate(0,0)"/>
<path d="" fill="#FBFCFD" transform="translate(0,0)"/>
<path d="" fill="#E9EAEB" transform="translate(0,0)"/>
<path d="" fill="#FDFBFD" transform="translate(0,0)"/>
<path d="" fill="#FBFCFB" transform="translate(0,0)"/>
<path d="M0 0 C2 1 2 1 2 1 Z " fill="#F5F7F7" transform="translate(704,385)"/>
<path d="" fill="#FCFDFD" transform="translate(0,0)"/>
<path d="M0 0 C2 1 2 1 2 1 Z " fill="#FBFBFA" transform="translate(544,376)"/>
<path d="" fill="#F6F7F7" transform="translate(0,0)"/>
<path d="" fill="#FBFCFC" transform="translate(0,0)"/>
<path d="M0 0 C2 1 2 1 2 1 Z " fill="#F5F6F6" transform="translate(454,354)"/>
<path d="M0 0 C2 1 2 1 2 1 Z " fill="#F5F4F6" transform="translate(426,349)"/>
<path d="M0 0 C2 1 2 1 2 1 Z " fill="#E0E1E0" transform="translate(718,344)"/>
<path d="M0 0 C2 1 2 1 2 1 Z " fill="#F3F4F3" transform="translate(534,344)"/>
<path d="" fill="#E6E5E6" transform="translate(0,0)"/>
<path d="M0 0 C2 1 2 1 2 1 Z " fill="#EFEEEF" transform="translate(555,337)"/>
<path d="M0 0 C2 1 2 1 2 1 Z " fill="#EBEBEC" transform="translate(423,333)"/>
<path d="M0 0 C2 1 2 1 2 1 Z " fill="#EAEBEC" transform="translate(420,333)"/>
<path d="M0 0 C2 1 2 1 2 1 Z " fill="#ECEDED" transform="translate(402,333)"/>
<path d="M0 0 C2 1 2 1 2 1 Z " fill="#ECEDEC" transform="translate(395,333)"/>
<path d="M0 0 C2 1 2 1 2 1 Z " fill="#E8EAE8" transform="translate(359,333)"/>
<path d="" fill="#EDEFEE" transform="translate(0,0)"/>
<path d="M0 0 C2 1 2 1 2 1 Z " fill="#ECEDED" transform="translate(630,329)"/>
<path d="" fill="#000000" transform="translate(0,0)"/>
<path d="" fill="#000000" transform="translate(0,0)"/>
<path d="" fill="#000000" transform="translate(0,0)"/>
<path d="" fill="#000000" transform="translate(0,0)"/>
<path d="" fill="#E2E3E3" transform="translate(0,0)"/>
<path d="" fill="#E5E6E8" transform="translate(0,0)"/>
<path d="" fill="#EBE9E8" transform="translate(0,0)"/>
<path d="" fill="#E5E6E6" transform="translate(0,0)"/>
<path d="" fill="#E4E5E6" transform="translate(0,0)"/>
<path d="" fill="#E6E8E9" transform="translate(0,0)"/>
<path d="" fill="#E7E8E8" transform="translate(0,0)"/>
<path d="" fill="#E7E7E6" transform="translate(0,0)"/>
<path d="" fill="#E6E6E8" transform="translate(0,0)"/>
<path d="" fill="#DFE1E1" transform="translate(0,0)"/>
<path d="" fill="#E6E3E4" transform="translate(0,0)"/>
<path d="" fill="#E6E5E4" transform="translate(0,0)"/>
<path d="" fill="#E5E6E7" transform="translate(0,0)"/>
<path d="" fill="#E4E6E5" transform="translate(0,0)"/>
<path d="" fill="#DBDBDD" transform="translate(0,0)"/>
<path d="" fill="#F6F8F8" transform="translate(0,0)"/>
<path d="" fill="#F9F9FB" transform="translate(0,0)"/>
<path d="" fill="#FAFAF8" transform="translate(0,0)"/>
<path d="" fill="#F8F9FA" transform="translate(0,0)"/>
<path d="" fill="#F9FAFB" transform="translate(0,0)"/>
<path d="" fill="#FAFBFB" transform="translate(0,0)"/>
<path d="" fill="#FCF9FA" transform="translate(0,0)"/>
<path d="" fill="#F8F8F6" transform="translate(0,0)"/>
<path d="" fill="#F5F5F5" transform="translate(0,0)"/>
<path d="" fill="#F9F9FA" transform="translate(0,0)"/>
<path d="" fill="#FBFAFA" transform="translate(0,0)"/>
<path d="" fill="#F9F9F9" transform="translate(0,0)"/>
<path d="" fill="#FAF9F9" transform="translate(0,0)"/>
<path d="" fill="#F9FAFB" transform="translate(0,0)"/>
<path d="" fill="#F0F2F2" transform="translate(0,0)"/>
<path d="" fill="#EBECEC" transform="translate(0,0)"/>
<path d="" fill="#EAEBEB" transform="translate(0,0)"/>
<path d="" fill="#E9EAEC" transform="translate(0,0)"/>
<path d="" fill="#F8F5F4" transform="translate(0,0)"/>
<path d="" fill="#DFDEE0" transform="translate(0,0)"/>
<path d="" fill="#E2E0E3" transform="translate(0,0)"/>
<path d="" fill="#E1E1E1" transform="translate(0,0)"/>
<path d="" fill="#DBDBDA" transform="translate(0,0)"/>
<path d="" fill="#E5E4E4" transform="translate(0,0)"/>
<path d="" fill="#FBFDFB" transform="translate(0,0)"/>
<path d="" fill="#FEFEFD" transform="translate(0,0)"/>
<path d="" fill="#FCFBFC" transform="translate(0,0)"/>
<path d="" fill="#E9EBEA" transform="translate(0,0)"/>
<path d="" fill="#000000" transform="translate(0,0)"/>
<path d="" fill="#E6E8E8" transform="translate(0,0)"/>
<path d="" fill="#F8F9FA" transform="translate(0,0)"/>
<path d="" fill="#F1F0F2" transform="translate(0,0)"/>
<path d="" fill="#D5D5D4" transform="translate(0,0)"/>
<path d="" fill="#FCFCFC" transform="translate(0,0)"/>
<path d="" fill="#F1F3F1" transform="translate(0,0)"/>
<path d="" fill="#F3F2F4" transform="translate(0,0)"/>
<path d="" fill="#F7F9F9" transform="translate(0,0)"/>
<path d="" fill="#F8F8F5" transform="translate(0,0)"/>
<path d="" fill="#F7F9FA" transform="translate(0,0)"/>
<path d="" fill="#FAF9FA" transform="translate(0,0)"/>
<path d="" fill="#E2E4E5" transform="translate(0,0)"/>
<path d="" fill="#FAFAFA" transform="translate(0,0)"/>
<path d="" fill="#F9FAF9" transform="translate(0,0)"/>
<path d="" fill="#EDECED" transform="translate(0,0)"/>
<path d="" fill="#FEFDFC" transform="translate(0,0)"/>
<path d="" fill="#E6E6E7" transform="translate(0,0)"/>
<path d="" fill="#F8F8F9" transform="translate(0,0)"/>
<path d="" fill="#FCFCFB" transform="translate(0,0)"/>
<path d="" fill="#FCFDFD" transform="translate(0,0)"/>
<path d="" fill="#FBFCFA" transform="translate(0,0)"/>
<path d="" fill="#FAFBFD" transform="translate(0,0)"/>
<path d="" fill="#FBFBFB" transform="translate(0,0)"/>
<path d="" fill="#F6F5F8" transform="translate(0,0)"/>
<path d="" fill="#FEFDFC" transform="translate(0,0)"/>
<path d="" fill="#F6F8F6" transform="translate(0,0)"/>
<path d="" fill="#F7F8F8" transform="translate(0,0)"/>
<path d="" fill="#E7E8E9" transform="translate(0,0)"/>
<path d="" fill="#E8E9EA" transform="translate(0,0)"/>
<path d="" fill="#FEFEFF" transform="translate(0,0)"/>
<path d="" fill="#FCFBFB" transform="translate(0,0)"/>
<path d="" fill="#FAFBF9" transform="translate(0,0)"/>
<path d="" fill="#FCFDFA" transform="translate(0,0)"/>
<path d="" fill="#EBE8EA" transform="translate(0,0)"/>
<path d="" fill="#E4E3E4" transform="translate(0,0)"/>
<path d="" fill="#F9FAFA" transform="translate(0,0)"/>
<path d="" fill="#FBFAFC" transform="translate(0,0)"/>
<path d="" fill="#FBFCFB" transform="translate(0,0)"/>
<path d="" fill="#E0E1E0" transform="translate(0,0)"/>
<path d="" fill="#F8FBF8" transform="translate(0,0)"/>
<path d="" fill="#FBFCFC" transform="translate(0,0)"/>
<path d="" fill="#ECEEED" transform="translate(0,0)"/>
<path d="" fill="#F8F9FB" transform="translate(0,0)"/>
<path d="" fill="#E6E5E6" transform="translate(0,0)"/>
<path d="" fill="#FBFEFD" transform="translate(0,0)"/>
<path d="" fill="#F9F9F9" transform="translate(0,0)"/>
<path d="" fill="#FBFDFB" transform="translate(0,0)"/>
<path d="" fill="#EBEDED" transform="translate(0,0)"/>
<path d="" fill="#FDFCFD" transform="translate(0,0)"/>
<path d="" fill="#FBFEFD" transform="translate(0,0)"/>
<path d="" fill="#E4E3E4" transform="translate(0,0)"/>
<path d="" fill="#FBFDFC" transform="translate(0,0)"/>
<path d="" fill="#EBEBEA" transform="translate(0,0)"/>
<path d="" fill="#FBFCFC" transform="translate(0,0)"/>
<path d="" fill="#FDFBFA" transform="translate(0,0)"/>
<path d="" fill="#F9F8FA" transform="translate(0,0)"/>
<path d="" fill="#FCFCFA" transform="translate(0,0)"/>
<path d="" fill="#FAFAFB" transform="translate(0,0)"/>
<path d="" fill="#FBFAFA" transform="translate(0,0)"/>
<path d="" fill="#FAFBFC" transform="translate(0,0)"/>
<path d="" fill="#FDFDFD" transform="translate(0,0)"/>
<path d="" fill="#FEFDFC" transform="translate(0,0)"/>
<path d="" fill="#E8E5E7" transform="translate(0,0)"/>
<path d="" fill="#FDFCFE" transform="translate(0,0)"/>
<path d="" fill="#E3E4E7" transform="translate(0,0)"/>
<path d="" fill="#F2F6F6" transform="translate(0,0)"/>
<path d="" fill="#E0E4E2" transform="translate(0,0)"/>
<path d="" fill="#F9FCFB" transform="translate(0,0)"/>
<path d="" fill="#F9FBFB" transform="translate(0,0)"/>
<path d="" fill="#F8FAFA" transform="translate(0,0)"/>
<path d="" fill="#EBECEB" transform="translate(0,0)"/>
<path d="" fill="#FBFBFC" transform="translate(0,0)"/>
<path d="" fill="#FBFCFB" transform="translate(0,0)"/>
<path d="" fill="#FCFDFC" transform="translate(0,0)"/>
<path d="" fill="#E1E1E2" transform="translate(0,0)"/>
<path d="" fill="#F9FAFB" transform="translate(0,0)"/>
<path d="" fill="#FAF9FB" transform="translate(0,0)"/>
<path d="" fill="#E0E1E3" transform="translate(0,0)"/>
<path d="" fill="#F7F9F9" transform="translate(0,0)"/>
<path d="" fill="#F8FBFA" transform="translate(0,0)"/>
<path d="" fill="#000000" transform="translate(0,0)"/>
<path d="" fill="#FBFBFD" transform="translate(0,0)"/>
<path d="" fill="#FCFDFD" transform="translate(0,0)"/>
<path d="" fill="#F9FAFA" transform="translate(0,0)"/>
<path d="" fill="#FAFAFB" transform="translate(0,0)"/>
<path d="" fill="#E3E5E8" transform="translate(0,0)"/>
<path d="" fill="#F8F9FB" transform="translate(0,0)"/>
<path d="" fill="#F9FAFA" transform="translate(0,0)"/>
<path d="" fill="#FAFEFC" transform="translate(0,0)"/>
<path d="" fill="#F9F9F9" transform="translate(0,0)"/>
<path d="" fill="#F7F8F9" transform="translate(0,0)"/>
<path d="" fill="#FCFBFD" transform="translate(0,0)"/>
<path d="" fill="#FBFAFC" transform="translate(0,0)"/>
<path d="" fill="#FAFBFD" transform="translate(0,0)"/>
<path d="" fill="#E9E9EB" transform="translate(0,0)"/>
<path d="" fill="#FAFAFB" transform="translate(0,0)"/>
<path d="" fill="#FBFBFD" transform="translate(0,0)"/>
<path d="" fill="#FBFCFE" transform="translate(0,0)"/>
<path d="" fill="#FCFCFD" transform="translate(0,0)"/>
<path d="" fill="#FAFCFE" transform="translate(0,0)"/>
<path d="" fill="#FDFDFE" transform="translate(0,0)"/>
<path d="" fill="#FCFCFC" transform="translate(0,0)"/>
<path d="" fill="#FCFEFC" transform="translate(0,0)"/>
<path d="" fill="#FDFFFD" transform="translate(0,0)"/>
<path d="" fill="#FBFAFB" transform="translate(0,0)"/>
<path d="" fill="#FBFCFE" transform="translate(0,0)"/>
<path d="" fill="#FBFCFD" transform="translate(0,0)"/>
<path d="" fill="#E9EAEB" transform="translate(0,0)"/>
<path d="" fill="#FDFEFF" transform="translate(0,0)"/>
<path d="" fill="#FAFAFB" transform="translate(0,0)"/>
<path d="" fill="#EEEEEE" transform="translate(0,0)"/>
<path d="" fill="#FCFCFE" transform="translate(0,0)"/>
<path d="" fill="#FBFCFD" transform="translate(0,0)"/>
<path d="" fill="#FAFAFC" transform="translate(0,0)"/>
<path d="" fill="#FAFCFC" transform="translate(0,0)"/>
<path d="" fill="#FBFCFC" transform="translate(0,0)"/>
<path d="" fill="#FFFDFD" transform="translate(0,0)"/>
<path d="" fill="#EAEDEE" transform="translate(0,0)"/>
<path d="" fill="#FCFDFA" transform="translate(0,0)"/>
<path d="" fill="#FBFCFB" transform="translate(0,0)"/>
<path d="" fill="#FCFCFD" transform="translate(0,0)"/>
<path d="" fill="#FAF9F9" transform="translate(0,0)"/>
<path d="" fill="#E2E3E3" transform="translate(0,0)"/>
<path d="" fill="#EEEFF0" transform="translate(0,0)"/>
<path d="" fill="#FCFAFD" transform="translate(0,0)"/>
<path d="" fill="#F6FBFB" transform="translate(0,0)"/>
<path d="" fill="#FBFAFB" transform="translate(0,0)"/>
<path d="" fill="#FCFCFD" transform="translate(0,0)"/>
<path d="" fill="#F1F2F3" transform="translate(0,0)"/>
<path d="" fill="#F9F8FD" transform="translate(0,0)"/>
<path d="" fill="#FAFBFB" transform="translate(0,0)"/>
<path d="" fill="#FCFBFB" transform="translate(0,0)"/>
<path d="" fill="#F4F3F5" transform="translate(0,0)"/>
<path d="" fill="#FBFBFB" transform="translate(0,0)"/>
<path d="" fill="#F6F8F8" transform="translate(0,0)"/>
<path d="" fill="#F9FAFC" transform="translate(0,0)"/>
<path d="" fill="#F8F8F8" transform="translate(0,0)"/>
<path d="" fill="#F5F6F7" transform="translate(0,0)"/>
<path d="" fill="#F7F8F8" transform="translate(0,0)"/>
<path d="" fill="#F3F6F7" transform="translate(0,0)"/>
<path d="" fill="#FAFAF9" transform="translate(0,0)"/>
<path d="" fill="#FCFBFC" transform="translate(0,0)"/>
<path d="" fill="#E4E4E4" transform="translate(0,0)"/>
<path d="" fill="#F9F9FA" transform="translate(0,0)"/>
<path d="" fill="#F6F8F7" transform="translate(0,0)"/>
<path d="" fill="#FBFAFE" transform="translate(0,0)"/>
<path d="" fill="#E7EAE9" transform="translate(0,0)"/>
<path d="" fill="#F9FAFB" transform="translate(0,0)"/>
<path d="" fill="#FBFCFB" transform="translate(0,0)"/>
<path d="" fill="#E9EBEB" transform="translate(0,0)"/>
<path d="" fill="#E5E3E6" transform="translate(0,0)"/>
<path d="" fill="#FBFDFB" transform="translate(0,0)"/>
<path d="" fill="#F9FAFA" transform="translate(0,0)"/>
<path d="" fill="#E6E5E5" transform="translate(0,0)"/>
<path d="" fill="#FCFAFC" transform="translate(0,0)"/>
<path d="" fill="#FAFCFC" transform="translate(0,0)"/>
<path d="" fill="#F9F8FB" transform="translate(0,0)"/>
<path d="" fill="#FCFCFD" transform="translate(0,0)"/>
<path d="" fill="#FCFDFC" transform="translate(0,0)"/>
<path d="" fill="#FCFEFF" transform="translate(0,0)"/>
<path d="" fill="#FBFDFC" transform="translate(0,0)"/>
<path d="" fill="#E9EAEA" transform="translate(0,0)"/>
<path d="" fill="#F6F8F8" transform="translate(0,0)"/>
<path d="" fill="#FAFAFB" transform="translate(0,0)"/>
<path d="" fill="#FAFAFC" transform="translate(0,0)"/>
<path d="" fill="#F5F7F6" transform="translate(0,0)"/>
<path d="" fill="#EAE8E9" transform="translate(0,0)"/>
<path d="" fill="#F8F9FC" transform="translate(0,0)"/>
<path d="" fill="#F8FBFA" transform="translate(0,0)"/>
<path d="" fill="#FAFCFE" transform="translate(0,0)"/>
<path d="" fill="#F8F9FA" transform="translate(0,0)"/>
<path d="" fill="#FAFCFB" transform="translate(0,0)"/>
<path d="" fill="#FCFCFB" transform="translate(0,0)"/>
<path d="" fill="#FCFCFD" transform="translate(0,0)"/>
<path d="" fill="#FCFBFC" transform="translate(0,0)"/>
<path d="" fill="#FAFBF9" transform="translate(0,0)"/>
<path d="" fill="#F7F8F8" transform="translate(0,0)"/>
<path d="" fill="#FBF8FC" transform="translate(0,0)"/>
<path d="" fill="#FBFAFA" transform="translate(0,0)"/>
<path d="" fill="#FAFBFC" transform="translate(0,0)"/>
<path d="" fill="#FBFCFD" transform="translate(0,0)"/>
<path d="" fill="#FBFBFB" transform="translate(0,0)"/>
<path d="" fill="#E5E5E6" transform="translate(0,0)"/>
<path d="" fill="#F8F9F9" transform="translate(0,0)"/>
<path d="" fill="#FAF9F9" transform="translate(0,0)"/>
<path d="" fill="#FCFBFB" transform="translate(0,0)"/>
<path d="" fill="#FCFDFA" transform="translate(0,0)"/>
<path d="" fill="#EAE9EA" transform="translate(0,0)"/>
<path d="" fill="#FCFBFC" transform="translate(0,0)"/>
<path d="" fill="#D0D4D5" transform="translate(0,0)"/>
<path d="" fill="#F9FBFC" transform="translate(0,0)"/>
<path d="" fill="#FDFDFD" transform="translate(0,0)"/>
<path d="" fill="#D2D4D5" transform="translate(0,0)"/>
<path d="" fill="#FDFDFE" transform="translate(0,0)"/>
<path d="" fill="#FAF9FB" transform="translate(0,0)"/>
<path d="" fill="#FBFEFC" transform="translate(0,0)"/>
<path d="" fill="#FBFBFA" transform="translate(0,0)"/>
<path d="" fill="#FAFAF8" transform="translate(0,0)"/>
<path d="" fill="#DDDFE1" transform="translate(0,0)"/>
<path d="" fill="#FCFDFD" transform="translate(0,0)"/>
<path d="" fill="#FBFDFD" transform="translate(0,0)"/>
<path d="" fill="#FCFCFC" transform="translate(0,0)"/>
<path d="" fill="#FDFEFB" transform="translate(0,0)"/>
<path d="" fill="#FEFAFD" transform="translate(0,0)"/>
<path d="" fill="#DDDEE0" transform="translate(0,0)"/>
<path d="" fill="#FAFBFB" transform="translate(0,0)"/>
<path d="" fill="#FAF9FA" transform="translate(0,0)"/>
<path d="" fill="#F9FAFB" transform="translate(0,0)"/>
<path d="" fill="#FBFAFC" transform="translate(0,0)"/>
<path d="" fill="#FAFBFB" transform="translate(0,0)"/>
<path d="" fill="#FBFCFC" transform="translate(0,0)"/>
<path d="" fill="#FCFBFB" transform="translate(0,0)"/>
<path d="" fill="#E9EAEB" transform="translate(0,0)"/>
<path d="" fill="#FEFCFC" transform="translate(0,0)"/>
<path d="" fill="#FAFBFC" transform="translate(0,0)"/>
<path d="" fill="#FAFCFA" transform="translate(0,0)"/>
<path d="" fill="#EDF0F0" transform="translate(0,0)"/>
<path d="" fill="#FAFAFB" transform="translate(0,0)"/>
<path d="" fill="#FBFAFC" transform="translate(0,0)"/>
<path d="" fill="#ECECEF" transform="translate(0,0)"/>
<path d="" fill="#FFFCFB" transform="translate(0,0)"/>
<path d="" fill="#FEFCFC" transform="translate(0,0)"/>
<path d="" fill="#FAFBFD" transform="translate(0,0)"/>
<path d="" fill="#FAF9F9" transform="translate(0,0)"/>
<path d="" fill="#FCFBFC" transform="translate(0,0)"/>
<path d="" fill="#EFF0F0" transform="translate(0,0)"/>
<path d="" fill="#FDFDFD" transform="translate(0,0)"/>
<path d="" fill="#EFF1F0" transform="translate(0,0)"/>
<path d="" fill="#F3F3F4" transform="translate(0,0)"/>
<path d="" fill="#FBFCFB" transform="translate(0,0)"/>
<path d="" fill="#FBFCFC" transform="translate(0,0)"/>
<path d="" fill="#F3F4F4" transform="translate(0,0)"/>
<path d="" fill="#FCFDFB" transform="translate(0,0)"/>
<path d="" fill="#FEFCFE" transform="translate(0,0)"/>
<path d="" fill="#E8E7E9" transform="translate(0,0)"/>
<path d="" fill="#FCFDFB" transform="translate(0,0)"/>
<path d="" fill="#FCFAFB" transform="translate(0,0)"/>
<path d="" fill="#E9EBE9" transform="translate(0,0)"/>
<path d="" fill="#FDFCFB" transform="translate(0,0)"/>
<path d="" fill="#FDFCFD" transform="translate(0,0)"/>
<path d="" fill="#FCFCFE" transform="translate(0,0)"/>
<path d="" fill="#FCFBFC" transform="translate(0,0)"/>
<path d="" fill="#F6F5F6" transform="translate(0,0)"/>
<path d="" fill="#FBFAFC" transform="translate(0,0)"/>
<path d="" fill="#FBFDFD" transform="translate(0,0)"/>
<path d="" fill="#F7F6F6" transform="translate(0,0)"/>
<path d="" fill="#F8F8F9" transform="translate(0,0)"/>
<path d="" fill="#FBFEFC" transform="translate(0,0)"/>
<path d="" fill="#FDFEFC" transform="translate(0,0)"/>
<path d="" fill="#FDFCFD" transform="translate(0,0)"/>
<path d="" fill="#FEFDFD" transform="translate(0,0)"/>
<path d="" fill="#FAFBFA" transform="translate(0,0)"/>
<path d="" fill="#FDFEFD" transform="translate(0,0)"/>
<path d="" fill="#FEFDFD" transform="translate(0,0)"/>
<path d="" fill="#FCFDFD" transform="translate(0,0)"/>
<path d="" fill="#E9ECEA" transform="translate(0,0)"/>
<path d="" fill="#F3F6F5" transform="translate(0,0)"/>
<path d="" fill="#F7F9FB" transform="translate(0,0)"/>
<path d="" fill="#F9FAF9" transform="translate(0,0)"/>
<path d="" fill="#FAFDFE" transform="translate(0,0)"/>
<path d="" fill="#EEECEE" transform="translate(0,0)"/>
<path d="" fill="#FCFCFD" transform="translate(0,0)"/>
<path d="" fill="#FAFBFB" transform="translate(0,0)"/>
<path d="" fill="#EAE9EB" transform="translate(0,0)"/>
<path d="" fill="#FDFCFA" transform="translate(0,0)"/>
<path d="" fill="#FDFEFC" transform="translate(0,0)"/>
<path d="" fill="#F7F6F8" transform="translate(0,0)"/>
<path d="" fill="#FBFCFE" transform="translate(0,0)"/>
<path d="" fill="#FBFCFD" transform="translate(0,0)"/>
<path d="" fill="#F8F9F7" transform="translate(0,0)"/>
<path d="" fill="#FAFAFB" transform="translate(0,0)"/>
<path d="" fill="#F9FBFA" transform="translate(0,0)"/>
<path d="" fill="#FAFCFC" transform="translate(0,0)"/>
<path d="" fill="#F8F8F9" transform="translate(0,0)"/>
<path d="" fill="#FBFCFC" transform="translate(0,0)"/>
<path d="" fill="#FBF9FA" transform="translate(0,0)"/>
<path d="" fill="#F4F5F6" transform="translate(0,0)"/>
<path d="" fill="#E8EAEC" transform="translate(0,0)"/>
<path d="" fill="#F9F9FB" transform="translate(0,0)"/>
<path d="" fill="#FBF8FA" transform="translate(0,0)"/>
<path d="" fill="#FCFAFC" transform="translate(0,0)"/>
<path d="" fill="#F9FBF9" transform="translate(0,0)"/>
<path d="" fill="#F9FBFB" transform="translate(0,0)"/>
<path d="" fill="#EBEAED" transform="translate(0,0)"/>
<path d="" fill="#FBFDFC" transform="translate(0,0)"/>
<path d="" fill="#F8F9FA" transform="translate(0,0)"/>
<path d="" fill="#FAF9F7" transform="translate(0,0)"/>
<path d="" fill="#F9F9FA" transform="translate(0,0)"/>
<path d="" fill="#F9FAFA" transform="translate(0,0)"/>
<path d="" fill="#F9F8F8" transform="translate(0,0)"/>
<path d="" fill="#F7F9F7" transform="translate(0,0)"/>
<path d="" fill="#F9F9F8" transform="translate(0,0)"/>
<path d="" fill="#F9FAF9" transform="translate(0,0)"/>
<path d="" fill="#F7FAFA" transform="translate(0,0)"/>
<path d="" fill="#F9F8FA" transform="translate(0,0)"/>
<path d="" fill="#F8F8F8" transform="translate(0,0)"/>
<path d="" fill="#F7F9F8" transform="translate(0,0)"/>
<path d="" fill="#FAFAFA" transform="translate(0,0)"/>
<path d="" fill="#F7F8F9" transform="translate(0,0)"/>
<path d="" fill="#FBFAFA" transform="translate(0,0)"/>
<path d="" fill="#F9FAF8" transform="translate(0,0)"/>
<path d="" fill="#F6F6F7" transform="translate(0,0)"/>
<path d="" fill="#F9F8F8" transform="translate(0,0)"/>
<path d="" fill="#F7FBFA" transform="translate(0,0)"/>
<path d="" fill="#F9F9F9" transform="translate(0,0)"/>
<path d="" fill="#F2F3F4" transform="translate(0,0)"/>
<path d="" fill="#F6F6F8" transform="translate(0,0)"/>
<path d="" fill="#F7F7FA" transform="translate(0,0)"/>
<path d="" fill="#F8F9F8" transform="translate(0,0)"/>
<path d="" fill="#F6F7F6" transform="translate(0,0)"/>
<path d="" fill="#DEE0E1" transform="translate(0,0)"/>
<path d="" fill="#000000" transform="translate(0,0)"/>
<path d="" fill="#F7F8F9" transform="translate(0,0)"/>
<path d="" fill="#F7F9F8" transform="translate(0,0)"/>
<path d="" fill="#F3F2F4" transform="translate(0,0)"/>
<path d="" fill="#F5F5F6" transform="translate(0,0)"/>
<path d="" fill="#F9F9F8" transform="translate(0,0)"/>
<path d="" fill="#F7F9F9" transform="translate(0,0)"/>
<path d="" fill="#F6F7F9" transform="translate(0,0)"/>
<path d="" fill="#F3F5F6" transform="translate(0,0)"/>
<path d="" fill="#DEDFE1" transform="translate(0,0)"/>
<path d="" fill="#F7F7F9" transform="translate(0,0)"/>
<path d="" fill="#F8F8F8" transform="translate(0,0)"/>
<path d="" fill="#F8F9F9" transform="translate(0,0)"/>
<path d="" fill="#F8F8F7" transform="translate(0,0)"/>
<path d="" fill="#F6F8F8" transform="translate(0,0)"/>
<path d="" fill="#F4F3F5" transform="translate(0,0)"/>
<path d="" fill="#F2F3F3" transform="translate(0,0)"/>
<path d="" fill="#F3F4F4" transform="translate(0,0)"/>
<path d="" fill="#F9FEFD" transform="translate(0,0)"/>
<path d="" fill="#F6F7F7" transform="translate(0,0)"/>
<path d="" fill="#F5F6F7" transform="translate(0,0)"/>
<path d="" fill="#F9F8F8" transform="translate(0,0)"/>
<path d="" fill="#F7F6F7" transform="translate(0,0)"/>
<path d="" fill="#F3F3F6" transform="translate(0,0)"/>
<path d="" fill="#F3F2F2" transform="translate(0,0)"/>
<path d="" fill="#F0F1F2" transform="translate(0,0)"/>
<path d="" fill="#F3F4F4" transform="translate(0,0)"/>
<path d="" fill="#F3F4F4" transform="translate(0,0)"/>
<path d="" fill="#F2F3F5" transform="translate(0,0)"/>
<path d="" fill="#F2F3F3" transform="translate(0,0)"/>
<path d="" fill="#F3F3F5" transform="translate(0,0)"/>
<path d="" fill="#F2F3F3" transform="translate(0,0)"/>
<path d="" fill="#F4F5F7" transform="translate(0,0)"/>
<path d="" fill="#F5F6F6" transform="translate(0,0)"/>
<path d="" fill="#F6F5F6" transform="translate(0,0)"/>
<path d="" fill="#F4F4F6" transform="translate(0,0)"/>
<path d="" fill="#D1D4D4" transform="translate(0,0)"/>
<path d="" fill="#D8DBDA" transform="translate(0,0)"/>
<path d="" fill="#F8F9F8" transform="translate(0,0)"/>
<path d="" fill="#F4F5F6" transform="translate(0,0)"/>
<path d="" fill="#F2F2F2" transform="translate(0,0)"/>
<path d="" fill="#D7D8DA" transform="translate(0,0)"/>
<path d="" fill="#F6F5F5" transform="translate(0,0)"/>
<path d="" fill="#F4F2F3" transform="translate(0,0)"/>
<path d="" fill="#EFEFEF" transform="translate(0,0)"/>
<path d="" fill="#F2F2F2" transform="translate(0,0)"/>
<path d="" fill="#BCBEBF" transform="translate(0,0)"/>
<path d="" fill="#B3B5B6" transform="translate(0,0)"/>
<path d="" fill="#E4E4E4" transform="translate(0,0)"/>
<path d="" fill="#F3F3F2" transform="translate(0,0)"/>
<path d="" fill="#BCBBBD" transform="translate(0,0)"/>
<path d="" fill="#B3B4B5" transform="translate(0,0)"/>
<path d="" fill="#E5E5E5" transform="translate(0,0)"/>
<path d="" fill="#B2B4B7" transform="translate(0,0)"/>
<path d="" fill="#E4E5E5" transform="translate(0,0)"/>
<path d="" fill="#E3E3E4" transform="translate(0,0)"/>
<path d="" fill="#EDEEEF" transform="translate(0,0)"/>
<path d="" fill="#EEEFF0" transform="translate(0,0)"/>
<path d="" fill="#E9EAEB" transform="translate(0,0)"/>
<path d="" fill="#F0F1EF" transform="translate(0,0)"/>
<path d="" fill="#F0F0F0" transform="translate(0,0)"/>
<path d="" fill="#E7E7E8" transform="translate(0,0)"/>
<path d="" fill="#EBEDED" transform="translate(0,0)"/>
<path d="" fill="#F0F0EF" transform="translate(0,0)"/>
<path d="" fill="#EFEFF2" transform="translate(0,0)"/>
<path d="" fill="#EFF1F2" transform="translate(0,0)"/>
<path d="" fill="#EAEAEB" transform="translate(0,0)"/>
<path d="" fill="#E9EBEB" transform="translate(0,0)"/>
<path d="" fill="#EBEBEA" transform="translate(0,0)"/>
<path d="" fill="#E9EAED" transform="translate(0,0)"/>
<path d="" fill="#ECEDEC" transform="translate(0,0)"/>
<path d="" fill="#E9EBEB" transform="translate(0,0)"/>
<path d="" fill="#EBEEED" transform="translate(0,0)"/>
<path d="" fill="#ECEEED" transform="translate(0,0)"/>
<path d="" fill="#EDEEEE" transform="translate(0,0)"/>
<path d="" fill="#EAEBEC" transform="translate(0,0)"/>
<path d="" fill="#E8E8EA" transform="translate(0,0)"/>
<path d="" fill="#E9EBEB" transform="translate(0,0)"/>
<path d="" fill="#EBEBEB" transform="translate(0,0)"/>
<path d="" fill="#ECEBEB" transform="translate(0,0)"/>
<path d="" fill="#ECEDEA" transform="translate(0,0)"/>
<path d="" fill="#EAEDEC" transform="translate(0,0)"/>
<path d="" fill="#ECEDEE" transform="translate(0,0)"/>
<path d="" fill="#ECEEED" transform="translate(0,0)"/>
<path d="" fill="#EDEDED" transform="translate(0,0)"/>
<path d="" fill="#E8EAE9" transform="translate(0,0)"/>
<path d="" fill="#E9E9E8" transform="translate(0,0)"/>
<path d="" fill="#EDEDEC" transform="translate(0,0)"/>
<path d="" fill="#E9EBEC" transform="translate(0,0)"/>
<path d="" fill="#E9ECEB" transform="translate(0,0)"/>
<path d="" fill="#E7E8E8" transform="translate(0,0)"/>
<path d="" fill="#000000" transform="translate(0,0)"/>
</svg>
