<?xml version="1.0" encoding="UTF-8"?>
<svg version="1.1" xmlns="http://www.w3.org/2000/svg" width="1024" height="1024">
<path d="M0 0 C1.17053925 0.00149048 2.34107849 0.00298096 3.54708862 0.0045166 C26.22662047 0.05647651 47.80369146 1.59430278 69.98828125 6.54296875 C72.63611273 7.11545609 74.65758428 7.31024543 77.41796875 7.30078125 C80 7.3125 80 7.3125 82 9.3125 C83.8906046 9.99721195 83.8906046 9.99721195 86.0625 10.49609375 C87.25746094 10.80450195 87.25746094 10.80450195 88.4765625 11.11914062 C90.15793907 11.53948477 91.8402378 11.95615742 93.5234375 12.36914062 C94.71839844 12.67948242 94.71839844 12.67948242 95.9375 12.99609375 C97.03384766 13.26764282 97.03384766 13.26764282 98.15234375 13.54467773 C100 14.3125 100 14.3125 102 17.3125 C102.18381734 19.88042664 102.25240825 22.33801182 102.22705078 24.9050293 C102.22734283 25.67599945 102.22763489 26.4469696 102.22793579 27.24130249 C102.22654233 29.78988902 102.21098049 32.33818328 102.1953125 34.88671875 C102.19158242 36.65362895 102.18873543 38.42054122 102.18673706 40.18745422 C102.17910017 44.83832508 102.1594512 49.48907106 102.1373291 54.13989258 C102.11687188 58.88556224 102.10773561 63.63125208 102.09765625 68.37695312 C102.07620537 77.68885696 102.04206873 87.00066809 102 96.3125 C101.01 95.9825 100.02 95.6525 99 95.3125 C97.95256706 93.06112114 97.08101461 90.89254372 96.25 88.5625 C91.40367064 75.7955178 84.99293619 62.9281385 75.0625 53.3125 C73 51.3125 73 51.3125 72 48.3125 C71.21625 48.23 70.4325 48.1475 69.625 48.0625 C68.75875 47.815 67.8925 47.5675 67 47.3125 C66.71769531 46.71695313 66.43539062 46.12140625 66.14453125 45.5078125 C62.15840787 37.86207414 50.45973168 33.04236584 43 29.3125 C42.11570312 28.87035156 41.23140625 28.42820312 40.3203125 27.97265625 C28.37870403 22.27875888 15.97267864 19.42594818 3 17.3125 C2.17886719 17.1784375 1.35773438 17.044375 0.51171875 16.90625 C-28.24303482 13.00730036 -62.30808875 20.11732734 -85.80859375 37.375 C-95.86086665 45.23132183 -103.04746472 53.54336214 -105.37890625 66.40234375 C-105.89016993 74.46711597 -102.51011051 81.90753886 -97.39160156 87.95703125 C-91.73734055 94.22631714 -85.44178161 99.25117456 -78 103.3125 C-77.34 103.3125 -76.68 103.3125 -76 103.3125 C-76 103.9725 -76 104.6325 -76 105.3125 C-75.36320313 105.55097656 -74.72640625 105.78945313 -74.0703125 106.03515625 C-70.80031392 107.39557551 -67.64990409 108.92485129 -64.47094727 110.48339844 C-43.97698547 120.48270943 -22.73682948 128.47324887 -1.33789062 136.27749634 C16.47584957 142.77967953 34.10011678 149.63597253 51.07421875 158.1328125 C53.98918881 159.30814088 55.8970867 159.57731264 59 159.3125 C58.67 159.9725 58.34 160.6325 58 161.3125 C60.12282669 162.31710531 62.24833021 163.31605602 64.375 164.3125 C65.55835938 164.869375 66.74171875 165.42625 67.9609375 166 C70.75428575 167.44466041 70.75428575 167.44466041 73 167.3125 C73 168.3025 73 169.2925 73 170.3125 C73.69738281 170.54839844 74.39476562 170.78429687 75.11328125 171.02734375 C78.51872508 172.54343444 81.28220563 174.58175778 84.1875 176.875 C84.75702393 177.32190186 85.32654785 177.76880371 85.91333008 178.22924805 C87.61817105 179.57922227 89.31127388 180.94243975 91 182.3125 C91.8971875 183.03953125 92.794375 183.7665625 93.71875 184.515625 C110.6547906 198.9862926 122.23182131 219.99521764 124 242.3125 C124.6037876 267.58532381 114.23492933 288.56882489 97.37890625 306.94921875 C94.14965909 310.15725575 90.68098762 312.95831853 87.06640625 315.71875 C84.93426672 317.29285189 84.93426672 317.29285189 83 319.3125 C44.95535282 343.66633989 0.63472356 352.09186034 -44 353.3125 C-44.72509766 353.33441406 -45.45019531 353.35632813 -46.19726562 353.37890625 C-92.88998633 354.59170419 -144.44648126 349.0626316 -188 331.3125 C-188 330.6525 -188 329.9925 -188 329.3125 C-187.39865234 329.22274902 -186.79730469 329.13299805 -186.17773438 329.04052734 C-173.26705395 327.08148041 -160.65149712 324.76124403 -148.109375 321.06787109 C-141.61619864 319.27730811 -137.38058406 319.31406474 -131 321.3125 C-128.80185466 321.91797305 -126.60252353 322.51914946 -124.40234375 323.1171875 C-123.1999707 323.45161865 -121.99759766 323.7860498 -120.75878906 324.13061523 C-106.29488728 328.13101332 -91.90622145 331.37317386 -77 333.3125 C-76.26499268 333.4141748 -75.52998535 333.51584961 -74.77270508 333.62060547 C-65.95761618 334.68490438 -57.05314275 334.55539277 -48.1875 334.5625 C-46.88317017 334.56401062 -46.88317017 334.56401062 -45.55249023 334.56555176 C-32.50037698 334.55532377 -19.79399834 334.13652272 -7 331.3125 C-5.99138916 331.0956958 -5.99138916 331.0956958 -4.96240234 330.87451172 C16.18903417 326.1689815 38.29845555 317.48707881 50.9375 298.9375 C57.96622931 286.96876754 58.81712302 273.76985866 55.5 260.375 C55.0182541 258.68219844 54.52550305 256.99223295 54 255.3125 C53.34 255.3125 52.68 255.3125 52 255.3125 C51.608125 254.631875 51.21625 253.95125 50.8125 253.25 C36.308585 229.743655 -0.76054747 221.72578611 -25.12852478 213.11328125 C-99.69548041 186.70104035 -99.69548041 186.70104035 -127 165.3125 C-128.43619435 164.28983058 -129.87355479 163.26879518 -131.3125 162.25 C-134.75805721 159.66405603 -137.47529436 156.73382924 -140.22265625 153.42578125 C-141.41436153 152.00883057 -142.65317556 150.63029442 -143.93359375 149.29296875 C-157.83679005 134.68512702 -165.60500423 114.37187899 -165.203125 94.2109375 C-164.73643316 87.55160397 -163.85989256 80.93060163 -163 74.3125 C-162.34 74.3125 -161.68 74.3125 -161 74.3125 C-160.87625 73.58160156 -160.7525 72.85070312 -160.625 72.09765625 C-156.43958388 53.44639565 -139.24963986 39.21858955 -124 29.3125 C-117.16248971 25.0442251 -110.16110709 21.11414834 -102.671875 18.1015625 C-100.79156476 17.32917217 -100.79156476 17.32917217 -99 15.3125 C-97.13671875 14.671875 -97.13671875 14.671875 -94.6875 14.0625 C-90.89149707 13.08878571 -87.12508506 12.061917 -83.375 10.92578125 C-74.28203599 8.19010832 -65.2193001 5.77869776 -55.875 4.0625 C-55.06699951 3.91176025 -54.25899902 3.76102051 -53.42651367 3.60571289 C-35.65915564 0.51853237 -18.00185566 -0.05659011 0 0 Z " fill="#0F0F0F" transform="translate(628,304.6875)"/>
<path d="M0 0 C3.4188395 0.00423362 6.8376783 0.00716244 10.25651932 0.00988388 C125.67005518 0.11399683 125.67005518 0.11399683 157.03725052 7.35964584 C160.77647615 8.24283388 160.77647615 8.24283388 164.27162552 8.11745834 C166.87318802 8.12917709 166.87318802 8.12917709 168.87318802 10.12917709 C171.44380113 10.77685502 171.44380113 10.77685502 173.87318802 11.12917709 C173.87318802 11.78917709 173.87318802 12.44917709 173.87318802 13.12917709 C172.90381302 13.51847397 171.93443802 13.90777084 170.93568802 14.30886459 C162.47259555 17.81083389 154.78560926 21.73018431 147.27943802 27.01540756 C144.37261325 28.97615736 142.43694514 30.13138791 138.88490677 30.11745834 C135.23865114 28.92095682 131.78125432 27.43957035 128.31068802 25.81667709 C116.43974941 20.21414906 116.43974941 20.21414906 103.69350052 18.15652084 C100.87318802 18.12917709 100.87318802 18.12917709 97.87318802 16.12917709 C95.6916562 15.59851003 95.6916562 15.59851003 93.25990677 15.31277084 C92.34016068 15.18837631 91.42041458 15.06398178 90.47279739 14.93581772 C89.5118013 14.81400131 88.55080521 14.69218491 87.56068802 14.56667709 C86.18300247 14.3781517 86.18300247 14.3781517 84.77748489 14.18581772 C69.05959942 12.11396394 53.32609512 11.85903515 37.49818802 11.56667709 C35.29766069 11.52338644 33.09713975 11.47976918 30.89662552 11.43581772 C25.55554759 11.32984049 20.21440491 11.22788848 14.87318802 11.12917709 C14.87410981 11.71058708 14.8750316 12.29199707 14.87598133 12.89102554 C14.98339103 81.94283663 14.98900096 150.99564037 14.6358633 220.04680061 C14.62714663 221.75215655 14.61843544 223.45751251 14.60972977 225.1628685 C14.60543459 226.00270802 14.60113941 226.84254754 14.59671408 227.70783675 C14.56718203 233.62691536 14.5454398 239.54599187 14.52702713 245.46511459 C14.50437678 252.70360219 14.47125332 259.94194872 14.42458677 267.18032295 C14.40095339 270.88368392 14.38192531 274.58691175 14.37555695 278.29034615 C14.36840864 282.31910687 14.33809373 286.3473676 14.30556107 290.37600327 C14.30699647 291.54531639 14.30843187 292.71462952 14.30991077 293.91937637 C14.23268617 300.62467653 13.3562566 305.88697321 10.87318802 312.12917709 C55.21055409 312.97525338 101.04717628 298.8489925 133.54335403 267.81325912 C154.09384366 247.5438301 165.57974782 222.69782339 171.92103958 194.83572006 C172.14888138 193.84845932 172.37672318 192.86119858 172.61146927 191.84402084 C172.90597977 190.51552109 172.90597977 190.51552109 173.20643997 189.16018295 C173.42646683 188.48995102 173.64649368 187.81971909 173.87318802 187.12917709 C174.53318802 186.79917709 175.19318802 186.46917709 175.87318802 186.12917709 C177.81142044 186.8191185 177.81142044 186.8191185 180.22865677 187.98073959 C181.1463887 188.41386459 182.06412064 188.84698959 183.00966263 189.29323959 C184.01650101 189.77534897 185.02333939 190.25745834 186.06068802 190.75417709 C196.05550422 195.43984927 206.13123619 199.86316862 216.31068802 204.12917709 C216.97136276 204.4077153 217.63203751 204.68625351 218.3127327 204.97323227 C225.41983415 207.96724402 232.51151359 210.81485545 239.87318802 213.12917709 C243.69180822 214.40205049 246.13723234 216.26293781 248.87318802 219.12917709 C229.53419837 256.59846953 199.93628645 285.32703111 161.87318802 303.12917709 C160.17935989 303.9316185 160.17935989 303.9316185 158.45131302 304.75027084 C137.22894024 314.34019282 113.89006229 319.11736101 90.87318802 321.87917709 C89.4546553 322.05259628 89.4546553 322.05259628 88.00746536 322.22951889 C67.10983838 324.50973221 45.97402869 324.28328197 24.9826827 324.2635026 C21.36611585 324.26091824 17.74955115 324.26333213 14.13298416 324.26488876 C8.08723356 324.26668894 2.04149533 324.26435711 -4.00425339 324.25954819 C-10.97786976 324.25406507 -17.95145707 324.25590593 -24.92507279 324.26137459 C-30.95872404 324.2659147 -36.99236657 324.2665532 -43.02601898 324.26393592 C-46.61072955 324.26238378 -50.19542643 324.26215101 -53.78013611 324.26547241 C-57.75654613 324.26890263 -61.73292343 324.26414688 -65.70933151 324.25857162 C-66.88435226 324.26059586 -68.05937302 324.26262009 -69.27000046 324.26470566 C-70.89634918 324.26047592 -70.89634918 324.26047592 -72.55555344 324.25616074 C-73.49226442 324.25578371 -74.42897541 324.25540668 -75.39407158 324.25501823 C-78.36765581 324.11808637 -81.20228219 323.67184864 -84.12681198 323.12917709 C-83.13681198 321.14917709 -83.13681198 321.14917709 -82.12681198 319.12917709 C-80.80681198 319.12917709 -79.48681198 319.12917709 -78.12681198 319.12917709 C-70.69587764 316.8803417 -63.53570521 312.58493336 -59.77524948 305.62917709 C-57.35422918 299.77692657 -56.03165178 294.22209665 -55.92148972 287.87990952 C-55.90154449 286.85922882 -55.88159927 285.83854813 -55.86104965 284.78693771 C-55.84433716 283.6971814 -55.82762466 282.60742508 -55.81040573 281.48464584 C-55.78962463 280.35972229 -55.76884354 279.23479874 -55.74743271 278.07578659 C-55.68215406 274.48947769 -55.62315299 270.90309683 -55.56431198 267.31667709 C-55.52110615 264.88242492 -55.4774912 262.44817997 -55.43345261 260.01394272 C-55.32649488 254.05242981 -55.22468848 248.09084564 -55.12681198 242.12917709 C-55.78681198 242.12917709 -56.44681198 242.12917709 -57.12681198 242.12917709 C-56.79681198 241.46917709 -56.46681198 240.80917709 -56.12681198 240.12917709 C-56.03021155 238.12347038 -55.99884714 236.11450314 -55.99741745 234.10647202 C-55.99426529 232.84143341 -55.99111313 231.57639481 -55.98786545 230.2730217 C-55.98965586 228.8852294 -55.99170697 227.49743741 -55.99399948 226.10964584 C-55.99332592 224.68958647 -55.99235546 223.26952721 -55.99110031 221.84946823 C-55.98962435 218.86936981 -55.99177367 215.88930133 -55.99644089 212.90920639 C-56.00212258 209.0960802 -55.99886846 205.28302465 -55.99286842 201.46990108 C-55.98924678 198.53504026 -55.99040903 195.60019604 -55.99299622 192.6653347 C-55.99366186 191.25996835 -55.99284976 189.85460048 -55.99051666 188.44923592 C-55.98796561 186.47951284 -55.99254582 184.50978447 -55.99741745 182.54006577 C-55.99821304 181.42024811 -55.99900864 180.30043045 -55.99982834 179.14667892 C-56.11744253 176.35182251 -56.54062997 173.8558597 -57.12681198 171.12917709 C-57.16454112 169.129533 -57.17331104 167.12863648 -57.12681198 165.12917709 C-56.79681198 165.12917709 -56.46681198 165.12917709 -56.12681198 165.12917709 C-56.12903259 164.48882019 -56.1312532 163.84846329 -56.13354111 163.18870163 C-56.15567144 156.52148624 -56.170751 149.85428129 -56.18174362 143.18703842 C-56.18677111 140.69907838 -56.193594 138.21112129 -56.20225143 135.72317123 C-56.21438624 132.14625952 -56.22005617 128.56938689 -56.22446823 124.99245834 C-56.22962952 123.88082825 -56.2347908 122.76919815 -56.24010849 121.62388229 C-56.24018402 120.58318085 -56.24025955 119.5424794 -56.24033737 118.47024155 C-56.24255798 117.55757019 -56.24477859 116.64489883 -56.2470665 115.70457077 C-56.12488228 113.08785023 -55.70727986 110.68017736 -55.12681198 108.12917709 C-55.78681198 107.79917709 -56.44681198 107.46917709 -57.12681198 107.12917709 C-56.46681198 107.12917709 -55.80681198 107.12917709 -55.12681198 107.12917709 C-55.19899948 106.08116928 -55.27118698 105.03316147 -55.34556198 103.95339584 C-55.43936488 102.57449319 -55.53311197 101.19558674 -55.62681198 99.81667709 C-55.67450729 99.12638412 -55.72220261 98.43609116 -55.77134323 97.72488022 C-56.09060071 93.00443032 -56.12369558 88.33554845 -56.0950737 83.60720444 C-56.06286156 77.95892296 -56.0398307 72.3106585 -56.02318764 66.66230965 C-56.01277704 63.24935701 -55.99865432 59.83650531 -55.97593307 56.42361069 C-55.94984861 52.47912477 -55.9403062 48.53467832 -55.93149948 44.59011459 C-55.92117691 43.37729813 -55.91085434 42.16448166 -55.90021896 40.91491318 C-55.89893105 31.10313711 -56.47593126 21.85857901 -63.12681198 14.12917709 C-69.45394506 8.40966013 -77.01874361 6.25958146 -85.12681198 4.12917709 C-84.79681198 3.13917709 -84.46681198 2.14917709 -84.12681198 1.12917709 C-56.08239227 0.15859137 -28.05956607 -0.03543867 0 0 Z " fill="#121212" transform="translate(345.1268119812012,306.87082290649414)"/>
<path d="M0 0 C12.61248263 3.43976799 21.96690426 21.19333198 27.98339844 31.72070312 C34 42.42594385 34 42.42594385 34 45 C34.66 45.33 35.32 45.66 36 46 C36.72192383 47.61157227 36.72192383 47.61157227 37.39453125 49.75390625 C37.77859131 50.97424561 37.77859131 50.97424561 38.17041016 52.21923828 C39.72918755 57.44421608 41.22392082 62.68511458 42.6875 67.9375 C43.00783203 69.07251953 43.32816406 70.20753906 43.65820312 71.37695312 C43.96048828 72.45783203 44.26277344 73.53871094 44.57421875 74.65234375 C44.98546997 76.12175415 44.98546997 76.12175415 45.4050293 77.62084961 C46 80 46 80 46 82 C38.19481757 80.6085698 31.45125976 77.83089834 24.25 74.5625 C23.06857422 74.02971436 21.88714844 73.49692871 20.66992188 72.94799805 C-21.42545486 53.76396618 -21.42545486 53.76396618 -28 38 C-29.84049863 32.06839299 -29.10291648 27.58925381 -26.265625 22.11328125 C-21.24848254 13.73589214 -11.38575079 5.09092085 -1.78369141 2.37255859 C-0.90076416 2.18814209 -0.90076416 2.18814209 0 2 C0 1.34 0 0.68 0 0 Z " fill="#191A1A" transform="translate(560,339)"/>
<path d="M0 0 C23.25403258 -0.07032692 46.50804742 -0.12310357 69.76216507 -0.15543652 C80.56136904 -0.17085356 91.36050663 -0.19184342 102.15966797 -0.22631836 C111.58086755 -0.2563798 121.00201901 -0.27561243 130.42326522 -0.28226548 C135.40388309 -0.2861496 140.3843634 -0.29516791 145.36493683 -0.31719017 C150.06973657 -0.33782103 154.77434442 -0.34378116 159.4791851 -0.33932304 C161.18978106 -0.34013653 162.90038463 -0.34594161 164.61094093 -0.35761642 C176.25681773 -0.43308324 187.37822056 0.6642353 198.85715246 2.63314283 C201.92127306 3.15772267 204.99195148 3.6397088 208.0625 4.125 C210.86707519 4.58371101 213.29553451 5.0985115 216 6 C218.33183607 6.67188497 220.66501142 7.33915417 223 8 C223 8.66 223 9.32 223 10 C222.030625 10.38929688 221.06125 10.77859375 220.0625 11.1796875 C211.59940753 14.6816568 203.91242125 18.60100721 196.40625 23.88623047 C193.49942524 25.84698026 191.56375712 27.00221081 188.01171875 26.98828125 C184.36546312 25.79177973 180.9080663 24.31039325 177.4375 22.6875 C165.5665614 17.08497197 165.5665614 17.08497197 152.8203125 15.02734375 C150 15 150 15 147 13 C144.81846819 12.46933293 144.81846819 12.46933293 142.38671875 12.18359375 C141.46697266 12.05919922 140.54722656 11.93480469 139.59960938 11.80664062 C138.63861328 11.68482422 137.67761719 11.56300781 136.6875 11.4375 C135.30981445 11.24897461 135.30981445 11.24897461 133.90429688 11.05664062 C118.18143713 8.98413116 102.45835894 8.73087283 86.625 8.4375 C79.15875 8.293125 71.6925 8.14875 64 8 C63.67 35.06 63.34 62.12 63 90 C62.34 90 61.68 90 61 90 C60.67 89.34 60.34 88.68 60 88 C59.67 154 59.34 220 59 288 C58.67 288 58.34 288 58 288 C57.67 194.28 57.34 100.56 57 4 C56.01 4 55.02 4 54 4 C54 3.34 54 2.68 54 2 C36.18 1.67 18.36 1.34 0 1 C0 0.67 0 0.34 0 0 Z " fill="#161616" transform="translate(296,310)"/>
<path d="M0 0 C0.66 0 1.32 0 2 0 C2.35191406 0.94359375 2.70382812 1.8871875 3.06640625 2.859375 C12.37846083 27.29791823 28.09510539 46.36040875 52.0703125 57.58203125 C54.4024362 58.71077912 56.66048254 59.89063903 58.9296875 61.13671875 C78.98968166 72.10702806 100.13394929 80.25057357 121.66748047 87.82128906 C132.81973222 91.76583642 143.9175597 95.86386856 155 100 C155.62080444 100.23136658 156.24160889 100.46273315 156.88122559 100.70111084 C197.88597076 116.01003041 197.88597076 116.01003041 211 128 C211.92619141 128.7734375 211.92619141 128.7734375 212.87109375 129.5625 C219.37702565 135.38286059 224.44003085 144.30740314 225.17700195 153.11547852 C225.71145205 172.85606346 225.71145205 172.85606346 221 182 C220.649375 182.76054688 220.29875 183.52109375 219.9375 184.3046875 C214.57918001 195.05853803 205.82678164 202.42432182 196 209 C196 207.33333333 196 205.66666667 196 204 C197.62726748 202.63895827 199.30396863 201.33682791 201 200.0625 C210.7176478 192.22084598 216.77095109 183.40697033 219 171 C219.85988621 161.54125168 218.82891809 153.04243461 216 144 C215.34 144 214.68 144 214 144 C213.608125 143.319375 213.21625 142.63875 212.8125 141.9375 C198.308585 118.431155 161.23945253 110.41328611 136.87147522 101.80078125 C62.30451959 75.38854035 62.30451959 75.38854035 35 54 C33.56380565 52.97733058 32.12644521 51.95629518 30.6875 50.9375 C27.24194279 48.35155603 24.52470564 45.42132924 21.77734375 42.11328125 C20.58563847 40.69633057 19.34682444 39.31779442 18.06640625 37.98046875 C9.27928245 28.74799364 0.6314039 15.31320746 -0.25 2.3125 C-0.1675 1.549375 -0.085 0.78625 0 0 Z " fill="#070707" transform="translate(466,416)"/>
<path d="M0 0 C0 0.33 0 0.66 0 1 C7.26 1 14.52 1 22 1 C22 1.66 22 2.32 22 3 C25.96 3.33 29.92 3.66 34 4 C34 4.33 34 4.66 34 5 C33.40912598 5.0093457 32.81825195 5.01869141 32.20947266 5.02832031 C-0.79272882 5.67405685 -35.47656137 9.65072954 -62 31 C-63.0725 31.763125 -64.145 32.52625 -65.25 33.3125 C-71.8228896 39.73600574 -77.16779117 48.23419447 -77.38085938 57.56982422 C-77.3482894 68.99374324 -75.14378956 77.6792006 -67.48046875 86.54296875 C-41.64794965 112.13140105 0.59339785 123.36826517 33.81640625 135.4921875 C117.54042004 166.08084008 117.54042004 166.08084008 126 183 C123.32529201 181.73253366 120.98671468 180.35188146 118.62890625 178.56640625 C91.47868711 158.42685487 58.79053035 146.71150762 27 135.875 C18.31532782 132.86767193 9.68722461 129.71100784 1.07421875 126.50518799 C-0.38829113 125.96141454 -1.85150625 125.41953402 -3.31542969 124.87957764 C-5.38167153 124.11666933 -7.44505326 123.34648588 -9.5078125 122.57421875 C-10.71066895 122.12651123 -11.91352539 121.67880371 -13.15283203 121.2175293 C-16 120 -16 120 -18 118 C-20.4526375 117.07810698 -22.88217366 116.23303265 -25.375 115.4375 C-26.04789063 115.21642578 -26.72078125 114.99535156 -27.4140625 114.76757812 C-30.58533876 113.73441627 -33.74703687 112.74234287 -37 112 C-37 111.34 -37 110.68 -37 110 C-37.84820313 109.74605469 -38.69640625 109.49210937 -39.5703125 109.23046875 C-43.22734776 107.91843446 -46.52066253 106.24496031 -49.875 104.3125 C-50.4848877 103.9623584 -51.09477539 103.6122168 -51.72314453 103.25146484 C-56.57053509 100.39604683 -61.27815465 97.2766546 -65 93 C-65 92.34 -65 91.68 -65 91 C-65.99 91 -66.98 91 -68 91 C-73 85.76744186 -73 85.76744186 -73 82 C-73.66 82 -74.32 82 -75 82 C-75.33773437 81.16855469 -75.67546875 80.33710938 -76.0234375 79.48046875 C-76.46945312 78.39378906 -76.91546875 77.30710937 -77.375 76.1875 C-77.81585937 75.10855469 -78.25671875 74.02960938 -78.7109375 72.91796875 C-79.9479119 69.89269888 -79.9479119 69.89269888 -82 67 C-83.12066659 59.16836488 -81.35203927 52.99811708 -78 46 C-77.74605469 45.34644531 -77.49210938 44.69289063 -77.23046875 44.01953125 C-70.50190547 27.94389977 -53.07713387 17.94626502 -38 11 C-27.79271709 7 -27.79271709 7 -24 7 C-24 6.34 -24 5.68 -24 5 C-28.455 5.495 -28.455 5.495 -33 6 C-32.67 4.68 -32.34 3.36 -32 2 C-30.54263913 1.80508548 -29.08405407 1.61930642 -27.625 1.4375 C-26.81289063 1.33308594 -26.00078125 1.22867187 -25.1640625 1.12109375 C-23 1 -23 1 -21 2 C-18.37512621 1.74654382 -15.79529289 1.43636879 -13.1875 1.0625 C-8.77880262 0.44408544 -4.46446285 -0.1491078 0 0 Z " fill="#59595A" transform="translate(593,309)"/>
<path d="M0 0 C1.08991241 -0.00696899 2.17982483 -0.01393799 3.30276489 -0.02111816 C6.80735155 -0.03844554 10.31177852 -0.04483922 13.81640625 -0.046875 C15.00942352 -0.04788208 16.2024408 -0.04888916 17.43161011 -0.04992676 C40.30101975 -0.03683399 61.9954522 1.44318166 84.3671875 6.43359375 C87.01501898 7.00608109 89.03649053 7.20087043 91.796875 7.19140625 C94.37890625 7.203125 94.37890625 7.203125 96.37890625 9.203125 C98.26951085 9.88783695 98.26951085 9.88783695 100.44140625 10.38671875 C101.23804688 10.59232422 102.0346875 10.79792969 102.85546875 11.00976562 C104.53684532 11.43010977 106.21914405 11.84678242 107.90234375 12.25976562 C108.69898438 12.46666016 109.495625 12.67355469 110.31640625 12.88671875 C111.41275391 13.15826782 111.41275391 13.15826782 112.53125 13.43530273 C114.37890625 14.203125 114.37890625 14.203125 116.37890625 17.203125 C116.56272359 19.77105164 116.6313145 22.22863682 116.60595703 24.7956543 C116.60624908 25.56662445 116.60654114 26.3375946 116.60684204 27.13192749 C116.60544858 29.68051402 116.58988674 32.22880828 116.57421875 34.77734375 C116.57048867 36.54425395 116.56764168 38.31116622 116.56564331 40.07807922 C116.55800642 44.72895008 116.53835745 49.37969606 116.51623535 54.03051758 C116.49577813 58.77618724 116.48664186 63.52187708 116.4765625 68.26757812 C116.45511162 77.57948196 116.42097498 86.89129309 116.37890625 96.203125 C113.37890625 95.203125 113.37890625 95.203125 112.19140625 93.078125 C111.37890625 90.203125 111.37890625 90.203125 111.50390625 87.015625 C111.22263485 78.43684719 106.36691733 71.11162698 102.02148438 63.93725586 C99.37890625 59.51193658 99.37890625 59.51193658 99.37890625 56.203125 C100.45060802 57.65470954 101.51063993 59.11490942 102.56640625 60.578125 C103.15808594 61.39023437 103.74976563 62.20234375 104.359375 63.0390625 C107.03488576 67.23086853 109.154964 71.7552405 111.37890625 76.203125 C111.87390625 46.998125 111.87390625 46.998125 112.37890625 17.203125 C110.06890625 16.873125 107.75890625 16.543125 105.37890625 16.203125 C103.80441388 15.81633864 102.23768723 15.3955714 100.68359375 14.93359375 C85.08798115 10.48371135 69.48293927 8.01703741 53.37890625 6.203125 C52.07360962 6.05278809 52.07360962 6.05278809 50.74194336 5.89941406 C42.50397384 5.0470191 34.23482448 4.86254482 25.96069336 4.64550781 C23.42212755 4.57760936 20.883973 4.49998312 18.34570312 4.421875 C16.72267235 4.37701774 15.09962582 4.33272624 13.4765625 4.2890625 C12.72238541 4.26516449 11.96820831 4.24126648 11.19117737 4.21664429 C7.71746665 4.13352395 4.71464874 4.2551966 1.37890625 5.203125 C-2.8222779 5.54510818 -7.03443424 5.66759089 -11.24609375 5.828125 C-12.40367187 5.8796875 -13.56125 5.93125 -14.75390625 5.984375 C-15.85734375 6.02820313 -16.96078125 6.07203125 -18.09765625 6.1171875 C-19.10908691 6.1579541 -20.12051758 6.1987207 -21.16259766 6.24072266 C-23.62109375 6.203125 -23.62109375 6.203125 -25.62109375 5.203125 C-28.24596754 5.45658118 -30.82580086 5.76675621 -33.43359375 6.140625 C-37.84229113 6.75903956 -42.1566309 7.3522328 -46.62109375 7.203125 C-43.74964581 4.78087874 -41.70557044 3.77340231 -37.98828125 3.2890625 C-37.09882812 3.16789062 -36.209375 3.04671875 -35.29296875 2.921875 C-33.90851562 2.75171875 -33.90851562 2.75171875 -32.49609375 2.578125 C-31.59632813 2.45695312 -30.6965625 2.33578125 -29.76953125 2.2109375 C-27.05496941 1.85211611 -24.3417695 1.51270539 -21.62109375 1.203125 C-20.55322884 1.07653503 -20.55322884 1.07653503 -19.46379089 0.9473877 C-12.9652998 0.22735655 -6.53508672 0.02807494 0 0 Z " fill="#3A3A3A" transform="translate(613.62109375,304.796875)"/>
<path d="M0 0 C-0.598125 0.268125 -1.19625 0.53625 -1.8125 0.8125 C-4.01742095 1.83932458 -4.01742095 1.83932458 -5.265625 3.48828125 C-7.67037498 5.58431333 -9.8173924 5.79257991 -12.9375 6.375 C-20.55603733 7.99234312 -27.83289256 10.44113559 -34.5 14.53515625 C-37.12036771 16.07052795 -39.61808808 16.99440242 -42.5 17.9375 C-46.73517042 19.42094205 -49.58317948 21.05773788 -53 24 C-54.010625 24.391875 -55.02125 24.78375 -56.0625 25.1875 C-71.86129848 31.55520745 -84.17397669 46.88713797 -91.3828125 61.875 C-92.35470071 64.23632838 -93.22871633 66.56626035 -94 69 C-94.35449219 70.010625 -94.70898438 71.02125 -95.07421875 72.0625 C-99.40659823 87.55309425 -96.30377862 105.7162215 -89.1875 119.75 C-88.74792969 120.52859375 -88.30835938 121.3071875 -87.85546875 122.109375 C-87.57316406 122.73328125 -87.29085938 123.3571875 -87 124 C-87.495 124.99 -87.495 124.99 -88 126 C-95.66742597 111.40318907 -95.66742597 111.40318907 -97 104 C-97.66 104 -98.32 104 -99 104 C-99.33 104.99 -99.66 105.98 -100 107 C-102.44786923 93.05588777 -101.80947064 80.92646154 -100 67 C-99.34 67 -98.68 67 -98 67 C-97.814375 65.90365234 -97.814375 65.90365234 -97.625 64.78515625 C-93.43958388 46.13389565 -76.24963986 31.90608955 -61 22 C-54.16248971 17.7317251 -47.16110709 13.80164834 -39.671875 10.7890625 C-37.79156476 10.01667217 -37.79156476 10.01667217 -36 8 C-33.99609375 7.32421875 -33.99609375 7.32421875 -31.4375 6.6875 C-27.8532144 5.77014986 -24.30377363 4.80022686 -20.7734375 3.6953125 C-20.03681885 3.46755127 -19.3002002 3.23979004 -18.54125977 3.00512695 C-17.08860305 2.5536879 -15.63839638 2.0942639 -14.19116211 1.62573242 C-9.29609429 0.12402615 -5.12030662 -0.21262777 0 0 Z " fill="#2A2A2A" transform="translate(565,312)"/>
<path d="M0 0 C8.46796115 0.98288835 16.07249504 4.03166202 24 7 C25.69793701 7.63373535 25.69793701 7.63373535 27.43017578 8.28027344 C42.4126487 13.90139759 57.19906834 19.69212247 71.60180664 26.69799805 C72.50922607 27.13281494 73.41664551 27.56763184 74.3515625 28.015625 C75.13354004 28.40008789 75.91551758 28.78455078 76.72119141 29.18066406 C79.27919507 30.1003834 81.30198403 30.15144664 84 30 C83.67 30.66 83.34 31.32 83 32 C85.12282669 33.00460531 87.24833021 34.00355602 89.375 35 C91.15003906 35.8353125 91.15003906 35.8353125 92.9609375 36.6875 C95.75428575 38.13216041 95.75428575 38.13216041 98 38 C98 38.99 98 39.98 98 41 C98.69738281 41.23589844 99.39476562 41.47179687 100.11328125 41.71484375 C103.51872508 43.23093444 106.28220563 45.26925778 109.1875 47.5625 C109.75702393 48.00940186 110.32654785 48.45630371 110.91333008 48.91674805 C112.61817105 50.26672227 114.31127388 51.62993975 116 53 C116.8971875 53.72703125 117.794375 54.4540625 118.71875 55.203125 C126.78047815 62.09131045 133.91911185 70.65508675 139 80 C139 80.66 139 81.32 139 82 C138.34 82 137.68 82 137 82 C137.40992188 82.845625 137.81984375 83.69125 138.2421875 84.5625 C138.78101563 85.696875 139.31984375 86.83125 139.875 88 C140.40867187 89.11375 140.94234375 90.2275 141.4921875 91.375 C144.85140444 99.45104487 145.26583413 106.34411747 145.125 115 C145.11597656 116.06089844 145.10695313 117.12179687 145.09765625 118.21484375 C145.07427524 120.81013638 145.04150556 123.40494465 145 126 C144.67 126 144.34 126 144 126 C143.96261719 124.86304688 143.92523437 123.72609375 143.88671875 122.5546875 C142.97111994 99.25637531 136.7125864 81.38014041 121 64 C120.12730469 63.31421875 119.25460937 62.6284375 118.35546875 61.921875 C116 60 116 60 114.62890625 57.58984375 C112.36106499 53.9841393 109.38286744 51.99594134 105.9375 49.5625 C105.31939453 49.11068359 104.70128906 48.65886719 104.06445312 48.19335938 C95.73222618 42.19313466 86.96061461 37.25458623 77.625 33 C76.61606689 32.53924072 75.60713379 32.07848145 74.56762695 31.60375977 C56.65012088 23.57232442 38.19027579 16.65669168 19.7265625 9.9921875 C18.76919945 9.64496391 18.76919945 9.64496391 17.79249573 9.29072571 C14.81975487 8.21325107 11.8436447 7.14890267 8.8581543 6.10717773 C7.82859619 5.73794189 6.79903809 5.36870605 5.73828125 4.98828125 C4.84149658 4.67415283 3.94471191 4.36002441 3.02075195 4.03637695 C1 3 1 3 0 0 Z " fill="#151515" transform="translate(603,434)"/>
<path d="M0 0 C0 0.33 0 0.66 0 1 C7.26 1 14.52 1 22 1 C22 1.66 22 2.32 22 3 C25.96 3.33 29.92 3.66 34 4 C34 4.33 34 4.66 34 5 C33.40912598 5.0093457 32.81825195 5.01869141 32.20947266 5.02832031 C-0.92544197 5.67665357 -35.31283554 9.73776733 -62 31 C-63.5594055 32.17079966 -65.12162373 33.33786883 -66.6875 34.5 C-67.79230911 35.33248141 -68.89675174 36.16545117 -70 37 C-64.80689439 26.47831645 -57.30303153 21.42202585 -47.25 15.875 C-46.47011719 15.44268066 -45.69023438 15.01036133 -44.88671875 14.56494141 C-30.91359001 7 -30.91359001 7 -24 7 C-24 6.34 -24 5.68 -24 5 C-28.455 5.495 -28.455 5.495 -33 6 C-32.67 4.68 -32.34 3.36 -32 2 C-30.54263913 1.80508548 -29.08405407 1.61930642 -27.625 1.4375 C-26.81289063 1.33308594 -26.00078125 1.22867187 -25.1640625 1.12109375 C-23 1 -23 1 -21 2 C-18.37512621 1.74654382 -15.79529289 1.43636879 -13.1875 1.0625 C-8.77880262 0.44408544 -4.46446285 -0.1491078 0 0 Z " fill="#5B5B5B" transform="translate(593,309)"/>
<path d="M0 0 C3.25830562 2.90310249 4.78734778 5.31705204 6.1875 9.4375 C6.51105469 10.36433594 6.83460938 11.29117188 7.16796875 12.24609375 C11.15251391 25.43437702 9.54900162 38.10536388 3.33984375 50.24609375 C-8.06191743 70.12308603 -26.56139344 81.5420013 -48.18359375 87.4765625 C-55.65867839 89.41901034 -63.1767778 91.07125792 -70.75805664 92.54174805 C-72.20710444 92.8379326 -73.64994064 93.16726694 -75.08227539 93.53588867 C-105.29957841 100.84882222 -144.67241671 92.62497808 -174 84.5625 C-175.05147217 84.27407227 -176.10294434 83.98564453 -177.1862793 83.68847656 C-183.38194602 81.924916 -189.20143008 79.81051266 -195 77 C-191.41274571 75.80424857 -190.47205826 76.28581772 -186.9765625 77.51171875 C-185.96577637 77.8557373 -184.95499023 78.19975586 -183.91357422 78.55419922 C-182.82834473 78.92818848 -181.74311523 79.30217773 -180.625 79.6875 C-169.18543206 83.48969237 -157.90312377 86.17010926 -146 88 C-145.30197266 88.11037598 -144.60394531 88.22075195 -143.88476562 88.33447266 C-101.96516406 94.85233431 -53.16152672 94.39857507 -16.8828125 69.89453125 C-14.44588071 68.03905583 -12.21450151 66.11384235 -10 64 C-9.29875 63.3503125 -8.5975 62.700625 -7.875 62.03125 C2.53552825 51.46298647 6.27418121 38.28613336 6.39819336 23.86547852 C6.29625195 15.97749476 4.47845752 10.10517717 1 3 C0.67 2.01 0.34 1.02 0 0 Z " fill="#656566" transform="translate(684,551)"/>
<path d="M0 0 C2.12472576 -0.05386629 4.24983652 -0.09273071 6.375 -0.125 C7.55835938 -0.14820313 8.74171875 -0.17140625 9.9609375 -0.1953125 C13 0 13 0 15 2 C16.8906046 2.68471195 16.8906046 2.68471195 19.0625 3.18359375 C19.85914063 3.38919922 20.65578125 3.59480469 21.4765625 3.80664062 C23.15793907 4.22698477 24.8402378 4.64365742 26.5234375 5.05664062 C27.32007813 5.26353516 28.11671875 5.47042969 28.9375 5.68359375 C29.66839844 5.86462646 30.39929688 6.04565918 31.15234375 6.23217773 C33 7 33 7 35 10 C35.18381734 12.56792664 35.25240825 15.02551182 35.22705078 17.5925293 C35.22734283 18.36349945 35.22763489 19.1344696 35.22793579 19.92880249 C35.22654233 22.47738902 35.21098049 25.02568328 35.1953125 27.57421875 C35.19158242 29.34112895 35.18873543 31.10804122 35.18673706 32.87495422 C35.17910017 37.52582508 35.1594512 42.17657106 35.1373291 46.82739258 C35.11687188 51.57306224 35.10773561 56.31875208 35.09765625 61.06445312 C35.07620537 70.37635696 35.04206873 79.68816809 35 89 C32 88 32 88 30.8125 85.875 C30 83 30 83 30.125 79.8125 C29.8437286 71.23372219 24.98801108 63.90850198 20.64257812 56.73413086 C18 52.30881158 18 52.30881158 18 49 C19.07170177 50.45158454 20.13173368 51.91178442 21.1875 53.375 C21.77917969 54.18710937 22.37085938 54.99921875 22.98046875 55.8359375 C25.65597951 60.02774353 27.77605775 64.5521155 30 69 C30.33 49.2 30.66 29.4 31 9 C25.72 7.68 20.44 6.36 15 5 C12.16428518 4.25905516 9.33014019 3.51196082 6.5 2.75 C5.2521875 2.41484375 4.004375 2.0796875 2.71875 1.734375 C1.8215625 1.49203125 0.924375 1.2496875 0 1 C0 0.67 0 0.34 0 0 Z " fill="#272727" transform="translate(695,312)"/>
<path d="M0 0 C4.44206859 0.86674509 6.49896809 2.34088802 9.23046875 5.78125 C12.68508528 9.83089625 16.12085955 12.42802207 20.75 15 C21.52061768 15.43932861 22.29123535 15.87865723 23.08520508 16.33129883 C37.23188698 24.13814689 52.24611536 30.44148071 67 37 C67.99 36.01 67.99 36.01 69 35 C72 40.75 72 40.75 72 43 C64.19481757 41.6085698 57.45125976 38.83089834 50.25 35.5625 C49.06857422 35.02971436 47.88714844 34.49692871 46.66992188 33.94799805 C6.26781906 15.53563812 6.26781906 15.53563812 0 3 C0 2.01 0 1.02 0 0 Z " fill="#0B0B0B" transform="translate(534,378)"/>
<path d="M0 0 C1.98 0.66 3.96 1.32 6 2 C6 2.99 6 3.98 6 5 C5.34 5.66 4.68 6.32 4 7 C3.505 6.505 3.505 6.505 3 6 C2.84966309 6.58265625 2.69932617 7.1653125 2.54443359 7.765625 C-11.77960057 62.85306705 -11.77960057 62.85306705 -30 75 C-30 74.01 -30 73.02 -30 72 C-30.99 72 -31.98 72 -33 72 C-32.62343262 71.57952393 -32.24686523 71.15904785 -31.85888672 70.72583008 C-15.11003555 51.66434301 -6.78234762 27.79149348 -1.578125 3.34375 C-1 1 -1 1 0 0 Z " fill="#414142" transform="translate(520,493)"/>
<path d="M0 0 C59.73 0 119.46 0 181 0 C181 0.33 181 0.66 181 1 C179.35 1.33 177.7 1.66 176 2 C176 2.33 176 2.66 176 3 C150.71669183 3.08009291 125.438567 2.86651973 100.15686035 2.59614182 C96.96753421 2.56215402 93.77820165 2.52883299 90.58886719 2.49563599 C60.38819069 2.17967767 30.19251358 1.79521271 0 1 C0 0.67 0 0.34 0 0 Z " fill="#5A5A59" transform="translate(296,310)"/>
<path d="M0 0 C0.33 0 0.66 0 1 0 C1.32364804 4.16329067 0.56919436 6.1921331 -1.75 9.625 C-10.80485569 23.92439386 -12.57917978 41.85410111 -9.28125 58.34375 C-7.54895738 64.658236 -5.0730646 70.41017297 -1.85546875 76.109375 C-1.57316406 76.73328125 -1.29085938 77.3571875 -1 78 C-1.495 78.99 -1.495 78.99 -2 80 C-9.66742597 65.40318907 -9.66742597 65.40318907 -11 58 C-11.66 58 -12.32 58 -13 58 C-13.33 58.99 -13.66 59.98 -14 61 C-16.44786923 47.05588777 -15.80947064 34.92646154 -14 21 C-13.34 21 -12.68 21 -12 21 C-11.88140625 20.278125 -11.7628125 19.55625 -11.640625 18.8125 C-10.03451063 11.76126618 -6.45259007 5.69528589 -1 1 C-0.67 0.67 -0.34 0.34 0 0 Z " fill="#3C3C3D" transform="translate(479,358)"/>
<path d="M0 0 C3.55491619 0.61097646 6.6387076 1.56233515 9.953125 2.9765625 C10.9433667 3.39212402 11.9336084 3.80768555 12.95385742 4.23583984 C14.04158447 4.6942627 15.12931152 5.15268555 16.25 5.625 C28.11131462 10.54961868 40.10869946 15.01442269 52.1875 19.375 C69.98044554 25.81221681 87.58540311 32.59714094 105 40 C105.90089355 40.3820459 106.80178711 40.7640918 107.72998047 41.15771484 C143.84213314 56.68426627 143.84213314 56.68426627 150 69 C147.32529201 67.73253366 144.98671468 66.35188146 142.62890625 64.56640625 C115.47868711 44.42685487 82.79053035 32.71150762 51 21.875 C42.31532782 18.86767193 33.68722461 15.71100784 25.07421875 12.50518799 C23.61170887 11.96141454 22.14849375 11.41953402 20.68457031 10.87957764 C18.61832847 10.11666933 16.55494674 9.34648588 14.4921875 8.57421875 C13.28933105 8.12651123 12.08647461 7.67880371 10.84716797 7.2175293 C8 6 8 6 6 4 C5.154375 3.67 4.30875 3.34 3.4375 3 C1 2 1 2 0 0 Z " fill="#6B6A6A" transform="translate(569,423)"/>
<path d="M0 0 C0.33 0 0.66 0 1 0 C1 83.16 1 166.32 1 252 C0.67 252 0.34 252 0 252 C0 236.49 0 220.98 0 205 C-0.66 205 -1.32 205 -2 205 C-1.505 204.01 -1.505 204.01 -1 203 C-0.90339957 200.99429329 -0.87203516 198.98532605 -0.87060547 196.97729492 C-0.86745331 195.71225632 -0.86430115 194.44721771 -0.86105347 193.1438446 C-0.86284388 191.7560523 -0.86489499 190.36826031 -0.8671875 188.98046875 C-0.86651394 187.56040938 -0.86554348 186.14035012 -0.86428833 184.72029114 C-0.86281237 181.74019272 -0.86496169 178.76012424 -0.86962891 175.7800293 C-0.8753106 171.96690311 -0.87205648 168.15384755 -0.86605644 164.34072399 C-0.8624348 161.40586317 -0.86359705 158.47101895 -0.86618423 155.53615761 C-0.86684988 154.13079126 -0.86603778 152.72542339 -0.86370468 151.32005882 C-0.86115363 149.35033575 -0.86573384 147.38060737 -0.87060547 145.41088867 C-0.87140106 144.29107101 -0.87219666 143.17125336 -0.87301636 142.01750183 C-0.99063055 139.22264542 -1.41381799 136.72668261 -2 134 C-2.03772913 132.0003559 -2.04649906 129.99945939 -2 128 C-1.67 128 -1.34 128 -1 128 C-1.00222061 127.3596431 -1.00444122 126.71928619 -1.00672913 126.05952454 C-1.02885946 119.39230914 -1.04393902 112.72510419 -1.05493164 106.05786133 C-1.05995913 103.56990129 -1.06678202 101.0819442 -1.07543945 98.59399414 C-1.08757426 95.01708243 -1.09324419 91.4402098 -1.09765625 87.86328125 C-1.10281754 86.75165115 -1.10797882 85.64002106 -1.11329651 84.4947052 C-1.11337204 83.45400375 -1.11344757 82.41330231 -1.11352539 81.34106445 C-1.115746 80.4283931 -1.11796661 79.51572174 -1.12025452 78.57539368 C-0.9980703 75.95867313 -0.58046788 73.55100026 0 71 C-0.66 70.67 -1.32 70.34 -2 70 C-1.34 70 -0.68 70 0 70 C-0.0721875 68.95199219 -0.144375 67.90398437 -0.21875 66.82421875 C-0.3125529 65.4453161 -0.40629999 64.06640965 -0.5 62.6875 C-0.54769531 61.99720703 -0.59539062 61.30691406 -0.64453125 60.59570312 C-0.95502544 56.00482473 -0.99725293 51.48318273 -0.90820312 46.88598633 C-0.88818237 45.84513382 -0.86816162 44.80428131 -0.84753418 43.73188782 C-0.8256604 42.60993515 -0.80378662 41.48798248 -0.78125 40.33203125 C-0.75905396 39.18208176 -0.73685791 38.03213226 -0.71398926 36.84733582 C-0.64292971 33.16905193 -0.5714694 29.49077595 -0.5 25.8125 C-0.45179655 23.32096405 -0.40361914 20.8294276 -0.35546875 18.33789062 C-0.23728144 12.22525453 -0.11876497 6.11262489 0 0 Z " fill="#424343" transform="translate(290,344)"/>
<path d="M0 0 C13.08309352 1.98416584 26.45672027 19.01067872 33.87109375 28.984375 C39 36.24954128 39 36.24954128 39 39 C38.34 39 37.68 39 37 39 C37.40992188 39.845625 37.81984375 40.69125 38.2421875 41.5625 C38.78101563 42.696875 39.31984375 43.83125 39.875 45 C40.40867187 46.11375 40.94234375 47.2275 41.4921875 48.375 C44.85140444 56.45104487 45.26583413 63.34411747 45.125 72 C45.11597656 73.06089844 45.10695313 74.12179687 45.09765625 75.21484375 C45.07427524 77.81013638 45.04150556 80.40494465 45 83 C44.67 83 44.34 83 44 83 C43.96261719 81.86304688 43.92523437 80.72609375 43.88671875 79.5546875 C42.97111994 56.25637531 36.7125864 38.38014041 21 21 C20.12730469 20.31421875 19.25460937 19.6284375 18.35546875 18.921875 C16 17 16 17 14.60546875 14.57421875 C12.43476072 11.09369176 9.61307768 9.17618564 6.3125 6.8125 C4.15449337 5.25534113 2.07442099 3.67196556 0 2 C0 1.34 0 0.68 0 0 Z " fill="#202020" transform="translate(703,477)"/>
<path d="M0 0 C0.99 0.495 0.99 0.495 2 1 C-7.21244231 13.86224046 -27.6835025 17.07701124 -42.31884766 19.56396484 C-61.38808052 22.46248824 -61.38808052 22.46248824 -67 21 C-69.02350669 20.85374965 -71.05053334 20.75316797 -73.078125 20.68359375 C-74.23828125 20.64169922 -75.3984375 20.59980469 -76.59375 20.55664062 C-77.8003125 20.51732422 -79.006875 20.47800781 -80.25 20.4375 C-82.08304688 20.37272461 -82.08304688 20.37272461 -83.953125 20.30664062 C-86.9686392 20.20062645 -89.98423448 20.09856064 -93 20 C-93 19.67 -93 19.34 -93 19 C-92.14059814 18.98541748 -91.28119629 18.97083496 -90.39575195 18.95581055 C-60.35016242 18.38823149 -27.86667976 17.36564533 -1.6015625 0.78515625 C-1.07304688 0.52605469 -0.54453125 0.26695312 0 0 Z " fill="#0E0E0E" transform="translate(661,621)"/>
<path d="M0 0 C0.99 0 1.98 0 3 0 C12.72743463 19.86411409 13.9534621 38.90070432 8.03515625 60.12109375 C7 63 7 63 5 65 C4.01 64.67 3.02 64.34 2 64 C1.71125 64.969375 1.4225 65.93875 1.125 66.9375 C0 70 0 70 -2 71 C-0.93516208 67.78567531 0.14590027 64.57866184 1.25390625 61.37890625 C1.69017136 60.10679387 2.12636846 58.83465817 2.5625 57.5625 C2.89411133 56.61793945 2.89411133 56.61793945 3.23242188 55.65429688 C4.67671593 51.40868323 5.49127733 47.42988843 6 43 C6.33 43 6.66 43 7 43 C7.48233564 29.22189702 7.74751644 17.33640465 1.36328125 4.78125 C0 2 0 2 0 0 Z " fill="#131314" transform="translate(740,516)"/>
<path d="M0 0 C0 3.90838866 -1.50567876 5.11594107 -4 8 C-2.68 7.34 -1.36 6.68 0 6 C-3.56316824 10.62267092 -7.17062768 13.93349093 -12 17.1875 C-12.69005127 17.65381836 -13.38010254 18.12013672 -14.09106445 18.60058594 C-30.65988689 29.53296994 -55.30237144 44.29360178 -76 43 C-73.14543397 41.09695598 -71.2760901 40.3932854 -68.01953125 39.51953125 C-67.02711426 39.24584717 -66.03469727 38.97216309 -65.01220703 38.69018555 C-63.95630371 38.40054932 -62.90040039 38.11091309 -61.8125 37.8125 C-54.22427581 35.6703779 -46.83780755 33.39007166 -39.625 30.1875 C-38.64623901 29.75304565 -38.64623901 29.75304565 -37.64770508 29.30981445 C-35.02096996 28.09695334 -33.06196404 27.06196404 -31 25 C-31.66 24.67 -32.32 24.34 -33 24 C-31.99582031 23.39414062 -30.99164063 22.78828125 -29.95703125 22.1640625 C-19.35316535 15.69492269 -8.65198229 9.02278153 0 0 Z " fill="#3B3B3B" transform="translate(478,575)"/>
<path d="M0 0 C0.99 0.495 0.99 0.495 2 1 C-12.90629713 10.66894949 -29.05340635 16.91057503 -46 22 C-46.68352539 22.20608887 -47.36705078 22.41217773 -48.07128906 22.62451172 C-68.73102042 28.68688804 -90.60679973 30.56484121 -112 32 C-112 31.34 -112 30.68 -112 30 C-111.13721436 29.91435791 -110.27442871 29.82871582 -109.38549805 29.74047852 C-106.18160136 29.42080116 -102.9780344 29.09804171 -99.7746582 28.77319336 C-98.38871467 28.63328585 -97.00264684 28.49460403 -95.61645508 28.35717773 C-93.62288606 28.15932083 -91.6297941 27.9566757 -89.63671875 27.75390625 C-88.43748779 27.63345947 -87.23825684 27.5130127 -86.00268555 27.38891602 C-82.95605185 27.09187839 -82.95605185 27.09187839 -80 26 C-78.04412658 25.73143231 -76.08518579 25.48503427 -74.125 25.25 C-60.27393855 23.31429265 -46.65233144 19.99761117 -33.6171875 14.91796875 C-31 14 -31 14 -28 14 C-28 13.34 -28 12.68 -28 12 C-26.14375 11.319375 -26.14375 11.319375 -24.25 10.625 C-22.02227422 9.79498618 -19.92824028 8.963095 -17.8125 7.875 C-16 7 -16 7 -13.7421875 6.640625 C-9.51843315 5.65387897 -6.13956505 3.36071885 -2.42578125 1.1796875 C-1.62527344 0.79039062 -0.82476563 0.40109375 0 0 Z " fill="#404040" transform="translate(704,620)"/>
<path d="M0 0 C27.39 0 54.78 0 83 0 C82 3 82 3 80 4 C78.19577026 4.03065491 78.19577026 4.03065491 75.97216797 3.89868164 C75.1300174 3.85319687 74.28786682 3.8077121 73.42019653 3.760849 C72.49520355 3.70699539 71.57021057 3.65314178 70.6171875 3.59765625 C57.1244685 2.89778751 43.63255118 2.66373394 30.125 2.4375 C27.67187008 2.39415791 25.21874502 2.35053959 22.765625 2.30664062 C16.84380206 2.20125584 10.92192911 2.09923044 5 2 C4.34 3.32 3.68 4.64 3 6 C3 4.68 3 3.36 3 2 C2.01 2 1.02 2 0 2 C0 1.34 0 0.68 0 0 Z " fill="#1A1A1A" transform="translate(350,312)"/>
<path d="M0 0 C0.33 0.66 0.66 1.32 1 2 C1.66 2 2.32 2 3 2 C3.33 20.15 3.66 38.3 4 57 C2.02 57.495 2.02 57.495 0 58 C0 38.86 0 19.72 0 0 Z " fill="#060606" transform="translate(356,398)"/>
<path d="M0 0 C3.25830562 2.90310249 4.78734778 5.31705204 6.1875 9.4375 C6.67283203 10.82775391 6.67283203 10.82775391 7.16796875 12.24609375 C11.15251391 25.43437702 9.54900162 38.10536388 3.33984375 50.24609375 C-3.91156909 62.88767384 -13.69696897 71.50653084 -26 79 C-26.99 78.34 -27.98 77.68 -29 77 C-28.17757812 76.52691406 -27.35515625 76.05382812 -26.5078125 75.56640625 C-11.35673291 66.59122862 0.50007942 55.59326449 5.54418945 38.11425781 C8.14737798 26.03947868 6.35665769 13.94163194 1 3 C0.67 2.01 0.34 1.02 0 0 Z " fill="#565658" transform="translate(684,551)"/>
<path d="M0 0 C3.24164349 3.74035787 4.85546843 8.03022982 6.6875 12.5625 C7.00783203 13.33013672 7.32816406 14.09777344 7.65820312 14.88867188 C10 20.61583822 10 20.61583822 10 24 C10.66 24 11.32 24 12 24 C12.33 23.34 12.66 22.68 13 22 C13.69969682 24.24623699 14.38435043 26.49716414 15.0625 28.75 C15.44535156 30.00296875 15.82820312 31.2559375 16.22265625 32.546875 C17.27926261 37.24054347 17.27926261 37.24054347 16 40 C15.01 40.495 15.01 40.495 14 41 C11.70278437 40.11211095 9.53058291 39.16357379 7.3125 38.10546875 C6.65419189 37.79805252 5.99588379 37.49063629 5.31762695 37.17390442 C3.92384784 36.52098862 2.53188116 35.86419211 1.14160156 35.20385742 C-0.98724933 34.19355119 -3.12189564 33.19643816 -5.2578125 32.20117188 C-6.6097393 31.56587884 -7.96131392 30.9298357 -9.3125 30.29296875 C-9.9521167 29.99392136 -10.5917334 29.69487396 -11.25073242 29.38676453 C-13.88790832 28.1287363 -15.91714604 27.08285396 -18 25 C-14.0888779 25.62675954 -10.8786721 26.82660726 -7.296875 28.50390625 C-6.2346875 28.99697266 -5.1725 29.49003906 -4.078125 29.99804688 C-2.43070313 30.77245117 -2.43070313 30.77245117 -0.75 31.5625 C1.44198433 32.58618713 3.63465449 33.60840747 5.828125 34.62890625 C6.7965332 35.08338135 7.76494141 35.53785645 8.76269531 36.00610352 C10.74429116 37.06766353 10.74429116 37.06766353 12 37 C9.69635499 28.10020376 6.83420075 19.6390062 3.37475586 11.13134766 C1.88333637 7.43381028 0.58982288 3.97147407 0 0 Z " fill="#3C3D3D" transform="translate(587,375)"/>
<path d="M0 0 C0.99 0.33 1.98 0.66 3 1 C-0.36355584 3.74427299 -3.80878483 6.27715166 -7.375 8.75 C-12.37446071 12.3707607 -16.13141047 16.23524639 -20 21 C-21.47201741 22.67298433 -22.95124281 24.33965324 -24.4375 26 C-25.11683594 26.763125 -25.79617188 27.52625 -26.49609375 28.3125 C-26.99238281 28.869375 -27.48867188 29.42625 -28 30 C-28.66 29.34 -29.32 28.68 -30 28 C-30.66 28.33 -31.32 28.66 -32 29 C-27.05247572 18.19671027 -16.29772474 10.31086568 -6.625 3.9375 C-6.017771 3.53088135 -5.41054199 3.1242627 -4.78491211 2.70532227 C-3.0390625 1.58984375 -3.0390625 1.58984375 0 0 Z " fill="#1F1F20" transform="translate(509,331)"/>
<path d="M0 0 C7.44553017 0.44065383 14.48350483 1.65000286 21.73828125 3.37890625 C24.98581523 4.10857628 24.98581523 4.10857628 28.29296875 3.96484375 C31 4 31 4 33 6 C35.57061311 6.64767793 35.57061311 6.64767793 38 7 C38 7.66 38 8.32 38 9 C34.6875 10.125 34.6875 10.125 31 11 C30.01 10.34 29.02 9.68 28 9 C26.04863273 8.39892091 26.04863273 8.39892091 23.89453125 8 C23.08274414 7.8359668 22.27095703 7.67193359 21.43457031 7.50292969 C20.56928711 7.33696289 19.70400391 7.17099609 18.8125 7 C17.92788086 6.82629883 17.04326172 6.65259766 16.13183594 6.47363281 C8.12504645 4.94237383 0.10507529 3.86031525 -8 3 C-8 2.67 -8 2.34 -8 2 C-5.36 1.67 -2.72 1.34 0 1 C0 0.67 0 0.34 0 0 Z " fill="#333332" transform="translate(481,311)"/>
<path d="M0 0 C-0.33 0.99 -0.66 1.98 -1 3 C-2.01578125 3.15855469 -3.0315625 3.31710937 -4.078125 3.48046875 C-12.98764147 4.95869037 -20.76226841 7.17759162 -29 11 C-33.01945931 12.72521974 -36.64254752 13.48735853 -41 14 C-38.43842476 10.88505311 -35.72780746 10.01452946 -31.9375 8.8125 C-30.87402344 8.46832031 -29.81054688 8.12414062 -28.71484375 7.76953125 C-26 7 -26 7 -24 7 C-24 6.34 -24 5.68 -24 5 C-28.455 5.495 -28.455 5.495 -33 6 C-32.67 4.68 -32.34 3.36 -32 2 C-30.54263913 1.80508548 -29.08405407 1.61930642 -27.625 1.4375 C-26.81289063 1.33308594 -26.00078125 1.22867187 -25.1640625 1.12109375 C-23 1 -23 1 -21 2 C-18.37512621 1.74654382 -15.79529289 1.43636879 -13.1875 1.0625 C-8.77880262 0.44408544 -4.46446285 -0.1491078 0 0 Z " fill="#3D3D3E" transform="translate(593,309)"/>
<path d="M0 0 C0.495 1.485 0.495 1.485 1 3 C-10.01250217 5.00571345 -20.80826494 6.52129747 -32 7 C-32 6.67 -32 6.34 -32 6 C-44.87 5.505 -44.87 5.505 -58 5 C-58 4.67 -58 4.34 -58 4 C-56.71089722 3.97812622 -56.71089722 3.97812622 -55.39575195 3.95581055 C-39.01442022 3.64635745 -23.05289517 3.02031971 -6.86572266 0.26513672 C-4.56304948 -0.06209477 -2.32157045 -0.10700625 0 0 Z " fill="#1F1F1F" transform="translate(626,636)"/>
<path d="M0 0 C2.68088396 0.00537447 5.36160148 0.0000179 8.04248047 -0.00634766 C25.46052311 -0.01564202 25.46052311 -0.01564202 32.55419922 1.13037109 C33.04919922 2.12037109 33.04919922 2.12037109 33.55419922 3.13037109 C12.76419922 2.80037109 -8.02580078 2.47037109 -29.44580078 2.13037109 C-29.44580078 1.80037109 -29.44580078 1.47037109 -29.44580078 1.13037109 C-19.62997675 0.03305845 -9.86196913 -0.02352828 0 0 Z " fill="#141414" transform="translate(632.44580078125,304.86962890625)"/>
<path d="M0 0 C-0.80824219 0.32613281 -1.61648438 0.65226562 -2.44921875 0.98828125 C-3.51785156 1.42527344 -4.58648438 1.86226563 -5.6875 2.3125 C-7.27111328 2.95638672 -7.27111328 2.95638672 -8.88671875 3.61328125 C-11.96848371 4.90775963 -11.96848371 4.90775963 -14.55078125 6.546875 C-17.15014609 8.08908189 -19.63190515 8.99892402 -22.5 9.9375 C-26.73517042 11.42094205 -29.58317948 13.05773788 -33 16 C-34.69098689 16.70191909 -36.3826639 17.40266374 -38.0859375 18.07421875 C-41.74274068 19.84291743 -44.84474259 22.4675986 -48 25 C-48.66 24.67 -49.32 24.34 -50 24 C-39.62642369 15.55353075 -39.62642369 15.55353075 -34 12 C-34.33 11.34 -34.66 10.68 -35 10 C-31.25 8.875 -31.25 8.875 -29 10 C-26.41888567 8.81835691 -23.94048514 7.58010106 -21.4375 6.25 C-5.75886691 -1.82194241 -5.75886691 -1.82194241 0 0 Z " fill="#414141" transform="translate(545,320)"/>
<path d="M0 0 C0 5.53121461 -3.72490179 9.87502865 -6.5625 14.46484375 C-9.17920296 19.07962697 -10.25014858 22.8216717 -10.5625 28.125 C-10.82832385 32.47583125 -11.62197227 35.86591682 -13 40 C-16.00422796 35.49365807 -15.56866948 31.28446518 -15 26 C-13.99995478 22.48437711 -12.58583809 19.2869101 -11 16 C-10.54947266 14.95005859 -10.54947266 14.95005859 -10.08984375 13.87890625 C-7.63863108 8.43530409 -4.08422682 4.31367776 0 0 Z " fill="#454646" transform="translate(526,339)"/>
<path d="M0 0 C0.81791016 0.22945312 1.63582031 0.45890625 2.47851562 0.6953125 C4.4654512 1.2530488 6.45156511 1.81371096 8.4375 2.375 C7.4475 2.705 6.4575 3.035 5.4375 3.375 C5.4375 4.035 5.4375 4.695 5.4375 5.375 C-0.67579927 3.76383141 -6.67867651 2.08210279 -12.58984375 -0.171875 C-14.94505664 -0.7128744 -16.26660707 -0.29972988 -18.5625 0.375 C-20.89550933 0.41388349 -23.22959801 0.4198635 -25.5625 0.375 C-25.8925 -0.615 -26.2225 -1.605 -26.5625 -2.625 C-17.0918844 -5.7244742 -9.34432103 -2.64563492 0 0 Z " fill="#121212" transform="translate(506.5625,628.625)"/>
<path d="M0 0 C3.64095554 0.83221841 5.56155961 2.28886875 7.6875 5.25 C11.76016139 12.22987565 12.16439075 21.06441017 12 29 C11.34 29.33 10.68 29.66 10 30 C9.84144531 29.01 9.68289063 28.02 9.51953125 27 C7.8415688 17.24707477 5.60791468 9.76259082 -2 3 C-1.34 2.34 -0.68 1.68 0 1 C0 0.67 0 0.34 0 0 Z " fill="#1A1A1A" transform="translate(280,314)"/>
<path d="M0 0 C6.27 0 12.54 0 19 0 C19 0.33 19 0.66 19 1 C24.28 1.33 29.56 1.66 35 2 C35 2.33 35 2.66 35 3 C28.07 3 21.14 3 14 3 C14.66 4.65 15.32 6.3 16 8 C15.443125 7.80664062 14.88625 7.61328125 14.3125 7.4140625 C9.24882873 5.68625575 4.20677935 4.2306933 -1 3 C-0.67 2.01 -0.34 1.02 0 0 Z " fill="#282828" transform="translate(261,308)"/>
<path d="M0 0 C-1 3 -1 3 -3 4 C-4.48178397 4.02795819 -5.96514118 3.98861622 -7.4453125 3.9140625 C-8.35071777 3.87079834 -9.25612305 3.82753418 -10.18896484 3.78295898 C-11.15785645 3.73083252 -12.12674805 3.67870605 -13.125 3.625 C-14.10807129 3.57609619 -15.09114258 3.52719238 -16.10400391 3.47680664 C-24.40704869 3.05524669 -32.70507936 2.5585405 -41 2 C-41 1.67 -41 1.34 -41 1 C-27.31911868 0.11532407 -13.70790854 -0.12661845 0 0 Z " fill="#272727" transform="translate(433,312)"/>
<path d="M0 0 C1.47146484 0.74443359 1.47146484 0.74443359 2.97265625 1.50390625 C12.23918445 6.17416248 21.57202424 10.6652985 31 15 C31 15.99 31 16.98 31 18 C30.32453125 17.79503906 29.6490625 17.59007812 28.953125 17.37890625 C28.06109375 17.10949219 27.1690625 16.84007812 26.25 16.5625 C25.36828125 16.29566406 24.4865625 16.02882813 23.578125 15.75390625 C21.39434165 15.11531506 19.21164502 14.53224167 17 14 C17 13.34 17 12.68 17 12 C16.154375 11.79375 15.30875 11.5875 14.4375 11.375 C10.7357273 9.89429092 8.57814934 8.12971769 5.7109375 5.4375 C3.90842732 3.92306222 2.13691257 2.97047558 0 2 C0 1.34 0 0.68 0 0 Z " fill="#595959" transform="translate(539,407)"/>
<path d="M0 0 C0.33 0 0.66 0 1 0 C1 26.4 1 52.8 1 80 C-1.08954032 75.82091936 -1.16552619 75.19589427 0 71 C-0.66 70.67 -1.32 70.34 -2 70 C-1.34 70 -0.68 70 0 70 C-0.0721875 68.95199219 -0.144375 67.90398437 -0.21875 66.82421875 C-0.3125529 65.4453161 -0.40629999 64.06640965 -0.5 62.6875 C-0.54769531 61.99720703 -0.59539062 61.30691406 -0.64453125 60.59570312 C-0.95502544 56.00482473 -0.99725293 51.48318273 -0.90820312 46.88598633 C-0.88818237 45.84513382 -0.86816162 44.80428131 -0.84753418 43.73188782 C-0.8256604 42.60993515 -0.80378662 41.48798248 -0.78125 40.33203125 C-0.75905396 39.18208176 -0.73685791 38.03213226 -0.71398926 36.84733582 C-0.64292971 33.16905193 -0.5714694 29.49077595 -0.5 25.8125 C-0.45179655 23.32096405 -0.40361914 20.8294276 -0.35546875 18.33789062 C-0.23728144 12.22525453 -0.11876497 6.11262489 0 0 Z " fill="#494A49" transform="translate(290,344)"/>
<path d="M0 0 C5.35683539 1.46095511 8.36946283 5.03941399 12 9 C12.5259375 9.556875 13.051875 10.11375 13.59375 10.6875 C15 12.25 15 12.25 17 15 C16.67 15.99 16.34 16.98 16 18 C14.87851562 16.73542969 14.87851562 16.73542969 13.734375 15.4453125 C12.73990084 14.33825636 11.74509151 13.23150125 10.75 12.125 C10.25886719 11.56941406 9.76773438 11.01382812 9.26171875 10.44140625 C6.73168627 7.64150364 4.57508995 5.34491479 1 4 C0.5875 4.474375 0.175 4.94875 -0.25 5.4375 C-2.24522872 7.21895421 -3.435197 7.39651694 -6 8 C-7.67016516 8.99414593 -9.33720673 9.9935725 -11 11 C-11.66 11 -12.32 11 -13 11 C-11.73809862 7.21429586 -10.45144185 6.78168429 -7.0625 4.8125 C-6.16660156 4.28269531 -5.27070312 3.75289063 -4.34765625 3.20703125 C-2 2 -2 2 0 2 C0 1.34 0 0.68 0 0 Z " fill="#161616" transform="translate(560,339)"/>
<path d="M0 0 C4.22915147 -0.02953635 8.45827572 -0.04697584 12.6875 -0.0625 C13.86634766 -0.07087891 15.04519531 -0.07925781 16.25976562 -0.08789062 C33.01905864 -0.1338065 33.01905864 -0.1338065 40 1 C40.66 1.66 41.32 2.32 42 3 C32.55329932 3.11142897 23.1277687 3.01248292 13.6875 2.625 C12.78684814 2.59414307 11.88619629 2.56328613 10.95825195 2.53149414 C10.109646 2.4927417 9.26104004 2.45398926 8.38671875 2.4140625 C7.63608154 2.3826416 6.88544434 2.3512207 6.11206055 2.31884766 C3.75332725 1.962761 2.0670554 1.16672104 0 0 Z " fill="#191919" transform="translate(427,308)"/>
<path d="M0 0 C0.99 0.66 1.98 1.32 3 2 C2.3503125 3.0209375 2.3503125 3.0209375 1.6875 4.0625 C-0.09599326 6.99710438 -0.09599326 6.99710438 -1.3125 10.375 C-3.28397839 14.61002765 -5.82690429 17.62152593 -9 21 C-9 20.01 -9 19.02 -9 18 C-10.32 18.33 -11.64 18.66 -13 19 C-12.64808594 18.55011719 -12.29617188 18.10023438 -11.93359375 17.63671875 C-7.59080988 11.97862698 -3.76266389 6.05588508 0 0 Z " fill="#323232" transform="translate(500,547)"/>
<path d="M0 0 C0.495 0.99 0.495 0.99 1 2 C-13.19 2 -27.38 2 -42 2 C-42 1.67 -42 1.34 -42 1 C-10.68508759 -1.92860387 -10.68508759 -1.92860387 0 0 Z " fill="#0F0F10" transform="translate(314,308)"/>
<path d="M0 0 C-3.75860613 2.50573742 -7.31134569 2.87924192 -11.6875 3.5 C-12.98349121 3.69009644 -12.98349121 3.69009644 -14.30566406 3.8840332 C-25.1556267 5.40337437 -36.07660282 6.21228221 -47 7 C-47 6.34 -47 5.68 -47 5 C-46.13721436 4.91435791 -45.27442871 4.82871582 -44.38549805 4.74047852 C-41.18160136 4.42080116 -37.9780344 4.09804171 -34.7746582 3.77319336 C-33.38871467 3.63328585 -32.00264684 3.49460403 -30.61645508 3.35717773 C-28.62288606 3.15932083 -26.6297941 2.9566757 -24.63671875 2.75390625 C-23.43748779 2.63345947 -22.23825684 2.5130127 -21.00268555 2.38891602 C-17.95605185 2.09187839 -17.95605185 2.09187839 -15 1 C-10.00810919 0.22982256 -5.05236281 -0.12954776 0 0 Z " fill="#464747" transform="translate(639,645)"/>
<path d="M0 0 C1.98 0.66 3.96 1.32 6 2 C6 2.99 6 3.98 6 5 C5.34 5.66 4.68 6.32 4 7 C3.34 6.67 2.68 6.34 2 6 C1.75765625 6.97582031 1.5153125 7.95164062 1.265625 8.95703125 C0.93046875 10.22933594 0.5953125 11.50164062 0.25 12.8125 C-0.23726562 14.70935547 -0.23726562 14.70935547 -0.734375 16.64453125 C-2.03592498 20.09524556 -2.85031826 21.2200328 -6 23 C-5.38027718 20.10294624 -4.75443301 17.20744545 -4.125 14.3125 C-3.95097656 13.49587891 -3.77695312 12.67925781 -3.59765625 11.83789062 C-2.69778037 7.72179169 -1.74492704 3.85927556 0 0 Z " fill="#161516" transform="translate(520,493)"/>
<path d="M0 0 C0.99 0.33 1.98 0.66 3 1 C2.67 1.33 2.34 1.66 2 2 C4.12282669 3.00460531 6.24833021 4.00355602 8.375 5 C9.55835938 5.556875 10.74171875 6.11375 11.9609375 6.6875 C14.75428575 8.13216041 14.75428575 8.13216041 17 8 C17 8.99 17 9.98 17 11 C17.99 11.33 18.98 11.66 20 12 C19.01 13.485 19.01 13.485 18 15 C17.31035156 14.54109375 16.62070312 14.0821875 15.91015625 13.609375 C10.11884752 9.82794433 4.43111539 6.55656686 -2 4 C-1.34 2.68 -0.68 1.36 0 0 Z " fill="#181818" transform="translate(684,464)"/>
<path d="M0 0 C2.12472576 -0.05386629 4.24983652 -0.09273071 6.375 -0.125 C7.55835938 -0.14820313 8.74171875 -0.17140625 9.9609375 -0.1953125 C13 0 13 0 15 2 C16.92249403 2.7331495 16.92249403 2.7331495 19.1328125 3.2890625 C19.93847656 3.50820313 20.74414062 3.72734375 21.57421875 3.953125 C22.41597656 4.17484375 23.25773438 4.3965625 24.125 4.625 C24.97449219 4.85445313 25.82398438 5.08390625 26.69921875 5.3203125 C28.79793577 5.88625866 30.8981359 6.44587795 33 7 C33 7.66 33 8.32 33 9 C25.73182094 8.36759717 18.99346756 6.46023833 12 4.4375 C10.84371094 4.10814453 9.68742188 3.77878906 8.49609375 3.43945312 C5.66252006 2.63153335 2.83060143 1.81826057 0 1 C0 0.67 0 0.34 0 0 Z " fill="#1A1A1A" transform="translate(695,312)"/>
<path d="M0 0 C6.09731558 1.02743479 11.51556701 3.55441914 17.1875 5.9375 C18.29287109 6.39318359 19.39824219 6.84886719 20.53710938 7.31835938 C22.11782227 7.97868164 22.11782227 7.97868164 23.73046875 8.65234375 C24.69364014 9.05445068 25.65681152 9.45655762 26.64916992 9.87084961 C29 11 29 11 31 13 C25.5209468 12.41834429 20.81594317 11.04448406 15.6875 9.0625 C14.97271484 8.79759766 14.25792969 8.53269531 13.52148438 8.25976562 C8.26208682 6.26208682 8.26208682 6.26208682 6 4 C5.154375 3.67 4.30875 3.34 3.4375 3 C1 2 1 2 0 0 Z " fill="#797878" transform="translate(569,423)"/>
<path d="M0 0 C0.99 0 1.98 0 3 0 C9.88838269 14.41230068 9.88838269 14.41230068 9 23 C6.4267481 20.4267481 6.05476471 18.24085898 5.0625 14.75 C3.76636321 10.19515491 2.13980007 6.21863717 0 2 C0 1.34 0 0.68 0 0 Z " fill="#0D0D0E" transform="translate(740,516)"/>
<path d="M0 0 C-0.33 0.33 -0.66 0.66 -1 1 C-0.34 1.66 0.32 2.32 1 3 C-1.39387157 3.67449966 -3.78969221 4.33976641 -6.1875 5 C-6.86103516 5.19078125 -7.53457031 5.3815625 -8.22851562 5.578125 C-11.90555156 6.5825836 -15.1850182 7.23704741 -19 7 C-18.67 6.01 -18.34 5.02 -18 4 C-15.33798793 2.92694087 -12.80471047 2.05109519 -10.0625 1.25 C-8.9497168 0.90001953 -8.9497168 0.90001953 -7.81445312 0.54296875 C-2.2711833 -1.13559165 -2.2711833 -1.13559165 0 0 Z " fill="#1A1B1A" transform="translate(644,631)"/>
<path d="M0 0 C4.06884246 -0.17314223 7.53626603 0.03456222 11.5 1 C15.41436592 1.95196314 18.9615743 2.07766203 23 2 C24.67557379 2.28520405 26.34817245 2.59955696 28 3 C28 3.66 28 4.32 28 5 C24.6875 6.125 24.6875 6.125 21 7 C20.01 6.34 19.02 5.68 18 5 C15.98072023 4.36894696 15.98072023 4.36894696 13.76953125 3.9296875 C12.96708984 3.75566406 12.16464844 3.58164062 11.33789062 3.40234375 C10.50451172 3.22832031 9.67113281 3.05429687 8.8125 2.875 C7.96751953 2.69324219 7.12253906 2.51148438 6.25195312 2.32421875 C4.1691928 1.87707247 2.08474994 1.43777624 0 1 C0 0.67 0 0.34 0 0 Z " fill="#393938" transform="translate(491,315)"/>
<path d="M0 0 C5.61 0 11.22 0 17 0 C17 0.66 17 1.32 17 2 C20.96 2.33 24.92 2.66 29 3 C29 3.33 29 3.66 29 4 C19.60853097 4.09908936 10.34258296 4.12998844 1 3 C0.67 2.01 0.34 1.02 0 0 Z " fill="#4A4B4B" transform="translate(598,310)"/>
<path d="M0 0 C-8.90933745 4.90922676 -18.90651781 8.58691249 -29 10 C-29.33 9.34 -29.66 8.68 -30 8 C-28.7934375 7.68546875 -27.586875 7.3709375 -26.34375 7.046875 C-24.72904568 6.61503547 -23.11446907 6.1827182 -21.5 5.75 C-20.70851563 5.54503906 -19.91703125 5.34007812 -19.1015625 5.12890625 C-14.28168404 3.82516863 -10.12092509 2.21137686 -5.80664062 -0.31933594 C-3.51673327 -1.18207401 -2.27343866 -0.78329612 0 0 Z " fill="#626262" transform="translate(657,630)"/>
<path d="M0 0 C0.66 0.33 1.32 0.66 2 1 C1.48517081 6.852795 0.54642808 12.3297637 -1 18 C-0.34 18 0.32 18 1 18 C0.34 19.32 -0.32 20.64 -1 22 C-1.99 21.67 -2.98 21.34 -4 21 C-4.28875 21.969375 -4.5775 22.93875 -4.875 23.9375 C-6 27 -6 27 -8 28 C-6.93516208 24.78567531 -5.85409973 21.57866184 -4.74609375 18.37890625 C-4.30982864 17.10679387 -3.87363154 15.83465817 -3.4375 14.5625 C-3.10588867 13.61793945 -3.10588867 13.61793945 -2.76757812 12.65429688 C-1.32328407 8.40868323 -0.50872267 4.42988843 0 0 Z " fill="#282829" transform="translate(746,559)"/>
<path d="M0 0 C0 0.99 0 1.98 0 3 C-2.41032251 4.20216334 -4.82683479 5.38674978 -7.25 6.5625 C-8.27287109 7.07586914 -8.27287109 7.07586914 -9.31640625 7.59960938 C-13.02168909 9.38030356 -15.07871478 10.3058334 -19 9 C-13.28356372 4.59017773 -6.74029482 2.44010673 0 0 Z " fill="#111110" transform="translate(447,599)"/>
<path d="M0 0 C0 0.66 0 1.32 0 2 C-1.17369141 2.41572266 -1.17369141 2.41572266 -2.37109375 2.83984375 C-3.88896484 3.38318359 -3.88896484 3.38318359 -5.4375 3.9375 C-6.44683594 4.29714844 -7.45617187 4.65679688 -8.49609375 5.02734375 C-10.90313745 5.76877639 -10.90313745 5.76877639 -12 7 C-13.69937853 7.37633296 -15.41032714 7.70098348 -17.125 8 C-18.11371094 8.17273438 -19.10242188 8.34546875 -20.12109375 8.5234375 C-23.40910216 9.06772112 -26.69659457 9.55954594 -30 10 C-30 9.34 -30 8.68 -30 8 C-29.15405273 7.79636841 -29.15405273 7.79636841 -28.29101562 7.58862305 C-25.69273368 6.96006651 -23.09638773 6.32383379 -20.5 5.6875 C-19.613125 5.47416016 -18.72625 5.26082031 -17.8125 5.04101562 C-13.60111271 4.00365184 -9.52005588 2.88973272 -5.46875 1.33203125 C-2 0 -2 0 0 0 Z " fill="#2D2D2D" transform="translate(651,633)"/>
<path d="M0 0 C0 0.66 0 1.32 0 2 C-2.55834571 2.86881541 -5.12042461 3.7202133 -7.6875 4.5625 C-8.40873047 4.80935547 -9.12996094 5.05621094 -9.87304688 5.31054688 C-13.94352832 6.63020068 -16.78027933 7.38992772 -21 6 C-17.49451638 3.66301092 -13.9190119 2.54814162 -9.9375 1.3125 C-8.83825195 0.95575195 -8.83825195 0.95575195 -7.71679688 0.59179688 C-2.24388587 -1.12194293 -2.24388587 -1.12194293 0 0 Z " fill="#171717" transform="translate(429,608)"/>
<path d="M0 0 C8 2 8 2 11 5 C11 5.99 11 6.98 11 8 C11.7425 8.2475 12.485 8.495 13.25 8.75 C16.20124062 10.09147301 17.84814974 11.60905526 20 14 C12.43642751 11.19523059 5.97278306 6.36018993 0 1 C0 0.67 0 0.34 0 0 Z " fill="#484848" transform="translate(528,401)"/>
<path d="M0 0 C-6.82766817 3.54027239 -14.18640467 6.48834971 -22 6 C-22 5.34 -22 4.68 -22 4 C-7.40318907 -0.59225513 -7.40318907 -0.59225513 0 0 Z " fill="#171818" transform="translate(565,312)"/>
<path d="M0 0 C7.34164374 0.59288188 14.67386859 1.238212 22 2 C22 2.33 22 2.66 22 3 C19.47958689 3.19667089 16.95911728 3.38254317 14.4375 3.5625 C13.73302734 3.61857422 13.02855469 3.67464844 12.30273438 3.73242188 C7.68561569 4.05157754 3.5591248 3.80878035 -1 3 C-0.67 2.01 -0.34 1.02 0 0 Z " fill="#1C1C1B" transform="translate(539,637)"/>
<path d="M0 0 C2 1 2 1 4 4 C1.16577874 6.38074586 -1.63764086 7.6619603 -5.05078125 9.0390625 C-8.71062218 10.84331274 -11.82952598 13.45538578 -15 16 C-15.66 15.67 -16.32 15.34 -17 15 C-6.62642369 6.55353075 -6.62642369 6.55353075 -1 3 C-1.33 2.34 -1.66 1.68 -2 1 C-1.34 0.67 -0.68 0.34 0 0 Z " fill="#404040" transform="translate(512,329)"/>
<path d="M0 0 C18.36004646 -0.44599303 18.36004646 -0.44599303 26 2 C26.33 2.66 26.66 3.32 27 4 C17.91076799 3.4262611 8.99799566 2.38949558 0 1 C0 0.67 0 0.34 0 0 Z " fill="#161515" transform="translate(667,308)"/>
<path d="M0 0 C0.66 0.33 1.32 0.66 2 1 C-10.10565926 10.2245629 -10.10565926 10.2245629 -17 11 C-17.99 10.34 -18.98 9.68 -20 9 C-18.71475739 8.13619741 -17.42157581 7.28419631 -16.125 6.4375 C-15.40570313 5.96183594 -14.68640625 5.48617187 -13.9453125 4.99609375 C-13.30335938 4.66738281 -12.66140625 4.33867188 -12 4 C-11.34 4.33 -10.68 4.66 -10 5 C-10.33 5.66 -10.66 6.32 -11 7 C-9.84371094 6.22462891 -9.84371094 6.22462891 -8.6640625 5.43359375 C-7.66117187 4.77488281 -6.65828125 4.11617187 -5.625 3.4375 C-4.62726563 2.77621094 -3.62953125 2.11492188 -2.6015625 1.43359375 C-1.74304688 0.96050781 -0.88453125 0.48742187 0 0 Z " fill="#3F3E3F" transform="translate(465,590)"/>
<path d="M0 0 C9.01389885 4.11504078 13.88776152 12.91336823 19 21 C18.67 21.66 18.34 22.32 18 23 C17.41992188 22.21496094 16.83984375 21.42992187 16.2421875 20.62109375 C9.10824094 10.32651669 9.10824094 10.32651669 0 2 C0 1.34 0 0.68 0 0 Z " fill="#535454" transform="translate(719,492)"/>
<path d="M0 0 C0.66 0.33 1.32 0.66 2 1 C1.2884375 2.175625 1.2884375 2.175625 0.5625 3.375 C-0.33898023 4.88948678 -1.21179485 6.4235897 -2 8 C-2.99 8 -3.98 8 -5 8 C-4.67 9.32 -4.34 10.64 -4 12 C-5.32 12.33 -6.64 12.66 -8 13 C-7.92928 9.46400002 -7.80836985 6.8958137 -5.375 4.19921875 C-3.62779084 2.72324972 -1.86215167 1.32733004 0 0 Z " fill="#0C0C0C" transform="translate(541,354)"/>
<path d="M0 0 C0 3.90838866 -1.50567876 5.11594107 -4 8 C-2.68 7.34 -1.36 6.68 0 6 C-2.78999451 9.48749314 -5.25235831 12.50157221 -9 15 C-9.66 14.67 -10.32 14.34 -11 14 C-8.9692817 9.40416385 -6.68020321 6.40418797 -3 3 C-2.401875 2.401875 -1.80375 1.80375 -1.1875 1.1875 C-0.795625 0.795625 -0.40375 0.40375 0 0 Z " fill="#3A393A" transform="translate(478,575)"/>
<path d="M0 0 C1.15242187 0.00902344 2.30484375 0.01804687 3.4921875 0.02734375 C4.36101563 0.03894531 5.22984375 0.05054688 6.125 0.0625 C3.27524226 2.91225774 0.15090328 2.77050516 -3.6875 3.1875 C-4.39970703 3.27386719 -5.11191406 3.36023438 -5.84570312 3.44921875 C-9.53854257 3.87965147 -13.15727598 4.16475567 -16.875 4.0625 C-11.91299112 -0.32696939 -6.36808195 -0.06498043 0 0 Z " fill="#161617" transform="translate(583.875,307.9375)"/>
<path d="M0 0 C-1.89564426 0.79211929 -3.79152371 1.58367576 -5.6875 2.375 C-6.74324219 2.81585938 -7.79898438 3.25671875 -8.88671875 3.7109375 C-9.91410156 4.13632812 -10.94148437 4.56171875 -12 5 C-13.31484375 5.556875 -13.31484375 5.556875 -14.65625 6.125 C-17.72429287 7.27040267 -20.7582679 7.61861975 -24 8 C-20.73214101 4.37003205 -17.08365523 3.31399324 -12.5625 1.75 C-11.79873047 1.46898437 -11.03496094 1.18796875 -10.24804688 0.8984375 C-9.13719727 0.50785156 -9.13719727 0.50785156 -8.00390625 0.109375 C-7.33174072 -0.12813477 -6.6595752 -0.36564453 -5.96704102 -0.61035156 C-3.67230473 -1.0649127 -2.20393191 -0.71711584 0 0 Z " fill="#484848" transform="translate(576,315)"/>
<path d="M0 0 C3.85025879 0.60355408 6.86101159 1.76772603 10.3125 3.5625 C11.19550781 4.01753906 12.07851563 4.47257812 12.98828125 4.94140625 C13.65214844 5.29074219 14.31601562 5.64007813 15 6 C15 6.99 15 7.98 15 9 C9.72 6.69 4.44 4.38 -1 2 C-0.67 1.34 -0.34 0.68 0 0 Z " fill="#0B0B0B" transform="translate(531,499)"/>
<path d="M0 0 C0.99 0.33 1.98 0.66 3 1 C0.12465393 3.97564884 -2.88757233 6.61205381 -6.125 9.1875 C-7.42824219 10.22970703 -7.42824219 10.22970703 -8.7578125 11.29296875 C-11 13 -11 13 -13 14 C-11.43162794 10.15035948 -9.01898195 7.81314228 -6 5 C-5.48695313 4.51660156 -4.97390625 4.03320312 -4.4453125 3.53515625 C-2.875 2.125 -2.875 2.125 0 0 Z " fill="#5D5D5D" transform="translate(536,332)"/>
<path d="M0 0 C-0.33 0.99 -0.66 1.98 -1 3 C-6.9114744 3.77313045 -12.1314592 4.14819277 -18 3 C-15.13916622 1.40416075 -12.81854827 0.67972549 -9.5625 0.375 C-8.78132812 0.30152344 -8.00015625 0.22804688 -7.1953125 0.15234375 C-4.78997255 -0.01457486 -2.4102664 -0.07775053 0 0 Z " fill="#4C4C4C" transform="translate(593,309)"/>
<path d="M0 0 C-3.21561653 3.21561653 -5.12843777 3.97094793 -9.75 4.125 C-11.35875 4.063125 -11.35875 4.063125 -13 4 C-13.33 3.01 -13.66 2.02 -14 1 C-8.83955235 -0.512545 -5.34001821 -1.33500455 0 0 Z " fill="#1D1D1D" transform="translate(494,625)"/>
<path d="M0 0 C0.33 0.66 0.66 1.32 1 2 C-6.83007996 2.79773542 -14.19636521 3.14500285 -22 2 C-22 1.67 -22 1.34 -22 1 C-18.89698871 0.63517625 -15.79249627 0.28499056 -12.6875 -0.0625 C-11.36588867 -0.2181543 -11.36588867 -0.2181543 -10.01757812 -0.37695312 C-9.17001953 -0.47041016 -8.32246094 -0.56386719 -7.44921875 -0.66015625 C-6.27879028 -0.79369507 -6.27879028 -0.79369507 -5.0847168 -0.92993164 C-3 -1 -3 -1 0 0 Z " fill="#1C1C1C" transform="translate(390,618)"/>
<path d="M0 0 C0.33 0.99 0.66 1.98 1 3 C-0.36328125 5.48046875 -0.36328125 5.48046875 -2.3125 8.1875 C-2.94800781 9.08855469 -3.58351563 9.98960937 -4.23828125 10.91796875 C-5.11033203 11.94857422 -5.11033203 11.94857422 -6 13 C-6.66 13 -7.32 13 -8 13 C-7.46760392 8.47463334 -5.72876727 5.61160373 -3 2 C-2.01 1.34 -1.02 0.68 0 0 Z " fill="#141414" transform="translate(479,358)"/>
<path d="M0 0 C0.99 0.33 1.98 0.66 3 1 C1.2527456 2.29537826 -0.49791517 3.58616273 -2.25 4.875 C-3.22453125 5.59429688 -4.1990625 6.31359375 -5.203125 7.0546875 C-7.43902154 8.60982225 -9.52872493 9.88204223 -12 11 C-12.66 10.34 -13.32 9.68 -14 9 C-13.07316406 8.43410156 -12.14632812 7.86820313 -11.19140625 7.28515625 C-9.98172588 6.54434424 -8.77209291 5.80345482 -7.5625 5.0625 C-6.95083984 4.68931641 -6.33917969 4.31613281 -5.70898438 3.93164062 C-2.68972694 2.18538519 -2.68972694 2.18538519 0 0 Z " fill="#4C4D4D" transform="translate(669,619)"/>
<path d="M0 0 C0.33 0 0.66 0 1 0 C1.29915966 8.97478992 1.29915966 8.97478992 -1 12 C-1.99 12.33 -2.98 12.66 -4 13 C-3.71517632 11.58194169 -3.42181856 10.16559621 -3.125 8.75 C-2.96257813 7.96109375 -2.80015625 7.1721875 -2.6328125 6.359375 C-2.00849925 4.03168856 -1.15161458 2.10968048 0 0 Z " fill="#0A0A0B" transform="translate(748,565)"/>
<path d="M0 0 C3.66172475 0.62678171 6.8818995 1.64451846 10.3125 3.0625 C11.19550781 3.42472656 12.07851563 3.78695313 12.98828125 4.16015625 C13.65214844 4.43730469 14.31601562 4.71445312 15 5 C15 5.99 15 6.98 15 8 C8.25 6.25 8.25 6.25 6 4 C5.154375 3.67 4.30875 3.34 3.4375 3 C1 2 1 2 0 0 Z " fill="#6F6E6E" transform="translate(569,423)"/>
<path d="M0 0 C0.33 0 0.66 0 1 0 C1.33 3.63 1.66 7.26 2 11 C1.67 11 1.34 11 1 11 C0.67 14.3 0.34 17.6 0 21 C-0.33 21 -0.66 21 -1 21 C-1.02710123 18.4374282 -1.04688771 15.87514635 -1.0625 13.3125 C-1.07087891 12.59126953 -1.07925781 11.87003906 -1.08789062 11.12695312 C-1.10543632 7.28444618 -0.93524221 3.73360474 0 0 Z " fill="#1D1D1D" transform="translate(749,534)"/>
<path d="M0 0 C4.38889325 0.66498383 7.9811485 2.18757677 12 4 C12 4.99 12 5.98 12 7 C10.37007308 6.60304363 8.74607765 6.18167507 7.125 5.75 C5.76761719 5.40195312 5.76761719 5.40195312 4.3828125 5.046875 C2 4 2 4 0.6796875 1.890625 C0.45539062 1.26671875 0.23109375 0.6428125 0 0 Z " fill="#616060" transform="translate(558,418)"/>
<path d="M0 0 C-1 3 -1 3 -2.7421875 4.203125 C-3.44601562 4.54859375 -4.14984375 4.8940625 -4.875 5.25 C-5.57367187 5.60578125 -6.27234375 5.9615625 -6.9921875 6.328125 C-9 7 -9 7 -12 6 C-8.82952065 2.30110743 -4.90226152 0 0 0 Z " fill="#191818" transform="translate(525,324)"/>
<path d="M0 0 C6.06892629 -0.25287193 11.16200408 0.30167391 17 2 C15 4 15 4 13.0546875 4.1953125 C11.03645833 4.13020833 9.01822917 4.06510417 7 4 C7 3.34 7 2.68 7 2 C4.69 1.67 2.38 1.34 0 1 C0 0.67 0 0.34 0 0 Z " fill="#363736" transform="translate(583,307)"/>
<path d="M0 0 C0.33 0.66 0.66 1.32 1 2 C-2.0096463 8.48231511 -2.0096463 8.48231511 -5.75 10.4375 C-6.86375 10.7159375 -6.86375 10.7159375 -8 11 C-6.63629701 8.00779732 -5.05091917 5.70973471 -2.875 3.25 C-2.33617187 2.63640625 -1.79734375 2.0228125 -1.2421875 1.390625 C-0.62730469 0.70226562 -0.62730469 0.70226562 0 0 Z " fill="#1C1C1C" transform="translate(485,349)"/>
<path d="M0 0 C2.18725657 4.37451315 2.09858399 5.20660805 1.125 9.75 C0.92132813 10.73484375 0.71765625 11.7196875 0.5078125 12.734375 C0.34023438 13.48203125 0.17265625 14.2296875 0 15 C-0.99 14.34 -1.98 13.68 -3 13 C-2.01 8.71 -1.02 4.42 0 0 Z " fill="#202020" transform="translate(289,600)"/>
<path d="M0 0 C2.0791019 3.11865284 2.28159374 3.53739522 1.875 7 C1.81054688 7.680625 1.74609375 8.36125 1.6796875 9.0625 C1 11 1 11 -3 14 C-2.01 9.38 -1.02 4.76 0 0 Z " fill="#1C1C1C" transform="translate(517,502)"/>
<path d="M0 0 C0.33 0 0.66 0 1 0 C1 3.63 1 7.26 1 11 C0.34 11 -0.32 11 -1 11 C-2.38550197 8.22899606 -2.1877467 6.0665294 -2 3 C-1.34 2.01 -0.68 1.02 0 0 Z " fill="#0B0B0B" transform="translate(728,389)"/>
<path d="M0 0 C0 0.66 0 1.32 0 2 C-3.50776784 3.60355101 -6.14354879 4.22036864 -10 4 C-9.67 3.01 -9.34 2.02 -9 1 C-6.03421164 -0.16513114 -3.15436364 -0.08762121 0 0 Z " fill="#0F0F0E" transform="translate(635,634)"/>
<path d="M0 0 C4.455 0.99 4.455 0.99 9 2 C8.67 2.66 8.34 3.32 8 4 C5.03 4 2.06 4 -1 4 C-0.67 2.68 -0.34 1.36 0 0 Z " fill="#19191A" transform="translate(262,626)"/>
<path d="M0 0 C0.59425781 0.20109375 1.18851563 0.4021875 1.80078125 0.609375 C0.34628724 1.6149511 -1.11294318 2.61367935 -2.57421875 3.609375 C-3.79238281 4.4446875 -3.79238281 4.4446875 -5.03515625 5.296875 C-7.19921875 6.609375 -7.19921875 6.609375 -9.19921875 6.609375 C-7.8496834 2.56076896 -4.56268351 -0.81042336 0 0 Z " fill="#0D0C0D" transform="translate(556.19921875,343.390625)"/>
<path d="M0 0 C0 3.15084005 -0.45473667 4.33871316 -2 7 C-4.33333333 9.33333333 -6.66666667 11.66666667 -9 14 C-8.50128936 9.54326841 -6.97995638 7.42312822 -3.9375 4.1875 C-3.20402344 3.39730469 -2.47054687 2.60710937 -1.71484375 1.79296875 C-1.14894531 1.20128906 -0.58304688 0.60960937 0 0 Z " fill="#404041" transform="translate(526,339)"/>
<path d="M0 0 C0 0.33 0 0.66 0 1 C1.65 1.33 3.3 1.66 5 2 C5 2.33 5 2.66 5 3 C3.25034642 3.05429959 1.50020213 3.09292823 -0.25 3.125 C-1.22453125 3.14820313 -2.1990625 3.17140625 -3.203125 3.1953125 C-6.0196498 2.99862781 -7.60949036 2.44568916 -10 1 C-6.61981469 -0.04005702 -3.5219721 -0.08004482 0 0 Z " fill="#151516" transform="translate(483,627)"/>
<path d="M0 0 C0 0.99 0 1.98 0 3 C-2.8125 4.5625 -2.8125 4.5625 -6 6 C-6.99 5.67 -7.98 5.34 -9 5 C-6.47043472 1.9083091 -3.77545388 1.09068668 0 0 Z " fill="#0B0B0B" transform="translate(447,599)"/>
<path d="M0 0 C0.99 0.33 1.98 0.66 3 1 C2.67 1.33 2.34 1.66 2 2 C3.32 2.66 4.64 3.32 6 4 C5.01 5.485 5.01 5.485 4 7 C2.02 6.01 0.04 5.02 -2 4 C-1.34 2.68 -0.68 1.36 0 0 Z " fill="#1E1F1F" transform="translate(684,464)"/>
<path d="M0 0 C2.31 0.33 4.62 0.66 7 1 C7 2.32 7 3.64 7 5 C4.36 4.01 1.72 3.02 -1 2 C-0.67 1.34 -0.34 0.68 0 0 Z " fill="#101010" transform="translate(646,450)"/>
<path d="M0 0 C1.65 0 3.3 0 5 0 C5.33 1.65 5.66 3.3 6 5 C4.68 5.33 3.36 5.66 2 6 C1.34 4.02 0.68 2.04 0 0 Z " fill="#0A0A0A" transform="translate(275,311)"/>
<path d="M0 0 C0.99 0.33 1.98 0.66 3 1 C-0.7559214 4.42931954 -5.23466745 5.56429083 -10 7 C-10 6.34 -10 5.68 -10 5 C-9.16855469 4.70996094 -9.16855469 4.70996094 -8.3203125 4.4140625 C-7.59585938 4.15367187 -6.87140625 3.89328125 -6.125 3.625 C-5.04605469 3.24214844 -5.04605469 3.24214844 -3.9453125 2.8515625 C-1.81842006 2.06122217 -1.81842006 2.06122217 0 0 Z " fill="#272728" transform="translate(686,627)"/>
<path d="M0 0 C-2.49505962 2.49505962 -3.67328888 2.35948376 -7.125 2.625 C-8.03507812 2.69976563 -8.94515625 2.77453125 -9.8828125 2.8515625 C-10.93082031 2.92503906 -10.93082031 2.92503906 -12 3 C-7.82744729 -0.58050131 -5.33135955 -0.26656798 0 0 Z " fill="#0B0B0B" transform="translate(411,614)"/>
<path d="M0 0 C0.66 0 1.32 0 2 0 C2.33 0.99 2.66 1.98 3 3 C1.20991533 3.22151549 -0.58218162 3.42682213 -2.375 3.625 C-3.37273438 3.74101563 -4.37046875 3.85703125 -5.3984375 3.9765625 C-6.25695312 3.98429688 -7.11546875 3.99203125 -8 4 C-8.66 3.34 -9.32 2.68 -10 2 C-9.04287109 1.90912109 -9.04287109 1.90912109 -8.06640625 1.81640625 C-6.82697266 1.69072266 -6.82697266 1.69072266 -5.5625 1.5625 C-4.73878906 1.48128906 -3.91507813 1.40007813 -3.06640625 1.31640625 C-1.01337975 1.21069185 -1.01337975 1.21069185 0 0 Z " fill="#414041" transform="translate(622,646)"/>
<path d="M0 0 C0.66 0.33 1.32 0.66 2 1 C-0.40436026 4.60654039 -1.94679607 4.85452932 -6 6 C-6.66 5.34 -7.32 4.68 -8 4 C-6.71349294 3.30289269 -5.42059335 2.61757124 -4.125 1.9375 C-3.40570312 1.55464844 -2.68640625 1.17179688 -1.9453125 0.77734375 C-1.30335938 0.52082031 -0.66140625 0.26429688 0 0 Z " fill="#1B1C1C" transform="translate(659,628)"/>
<path d="M0 0 C0.33 0.66 0.66 1.32 1 2 C1.66 2.33 2.32 2.66 3 3 C2 6 2 6 0 7 C-0.66 7.99 -1.32 8.98 -2 10 C-2 7.69 -2 5.38 -2 3 C-1.34 3 -0.68 3 0 3 C0 2.01 0 1.02 0 0 Z " fill="#242424" transform="translate(467,376)"/>
<path d="M0 0 C1.134375 0.020625 2.26875 0.04125 3.4375 0.0625 C2.14784824 1.43812854 0.81060707 2.77016393 -0.5625 4.0625 C-1.2225 4.0625 -1.8825 4.0625 -2.5625 4.0625 C-2.5625 3.4025 -2.5625 2.7425 -2.5625 2.0625 C-3.2225 1.7325 -3.8825 1.4025 -4.5625 1.0625 C-3.5625 0.0625 -3.5625 0.0625 0 0 Z " fill="#212122" transform="translate(277.5625,622.9375)"/>
<path d="M0 0 C0 0.66 0 1.32 0 2 C-4.15267176 5.11450382 -4.15267176 5.11450382 -7.3125 4.6875 C-7.869375 4.460625 -8.42625 4.23375 -9 4 C-2.25 0 -2.25 0 0 0 Z " fill="#505050" transform="translate(548,325)"/>
<path d="M0 0 C-0.33 0.99 -0.66 1.98 -1 3 C-3.64 3 -6.28 3 -9 3 C-9 2.34 -9 1.68 -9 1 C-5.92677456 0.08941469 -3.19902639 -0.08886184 0 0 Z " fill="#454646" transform="translate(593,309)"/>
<path d="M0 0 C2 1 2 1 4 4 C2.68 4.99 1.36 5.98 0 7 C-0.66 6.67 -1.32 6.34 -2 6 C-2 2 -2 2 0 0 Z " fill="#2D2E2E" transform="translate(512,329)"/>
<path d="M0 0 C0.66 0.33 1.32 0.66 2 1 C1.875 2.875 1.875 2.875 1 5 C-2.0625 6.25 -2.0625 6.25 -5 7 C-3.35 4.69 -1.7 2.38 0 0 Z " fill="#1A1B1B" transform="translate(492,559)"/>
<path d="M0 0 C0.66 0.33 1.32 0.66 2 1 C1.01 2.98 0.02 4.96 -1 7 C-1.66 7 -2.32 7 -3 7 C-2.25 2.25 -2.25 2.25 0 0 Z " fill="#0D0D0D" transform="translate(509,532)"/>
<path d="M0 0 C0.66 0 1.32 0 2 0 C3.4783226 2.95664519 3.06032783 5.74229737 3 9 C0.23776722 6.23776722 0.42143709 3.79293383 0 0 Z " fill="#0E0E0E" transform="translate(599,402)"/>
<path d="M0 0 C0.33 0.66 0.66 1.32 1 2 C-0.3125 4.625 -0.3125 4.625 -2 7 C-2.66 7 -3.32 7 -4 7 C-3.6875 4.625 -3.6875 4.625 -3 2 C-2.01 1.34 -1.02 0.68 0 0 Z " fill="#0B0B0B" transform="translate(475,364)"/>
<path d="M0 0 C0.33 0 0.66 0 1 0 C1 2.64 1 5.28 1 8 C0.67 8 0.34 8 0 8 C0 5.36 0 2.72 0 0 Z " fill="#3B3A3B" transform="translate(288,589)"/>
<path d="M0 0 C0.66 0 1.32 0 2 0 C1.34 1.32 0.68 2.64 0 4 C0 2.68 0 1.36 0 0 Z " fill="#4B4B4B" transform="translate(472,360)"/>
<path d="M0 0 C0.33 0 0.66 0 1 0 C1 1.65 1 3.3 1 5 C0.67 5 0.34 5 0 5 C0 3.35 0 1.7 0 0 Z " fill="#4E4E4E" transform="translate(288,400)"/>
<path d="M0 0 C0.33 0 0.66 0 1 0 C1 1.65 1 3.3 1 5 C0.67 5 0.34 5 0 5 C0 3.35 0 1.7 0 0 Z " fill="#4E4D4E" transform="translate(288,376)"/>
<path d="M0 0 C0.66 0.66 1.32 1.32 2 2 C1.34 2.66 0.68 3.32 0 4 C0 2.68 0 1.36 0 0 Z " fill="#444444" transform="translate(480,344)"/>
<path d="M0 0 C1 4 1 4 1 4 Z " fill="#3B3A3C" transform="translate(288,561)"/>
<path d="M0 0 C1 4 1 4 1 4 Z " fill="#403F3F" transform="translate(288,528)"/>
<path d="M0 0 C1 4 1 4 1 4 Z " fill="#464545" transform="translate(288,496)"/>
<path d="M0 0 C1 4 1 4 1 4 Z " fill="#484645" transform="translate(288,487)"/>
<path d="M0 0 C1 4 1 4 1 4 Z " fill="#4C4B4B" transform="translate(288,464)"/>
<path d="M0 0 C1 4 1 4 1 4 Z " fill="#4D4A4A" transform="translate(288,458)"/>
<path d="M0 0 C1 4 1 4 1 4 Z " fill="#4D4C4C" transform="translate(288,424)"/>
<path d="M0 0 C0.99 0.495 0.99 0.495 2 1 C1.67 1.66 1.34 2.32 1 3 C0.67 2.01 0.34 1.02 0 0 Z " fill="#474748" transform="translate(464,422)"/>
<path d="M0 0 C1 4 1 4 1 4 Z " fill="#4F4E4F" transform="translate(288,385)"/>
<path d="M0 0 C1 4 1 4 1 4 Z " fill="#4E4D4E" transform="translate(288,369)"/>
<path d="M0 0 C1 4 1 4 1 4 Z " fill="#4B4B4A" transform="translate(288,340)"/>
<path d="M0 0 C3 1 3 1 3 1 Z " fill="#383737" transform="translate(464,645)"/>
<path d="M0 0 C3 1 3 1 3 1 Z " fill="#3B3B3C" transform="translate(452,592)"/>
<path d="" fill="#4C4C4B" transform="translate(0,0)"/>
<path d="M0 0 C3 1 3 1 3 1 Z " fill="#4C4F4E" transform="translate(605,432)"/>
<path d="" fill="#4E4C4E" transform="translate(0,0)"/>
<path d="M0 0 C0.66 0 1.32 0 2 0 C1.67 0.66 1.34 1.32 1 2 C0.67 1.34 0.34 0.68 0 0 Z " fill="#3B3A3A" transform="translate(561,404)"/>
<path d="" fill="#504D4E" transform="translate(0,0)"/>
<path d="" fill="#4B4C4B" transform="translate(0,0)"/>
<path d="" fill="#4D4C4C" transform="translate(0,0)"/>
<path d="M0 0 C3 1 3 1 3 1 Z " fill="#4F4E4E" transform="translate(273,317)"/>
<path d="M0 0 C0.66 0.66 1.32 1.32 2 2 C1.34 2 0.68 2 0 2 C0 1.34 0 0.68 0 0 Z " fill="#4E4D4D" transform="translate(711,312)"/>
<path d="M0 0 C3 1 3 1 3 1 Z " fill="#545455" transform="translate(497,312)"/>
<path d="M0 0 C2 1 2 1 2 1 Z " fill="#3B3A38" transform="translate(504,653)"/>
<path d="M0 0 C2 1 2 1 2 1 Z " fill="#4F504D" transform="translate(631,632)"/>
<path d="M0 0 C2 1 2 1 2 1 Z " fill="#2D2B2B" transform="translate(358,618)"/>
<path d="" fill="#3C3A3B" transform="translate(0,0)"/>
<path d="" fill="#444343" transform="translate(0,0)"/>
<path d="" fill="#3B3B3B" transform="translate(0,0)"/>
<path d="" fill="#30302E" transform="translate(0,0)"/>
<path d="" fill="#3D3C3D" transform="translate(0,0)"/>
<path d="" fill="#3F3E3F" transform="translate(0,0)"/>
<path d="" fill="#4A494A" transform="translate(0,0)"/>
<path d="M0 0 C2 1 2 1 2 1 Z " fill="#212120" transform="translate(566,512)"/>
<path d="M0 0 C2 1 2 1 2 1 Z " fill="#2B2A2A" transform="translate(550,505)"/>
<path d="M0 0 C2 1 2 1 2 1 Z " fill="#29292A" transform="translate(548,504)"/>
<path d="" fill="#484949" transform="translate(0,0)"/>
<path d="M0 0 C2 1 2 1 2 1 Z " fill="#494A4A" transform="translate(601,421)"/>
<path d="" fill="#2F2E30" transform="translate(0,0)"/>
<path d="" fill="#4D4D4D" transform="translate(0,0)"/>
<path d="" fill="#3E3C3E" transform="translate(0,0)"/>
<path d="" fill="#4B4C4B" transform="translate(0,0)"/>
<path d="M0 0 C2 1 2 1 2 1 Z " fill="#403D3F" transform="translate(473,333)"/>
<path d="M0 0 C2 1 2 1 2 1 Z " fill="#525251" transform="translate(524,321)"/>
<path d="M0 0 C2 1 2 1 2 1 Z " fill="#5A5B5A" transform="translate(262,306)"/>
<path d="" fill="#474747" transform="translate(0,0)"/>
<path d="" fill="#464746" transform="translate(0,0)"/>
<path d="" fill="#505050" transform="translate(0,0)"/>
<path d="" fill="#595957" transform="translate(0,0)"/>
<path d="" fill="#5A5B5B" transform="translate(0,0)"/>
<path d="" fill="#3C3B3D" transform="translate(0,0)"/>
<path d="" fill="#3B3C3A" transform="translate(0,0)"/>
<path d="" fill="#504E4F" transform="translate(0,0)"/>
<path d="" fill="#40403C" transform="translate(0,0)"/>
<path d="" fill="#3E3D3B" transform="translate(0,0)"/>
<path d="" fill="#444544" transform="translate(0,0)"/>
<path d="" fill="#4C4D50" transform="translate(0,0)"/>
<path d="" fill="#3B3C39" transform="translate(0,0)"/>
<path d="" fill="#3A3838" transform="translate(0,0)"/>
<path d="" fill="#363434" transform="translate(0,0)"/>
<path d="" fill="#373534" transform="translate(0,0)"/>
<path d="" fill="#323130" transform="translate(0,0)"/>
<path d="" fill="#353434" transform="translate(0,0)"/>
<path d="" fill="#373735" transform="translate(0,0)"/>
<path d="" fill="#363535" transform="translate(0,0)"/>
<path d="" fill="#292727" transform="translate(0,0)"/>
<path d="" fill="#2D2A2B" transform="translate(0,0)"/>
<path d="" fill="#30302F" transform="translate(0,0)"/>
<path d="" fill="#2C2A2B" transform="translate(0,0)"/>
<path d="" fill="#292A29" transform="translate(0,0)"/>
<path d="" fill="#4B4B49" transform="translate(0,0)"/>
<path d="" fill="#2C2C2B" transform="translate(0,0)"/>
<path d="" fill="#434343" transform="translate(0,0)"/>
<path d="" fill="#40413F" transform="translate(0,0)"/>
<path d="" fill="#333233" transform="translate(0,0)"/>
<path d="" fill="#323231" transform="translate(0,0)"/>
<path d="" fill="#292A2D" transform="translate(0,0)"/>
<path d="" fill="#444542" transform="translate(0,0)"/>
<path d="" fill="#3B393B" transform="translate(0,0)"/>
<path d="" fill="#3B3B3B" transform="translate(0,0)"/>
<path d="" fill="#3C3E3C" transform="translate(0,0)"/>
<path d="" fill="#363635" transform="translate(0,0)"/>
<path d="" fill="#3B3A3A" transform="translate(0,0)"/>
<path d="" fill="#3E3B3C" transform="translate(0,0)"/>
<path d="" fill="#404141" transform="translate(0,0)"/>
<path d="" fill="#3B3C3A" transform="translate(0,0)"/>
<path d="" fill="#3A393A" transform="translate(0,0)"/>
<path d="" fill="#3E393B" transform="translate(0,0)"/>
<path d="" fill="#444443" transform="translate(0,0)"/>
<path d="" fill="#424142" transform="translate(0,0)"/>
<path d="" fill="#36393A" transform="translate(0,0)"/>
<path d="" fill="#302E2D" transform="translate(0,0)"/>
<path d="" fill="#2E2C2C" transform="translate(0,0)"/>
<path d="" fill="#454645" transform="translate(0,0)"/>
<path d="" fill="#2E2C2B" transform="translate(0,0)"/>
<path d="" fill="#2D2D2A" transform="translate(0,0)"/>
<path d="" fill="#444445" transform="translate(0,0)"/>
<path d="" fill="#2D2E2C" transform="translate(0,0)"/>
<path d="" fill="#2E2F2F" transform="translate(0,0)"/>
<path d="" fill="#2F2E2D" transform="translate(0,0)"/>
<path d="" fill="#3F3E3E" transform="translate(0,0)"/>
<path d="" fill="#454443" transform="translate(0,0)"/>
<path d="" fill="#41403E" transform="translate(0,0)"/>
<path d="" fill="#494A49" transform="translate(0,0)"/>
<path d="" fill="#424441" transform="translate(0,0)"/>
<path d="" fill="#262425" transform="translate(0,0)"/>
<path d="" fill="#414142" transform="translate(0,0)"/>
<path d="" fill="#242522" transform="translate(0,0)"/>
<path d="" fill="#444344" transform="translate(0,0)"/>
<path d="" fill="#282729" transform="translate(0,0)"/>
<path d="" fill="#424142" transform="translate(0,0)"/>
<path d="" fill="#2C2C2D" transform="translate(0,0)"/>
<path d="" fill="#444243" transform="translate(0,0)"/>
<path d="" fill="#333332" transform="translate(0,0)"/>
<path d="" fill="#303231" transform="translate(0,0)"/>
<path d="" fill="#424041" transform="translate(0,0)"/>
<path d="" fill="#373436" transform="translate(0,0)"/>
<path d="" fill="#383838" transform="translate(0,0)"/>
<path d="" fill="#484748" transform="translate(0,0)"/>
<path d="" fill="#3F3B3D" transform="translate(0,0)"/>
<path d="" fill="#474647" transform="translate(0,0)"/>
<path d="" fill="#424241" transform="translate(0,0)"/>
<path d="" fill="#464848" transform="translate(0,0)"/>
<path d="" fill="#50524F" transform="translate(0,0)"/>
<path d="" fill="#4B4B4D" transform="translate(0,0)"/>
<path d="" fill="#4F4D4B" transform="translate(0,0)"/>
<path d="" fill="#545352" transform="translate(0,0)"/>
<path d="" fill="#434342" transform="translate(0,0)"/>
<path d="" fill="#4E4F51" transform="translate(0,0)"/>
<path d="" fill="#454445" transform="translate(0,0)"/>
<path d="" fill="#505052" transform="translate(0,0)"/>
<path d="" fill="#525352" transform="translate(0,0)"/>
<path d="" fill="#484A4A" transform="translate(0,0)"/>
<path d="" fill="#504F51" transform="translate(0,0)"/>
<path d="" fill="#4D4C4E" transform="translate(0,0)"/>
<path d="" fill="#494E4D" transform="translate(0,0)"/>
<path d="" fill="#484949" transform="translate(0,0)"/>
<path d="" fill="#474948" transform="translate(0,0)"/>
<path d="" fill="#444245" transform="translate(0,0)"/>
<path d="" fill="#4C4E4E" transform="translate(0,0)"/>
<path d="" fill="#3D3B3A" transform="translate(0,0)"/>
<path d="" fill="#3A3938" transform="translate(0,0)"/>
<path d="" fill="#383738" transform="translate(0,0)"/>
<path d="" fill="#333332" transform="translate(0,0)"/>
<path d="" fill="#343335" transform="translate(0,0)"/>
<path d="" fill="#323230" transform="translate(0,0)"/>
<path d="" fill="#313031" transform="translate(0,0)"/>
<path d="" fill="#313132" transform="translate(0,0)"/>
<path d="" fill="#30312F" transform="translate(0,0)"/>
<path d="" fill="#2D2D2C" transform="translate(0,0)"/>
<path d="" fill="#4E4E4E" transform="translate(0,0)"/>
<path d="" fill="#2F312D" transform="translate(0,0)"/>
<path d="" fill="#4F4F4F" transform="translate(0,0)"/>
<path d="" fill="#4D4D4D" transform="translate(0,0)"/>
<path d="" fill="#2F2D2D" transform="translate(0,0)"/>
<path d="" fill="#3D3B3E" transform="translate(0,0)"/>
<path d="" fill="#2E2E2B" transform="translate(0,0)"/>
<path d="" fill="#504A4B" transform="translate(0,0)"/>
<path d="" fill="#4E4C4D" transform="translate(0,0)"/>
<path d="" fill="#4B4B4D" transform="translate(0,0)"/>
<path d="" fill="#484849" transform="translate(0,0)"/>
<path d="" fill="#2D2B2B" transform="translate(0,0)"/>
<path d="" fill="#474848" transform="translate(0,0)"/>
<path d="" fill="#514E4D" transform="translate(0,0)"/>
<path d="" fill="#3C3B3B" transform="translate(0,0)"/>
<path d="" fill="#2C2C2C" transform="translate(0,0)"/>
<path d="" fill="#4F4B4C" transform="translate(0,0)"/>
<path d="" fill="#434344" transform="translate(0,0)"/>
<path d="" fill="#474648" transform="translate(0,0)"/>
<path d="" fill="#565657" transform="translate(0,0)"/>
<path d="" fill="#454645" transform="translate(0,0)"/>
<path d="" fill="#3B3939" transform="translate(0,0)"/>
<path d="" fill="#363839" transform="translate(0,0)"/>
<path d="" fill="#2C2E2C" transform="translate(0,0)"/>
<path d="" fill="#424342" transform="translate(0,0)"/>
<path d="" fill="#2C2D2D" transform="translate(0,0)"/>
<path d="" fill="#454748" transform="translate(0,0)"/>
<path d="" fill="#3A3A3B" transform="translate(0,0)"/>
<path d="" fill="#3B3A3B" transform="translate(0,0)"/>
<path d="" fill="#393839" transform="translate(0,0)"/>
<path d="" fill="#434243" transform="translate(0,0)"/>
<path d="" fill="#414040" transform="translate(0,0)"/>
<path d="" fill="#3A3B3B" transform="translate(0,0)"/>
<path d="" fill="#424342" transform="translate(0,0)"/>
<path d="" fill="#484746" transform="translate(0,0)"/>
<path d="" fill="#454342" transform="translate(0,0)"/>
<path d="" fill="#42403F" transform="translate(0,0)"/>
<path d="" fill="#4B4A4B" transform="translate(0,0)"/>
<path d="" fill="#474645" transform="translate(0,0)"/>
<path d="" fill="#454345" transform="translate(0,0)"/>
<path d="" fill="#4A4949" transform="translate(0,0)"/>
<path d="" fill="#484646" transform="translate(0,0)"/>
<path d="" fill="#4B4A48" transform="translate(0,0)"/>
<path d="" fill="#484A48" transform="translate(0,0)"/>
<path d="" fill="#504E4B" transform="translate(0,0)"/>
<path d="" fill="#525251" transform="translate(0,0)"/>
<path d="" fill="#4F4D4E" transform="translate(0,0)"/>
<path d="" fill="#5C5A5C" transform="translate(0,0)"/>
<path d="" fill="#504F4E" transform="translate(0,0)"/>
<path d="" fill="#4F504E" transform="translate(0,0)"/>
<path d="" fill="#5E5F5D" transform="translate(0,0)"/>
<path d="" fill="#5B5B58" transform="translate(0,0)"/>
<path d="" fill="#5C5A59" transform="translate(0,0)"/>
<path d="" fill="#5B5B59" transform="translate(0,0)"/>
<path d="" fill="#555554" transform="translate(0,0)"/>
<path d="" fill="#61625F" transform="translate(0,0)"/>
<path d="" fill="#636264" transform="translate(0,0)"/>
</svg>
